<svg xmlns="http://www.w3.org/2000/svg" width="820" height="449" viewBox="0 0 820 449">
  <g id="Grupo_1094334" data-name="Grupo 1094334" transform="translate(-390 -5234)">
    <g id="Grupo_1094333" data-name="Grupo 1094333">
      <g id="Grupo_1094332" data-name="Grupo 1094332">
        <g id="Trazado_836667" data-name="Trazado 836667" transform="translate(390 5234)" fill="#fafafa">
          <path d="M 819.5 448.5 L 0.5 448.5 L 0.5 0.5 L 819.5 0.5 L 819.5 448.5 Z" stroke="none"/>
          <path d="M 1 1 L 1 448 L 819 448 L 819 1 L 1 1 M 0 0 L 820 0 L 820 449 L 0 449 L 0 0 Z" stroke="none" fill="#6e40fc"/>
        </g>
        <g id="Trazado_836668" data-name="Trazado 836668" transform="translate(511.5 5305)" fill="#d3dfff">
          <path d="M 72 44.5 L 4 44.5 C 2.070090055465698 44.5 0.5 42.92990875244141 0.5 41 L 0.5 4 C 0.5 2.070090055465698 2.070090055465698 0.5 4 0.5 L 72 0.5 C 73.92990875244141 0.5 75.5 2.070090055465698 75.5 4 L 75.5 41 C 75.5 42.92990875244141 73.92990875244141 44.5 72 44.5 Z" stroke="none"/>
          <path d="M 4 1 C 2.345787048339844 1 1 2.345787048339844 1 4 L 1 41 C 1 42.65421295166016 2.345787048339844 44 4 44 L 72 44 C 73.65421295166016 44 75 42.65421295166016 75 41 L 75 4 C 75 2.345787048339844 73.65421295166016 1 72 1 L 4 1 M 4 0 L 72 0 C 74.20913696289062 0 76 1.790855407714844 76 4 L 76 41 C 76 43.20914459228516 74.20913696289062 45 72 45 L 4 45 C 1.790863037109375 45 0 43.20914459228516 0 41 L 0 4 C 0 1.790855407714844 1.790863037109375 0 4 0 Z" stroke="none" fill="#6e40fc"/>
        </g>
        <g id="Trazado_836669" data-name="Trazado 836669" transform="translate(591.5 5305)" fill="#d3dfff">
          <path d="M 87 44.5 L 4 44.5 C 2.070094108581543 44.5 0.5 42.92990493774414 0.5 41 L 0.5 4 C 0.5 2.070094108581543 2.070094108581543 0.5 4 0.5 L 87 0.5 C 88.92990875244141 0.5 90.5 2.070094108581543 90.5 4 L 90.5 41 C 90.5 42.92990493774414 88.92990875244141 44.5 87 44.5 Z" stroke="none"/>
          <path d="M 4 1 C 2.345802307128906 1 1 2.345798492431641 1 4 L 1 41 C 1 42.65420150756836 2.345802307128906 44 4 44 L 87 44 C 88.65419769287109 44 90 42.65420150756836 90 41 L 90 4 C 90 2.345798492431641 88.65419769287109 1 87 1 L 4 1 M 4 0 L 87 0 C 89.20913696289062 0 91 1.790863037109375 91 4 L 91 41 C 91 43.20913696289062 89.20913696289062 45 87 45 L 4 45 C 1.790863037109375 45 0 43.20913696289062 0 41 L 0 4 C 0 1.790863037109375 1.790863037109375 0 4 0 Z" stroke="none" fill="#6e40fc"/>
        </g>
        <g id="Trazado_836670" data-name="Trazado 836670" transform="translate(686.5 5305)" fill="#d3dfff">
          <path d="M 116 44.5 L 4 44.5 C 2.07009220123291 44.5 0.5 42.92990875244141 0.5 41 L 0.5 4 C 0.5 2.07009220123291 2.07009220123291 0.5 4 0.5 L 116 0.5 C 117.9299087524414 0.5 119.5 2.07009220123291 119.5 4 L 119.5 41 C 119.5 42.92990875244141 117.9299087524414 44.5 116 44.5 Z" stroke="none"/>
          <path d="M 4 1 C 2.345802307128906 1 1 2.345798492431641 1 4 L 1 41 C 1 42.65420150756836 2.345802307128906 44 4 44 L 116 44 C 117.6541976928711 44 119 42.65420150756836 119 41 L 119 4 C 119 2.345798492431641 117.6541976928711 1 116 1 L 4 1 M 4 0 L 116 0 C 118.2091369628906 0 120 1.790851593017578 120 4 L 120 41 C 120 43.20913314819336 118.2091369628906 45 116 45 L 4 45 C 1.790863037109375 45 0 43.20913314819336 0 41 L 0 4 C 0 1.790851593017578 1.790863037109375 0 4 0 Z" stroke="none" fill="#6e40fc"/>
        </g>
        <g id="Trazado_836671" data-name="Trazado 836671" transform="translate(511.5 5354)" fill="#d3dfff">
          <path d="M 291 44.5 L 4 44.5 C 2.070076942443848 44.5 0.5 42.92992401123047 0.5 41 L 0.5 4 C 0.5 2.070076942443848 2.070076942443848 0.5 4 0.5 L 291 0.5 C 292.929931640625 0.5 294.5 2.070076942443848 294.5 4 L 294.5 41 C 294.5 42.92992401123047 292.929931640625 44.5 291 44.5 Z" stroke="none"/>
          <path d="M 4 1 C 2.345794677734375 1 1 2.345806121826172 1 4 L 1 41 C 1 42.65419387817383 2.345794677734375 44 4 44 L 291 44 C 292.6542053222656 44 294 42.65419387817383 294 41 L 294 4 C 294 2.345806121826172 292.6542053222656 1 291 1 L 4 1 M 4 0 L 291 0 C 293.2091064453125 0 295 1.790847778320312 295 4 L 295 41 C 295 43.20915222167969 293.2091064453125 45 291 45 L 4 45 C 1.79083251953125 45 0 43.20915222167969 0 41 L 0 4 C 0 1.790847778320312 1.79083251953125 0 4 0 Z" stroke="none" fill="#6e40fc"/>
        </g>
        <g id="Trazado_836672" data-name="Trazado 836672" transform="translate(511.5 5404)" fill="#d3dfff">
          <path d="M 144 44.5 L 4 44.5 C 2.070100069046021 44.5 0.5 42.92990112304688 0.5 41 L 0.5 4 C 0.5 2.070100069046021 2.070100069046021 0.5 4 0.5 L 144 0.5 C 145.9299011230469 0.5 147.5 2.070100069046021 147.5 4 L 147.5 41 C 147.5 42.92990112304688 145.9299011230469 44.5 144 44.5 Z" stroke="none"/>
          <path d="M 4 1 C 2.345794677734375 1 1 2.345798492431641 1 4 L 1 41 C 1 42.65420150756836 2.345794677734375 44 4 44 L 144 44 C 145.6542053222656 44 147 42.65420150756836 147 41 L 147 4 C 147 2.345798492431641 145.6542053222656 1 144 1 L 4 1 M 4 0 L 144 0 C 146.2091369628906 0 148 1.790859222412109 148 4 L 148 41 C 148 43.20914077758789 146.2091369628906 45 144 45 L 4 45 C 1.790863037109375 45 0 43.20914077758789 0 41 L 0 4 C 0 1.790859222412109 1.790863037109375 0 4 0 Z" stroke="none" fill="#6e40fc"/>
        </g>
        <g id="Trazado_836673" data-name="Trazado 836673" transform="translate(663.5 5404)" fill="#d3dfff">
          <path d="M 139 44.5 L 4 44.5 C 2.070091009140015 44.5 0.5 42.92990875244141 0.5 41 L 0.5 4 C 0.5 2.070091009140015 2.070091009140015 0.5 4 0.5 L 139 0.5 C 140.9299163818359 0.5 142.5 2.070091009140015 142.5 4 L 142.5 41 C 142.5 42.92990875244141 140.9299163818359 44.5 139 44.5 Z" stroke="none"/>
          <path d="M 4 1 C 2.345794677734375 1 1 2.345798492431641 1 4 L 1 41 C 1 42.65420150756836 2.345794677734375 44 4 44 L 139 44 C 140.6542053222656 44 142 42.65420150756836 142 41 L 142 4 C 142 2.345798492431641 140.6542053222656 1 139 1 L 4 1 M 4 0 L 139 0 C 141.2091369628906 0 143 1.790859222412109 143 4 L 143 41 C 143 43.20914077758789 141.2091369628906 45 139 45 L 4 45 C 1.790863037109375 45 0 43.20914077758789 0 41 L 0 4 C 0 1.790859222412109 1.790863037109375 0 4 0 Z" stroke="none" fill="#6e40fc"/>
        </g>
        <g id="Trazado_836674" data-name="Trazado 836674" transform="translate(813.5 5305)" fill="#d3dfff">
          <path d="M 271 44.5 L 4 44.5 C 2.070107221603394 44.5 0.5 42.92989349365234 0.5 41 L 0.5 4 C 0.5 2.070107221603394 2.070107221603394 0.5 4 0.5 L 271 0.5 C 272.9299011230469 0.5 274.5 2.070107221603394 274.5 4 L 274.5 41 C 274.5 42.92989349365234 272.9299011230469 44.5 271 44.5 Z" stroke="none"/>
          <path d="M 4 1 C 2.345794677734375 1 1 2.345787048339844 1 4 L 1 41 C 1 42.65421295166016 2.345794677734375 44 4 44 L 271 44 C 272.6542053222656 44 274 42.65421295166016 274 41 L 274 4 C 274 2.345787048339844 272.6542053222656 1 271 1 L 4 1 M 4 0 L 271 0 C 273.2091369628906 0 275 1.790855407714844 275 4 L 275 41 C 275 43.20914459228516 273.2091369628906 45 271 45 L 4 45 C 1.790863037109375 45 0 43.20914459228516 0 41 L 0 4 C 0 1.790855407714844 1.790863037109375 0 4 0 Z" stroke="none" fill="#6e40fc"/>
        </g>
        <g id="Trazado_836675" data-name="Trazado 836675" transform="translate(813.5 5354)" fill="#d3dfff">
          <path d="M 84 44.5 L 4 44.5 C 2.070088863372803 44.5 0.5 42.92991256713867 0.5 41 L 0.5 4 C 0.5 2.070088863372803 2.070088863372803 0.5 4 0.5 L 84 0.5 C 85.92990875244141 0.5 87.5 2.070088863372803 87.5 4 L 87.5 41 C 87.5 42.92991256713867 85.92990875244141 44.5 84 44.5 Z" stroke="none"/>
          <path d="M 4 1 C 2.345802307128906 1 1 2.345798492431641 1 4 L 1 41 C 1 42.65420150756836 2.345802307128906 44 4 44 L 84 44 C 85.65419769287109 44 87 42.65420150756836 87 41 L 87 4 C 87 2.345798492431641 85.65419769287109 1 84 1 L 4 1 M 4 0 L 84 0 C 86.20914459228516 0 88 1.790859222412109 88 4 L 88 41 C 88 43.20914077758789 86.20914459228516 45 84 45 L 4 45 C 1.790855407714844 45 0 43.20914077758789 0 41 L 0 4 C 0 1.790859222412109 1.790855407714844 0 4 0 Z" stroke="none" fill="#6e40fc"/>
        </g>
        <g id="Trazado_836676" data-name="Trazado 836676" transform="translate(904.5 5354)" fill="#d3dfff">
          <path d="M 180 44.5 L 4 44.5 C 2.070091009140015 44.5 0.5 42.92990875244141 0.5 41 L 0.5 4 C 0.5 2.070091009140015 2.070091009140015 0.5 4 0.5 L 180 0.5 C 181.9299163818359 0.5 183.5 2.070091009140015 183.5 4 L 183.5 41 C 183.5 42.92990875244141 181.9299163818359 44.5 180 44.5 Z" stroke="none"/>
          <path d="M 4 1 C 2.345779418945312 1 1 2.345787048339844 1 4 L 1 41 C 1 42.65421295166016 2.345779418945312 44 4 44 L 180 44 C 181.6542205810547 44 183 42.65421295166016 183 41 L 183 4 C 183 2.345787048339844 181.6542205810547 1 180 1 L 4 1 M 4 0 L 180 0 C 182.2091369628906 0 184 1.790855407714844 184 4 L 184 41 C 184 43.20914459228516 182.2091369628906 45 180 45 L 4 45 C 1.790863037109375 45 0 43.20914459228516 0 41 L 0 4 C 0 1.790855407714844 1.790863037109375 0 4 0 Z" stroke="none" fill="#6e40fc"/>
        </g>
        <g id="Trazado_836677" data-name="Trazado 836677" transform="translate(511.5 5453)" fill="#d3dfff">
          <path d="M 573 44.5 L 4 44.5 C 2.070071458816528 44.5 0.5 42.92992782592773 0.5 41 L 0.5 4 C 0.5 2.070071458816528 2.070071458816528 0.5 4 0.5 L 573 0.5 C 574.929931640625 0.5 576.5 2.070071458816528 576.5 4 L 576.5 41 C 576.5 42.92992782592773 574.929931640625 44.5 573 44.5 Z" stroke="none"/>
          <path d="M 4 1 C 2.34576416015625 1 1 2.345787048339844 1 4 L 1 41 C 1 42.65421295166016 2.34576416015625 44 4 44 L 573 44 C 574.6542358398438 44 576 42.65421295166016 576 41 L 576 4 C 576 2.345787048339844 574.6542358398438 1 573 1 L 4 1 M 4 0 L 573 0 C 575.2091674804688 0 577 1.790855407714844 577 4 L 577 41 C 577 43.20914459228516 575.2091674804688 45 573 45 L 4 45 C 1.79083251953125 45 0 43.20914459228516 0 41 L 0 4 C 0 1.790855407714844 1.79083251953125 0 4 0 Z" stroke="none" fill="#6e40fc"/>
        </g>
        <g id="Trazado_836678" data-name="Trazado 836678" transform="translate(511.5 5502)" fill="#d3dfff">
          <path d="M 573 44.5 L 4 44.5 C 2.070071458816528 44.5 0.5 42.92992782592773 0.5 41 L 0.5 4 C 0.5 2.070071458816528 2.070071458816528 0.5 4 0.5 L 573 0.5 C 574.929931640625 0.5 576.5 2.070071458816528 576.5 4 L 576.5 41 C 576.5 42.92992782592773 574.929931640625 44.5 573 44.5 Z" stroke="none"/>
          <path d="M 4 1 C 2.34576416015625 1 1 2.345787048339844 1 4 L 1 41 C 1 42.65421295166016 2.34576416015625 44 4 44 L 573 44 C 574.6542358398438 44 576 42.65421295166016 576 41 L 576 4 C 576 2.345787048339844 574.6542358398438 1 573 1 L 4 1 M 4 0 L 573 0 C 575.2091674804688 0 577 1.790855407714844 577 4 L 577 41 C 577 43.20914459228516 575.2091674804688 45 573 45 L 4 45 C 1.79083251953125 45 0 43.20914459228516 0 41 L 0 4 C 0 1.790855407714844 1.79083251953125 0 4 0 Z" stroke="none" fill="#6e40fc"/>
        </g>
        <g id="Trazado_836679" data-name="Trazado 836679" transform="translate(511.5 5552)" fill="#d3dfff">
          <path d="M 573 44.5 L 4 44.5 C 2.070071458816528 44.5 0.5 42.92992782592773 0.5 41 L 0.5 4 C 0.5 2.070071458816528 2.070071458816528 0.5 4 0.5 L 573 0.5 C 574.929931640625 0.5 576.5 2.070071458816528 576.5 4 L 576.5 41 C 576.5 42.92992782592773 574.929931640625 44.5 573 44.5 Z" stroke="none"/>
          <path d="M 4 1 C 2.34576416015625 1 1 2.345787048339844 1 4 L 1 41 C 1 42.65421295166016 2.34576416015625 44 4 44 L 573 44 C 574.6542358398438 44 576 42.65421295166016 576 41 L 576 4 C 576 2.345787048339844 574.6542358398438 1 573 1 L 4 1 M 4 0 L 573 0 C 575.2091674804688 0 577 1.790855407714844 577 4 L 577 41 C 577 43.20914459228516 575.2091674804688 45 573 45 L 4 45 C 1.79083251953125 45 0 43.20914459228516 0 41 L 0 4 C 0 1.790855407714844 1.79083251953125 0 4 0 Z" stroke="none" fill="#6e40fc"/>
        </g>
        <g id="Trazado_836680" data-name="Trazado 836680" transform="translate(511.5 5602)" fill="#d3dfff">
          <path d="M 573 44.5 L 4 44.5 C 2.070071458816528 44.5 0.5 42.92992782592773 0.5 41 L 0.5 4 C 0.5 2.070071458816528 2.070071458816528 0.5 4 0.5 L 573 0.5 C 574.929931640625 0.5 576.5 2.070071458816528 576.5 4 L 576.5 41 C 576.5 42.92992782592773 574.929931640625 44.5 573 44.5 Z" stroke="none"/>
          <path d="M 4 1 C 2.34576416015625 1 1 2.345787048339844 1 4 L 1 41 C 1 42.65421295166016 2.34576416015625 44 4 44 L 573 44 C 574.6542358398438 44 576 42.65421295166016 576 41 L 576 4 C 576 2.345787048339844 574.6542358398438 1 573 1 L 4 1 M 4 0 L 573 0 C 575.2091674804688 0 577 1.790855407714844 577 4 L 577 41 C 577 43.20914459228516 575.2091674804688 45 573 45 L 4 45 C 1.79083251953125 45 0 43.20914459228516 0 41 L 0 4 C 0 1.790855407714844 1.79083251953125 0 4 0 Z" stroke="none" fill="#6e40fc"/>
        </g>
        <g id="Trazado_836681" data-name="Trazado 836681" transform="translate(813.5 5404)" fill="#d3dfff">
          <path d="M 271 44.5 L 4 44.5 C 2.070107221603394 44.5 0.5 42.92989349365234 0.5 41 L 0.5 4 C 0.5 2.070107221603394 2.070107221603394 0.5 4 0.5 L 271 0.5 C 272.9299011230469 0.5 274.5 2.070107221603394 274.5 4 L 274.5 41 C 274.5 42.92989349365234 272.9299011230469 44.5 271 44.5 Z" stroke="none"/>
          <path d="M 4 1 C 2.345794677734375 1 1 2.345787048339844 1 4 L 1 41 C 1 42.65421295166016 2.345794677734375 44 4 44 L 271 44 C 272.6542053222656 44 274 42.65421295166016 274 41 L 274 4 C 274 2.345787048339844 272.6542053222656 1 271 1 L 4 1 M 4 0 L 271 0 C 273.2091369628906 0 275 1.790855407714844 275 4 L 275 41 C 275 43.20914459228516 273.2091369628906 45 271 45 L 4 45 C 1.790863037109375 45 0 43.20914459228516 0 41 L 0 4 C 0 1.790855407714844 1.790863037109375 0 4 0 Z" stroke="none" fill="#6e40fc"/>
        </g>
        <path id="Trazado_836682" data-name="Trazado 836682" d="M4.734-2.844l3.828-8.531h2.625L5.57,0H3.18L1.133-11.375H3.594Zm9.531,3A3.677,3.677,0,0,1,12.3-.387a3.292,3.292,0,0,1-1.277-1.469A4.093,4.093,0,0,1,10.7-3.914l.023-.312a5.465,5.465,0,0,1,.719-2.266,4.341,4.341,0,0,1,1.547-1.59,3.827,3.827,0,0,1,2.094-.527,2.924,2.924,0,0,1,2.473,1.2,4.117,4.117,0,0,1,.637,2.962l-.125.962h-5.18a1.814,1.814,0,0,0,.4,1.313,1.521,1.521,0,0,0,1.172.508A2.7,2.7,0,0,0,16.563-2.6l1.008,1.25A3.135,3.135,0,0,1,16.2-.23,4.5,4.5,0,0,1,14.266.156Zm.7-6.945a1.565,1.565,0,0,0-1.082.383,3.363,3.363,0,0,0-.848,1.383H16.07l.047-.2a2.071,2.071,0,0,0,.008-.594,1.134,1.134,0,0,0-.383-.707A1.2,1.2,0,0,0,14.969-6.789Zm9.539.453a4.548,4.548,0,0,0-.742-.078,2.136,2.136,0,0,0-1.867.883L20.922,0h-2.2l1.469-8.453,2.07-.008-.2,1.031a2.325,2.325,0,0,1,1.969-1.2,3.214,3.214,0,0,1,.766.109Zm4.852,3.953q.125-.625-.867-.906l-.711-.18q-2.523-.7-2.453-2.453a2.428,2.428,0,0,1,1.059-1.949,3.942,3.942,0,0,1,2.457-.738,3.536,3.536,0,0,1,2.313.758,2.5,2.5,0,0,1,.9,1.977l-2.187-.008a.963.963,0,0,0-1.078-1.1,1.551,1.551,0,0,0-.895.258,1.061,1.061,0,0,0-.465.7q-.117.625.945.883l.313.07a6.285,6.285,0,0,1,1.648.59,2.488,2.488,0,0,1,.879.824,2.04,2.04,0,0,1,.285,1.18,2.251,2.251,0,0,1-.52,1.406,3.18,3.18,0,0,1-1.359.93,4.736,4.736,0,0,1-1.816.3,3.568,3.568,0,0,1-2.344-.809A2.607,2.607,0,0,1,24.508-2.7l2.078.016a1.142,1.142,0,0,0,1.3,1.227,1.845,1.845,0,0,0,1-.25A.987.987,0,0,0,29.359-2.383ZM34.844,0H32.625l1.469-8.453h2.219Zm-.492-10.6a1.1,1.1,0,0,1,.344-.867,1.209,1.209,0,0,1,.867-.344,1.215,1.215,0,0,1,.867.3,1.1,1.1,0,0,1,.383.828,1.132,1.132,0,0,1-.324.844,1.215,1.215,0,0,1-.887.375,1.235,1.235,0,0,1-.863-.3A1.091,1.091,0,0,1,34.352-10.6Zm7.2,1.992a3.39,3.39,0,0,1,1.926.574A3.234,3.234,0,0,1,44.66-6.5a4.762,4.762,0,0,1,.27,2.176,5.143,5.143,0,0,1-1.4,3.262A3.96,3.96,0,0,1,40.508.156,3.38,3.38,0,0,1,38.6-.41a3.222,3.222,0,0,1-1.187-1.527,4.657,4.657,0,0,1-.273-2.156,5.3,5.3,0,0,1,1.422-3.328A3.878,3.878,0,0,1,41.547-8.609ZM39.32-3.294a1.95,1.95,0,0,0,.352,1.182,1.168,1.168,0,0,0,.945.449A1.712,1.712,0,0,0,42.211-2.6a4.647,4.647,0,0,0,.539-2.531,2.122,2.122,0,0,0-.363-1.2,1.149,1.149,0,0,0-.949-.464,1.715,1.715,0,0,0-1.574.924A4.6,4.6,0,0,0,39.32-3.294Zm9.727-5.167-.187,1A3.042,3.042,0,0,1,51.32-8.609a2.028,2.028,0,0,1,1.766.875A3.526,3.526,0,0,1,53.5-5.375L52.609,0h-2.2l.906-5.4a2.528,2.528,0,0,0,.016-.555.9.9,0,0,0-1-.82,1.9,1.9,0,0,0-1.555.8L47.719,0h-2.2l1.469-8.453Z" transform="translate(520.262 5333)" fill="#12263f"/>
        <path id="Trazado_836683" data-name="Trazado 836683" d="M9.164,0H6.875l.844-4.875H3.3L2.453,0H.164L2.141-11.375H4.43l-.8,4.609H8.047l.8-4.609h2.289Zm5.922.156a3.677,3.677,0,0,1-1.965-.543,3.292,3.292,0,0,1-1.277-1.469,4.093,4.093,0,0,1-.328-2.059l.023-.312a5.465,5.465,0,0,1,.719-2.266A4.341,4.341,0,0,1,13.8-8.082,3.827,3.827,0,0,1,15.9-8.609a2.924,2.924,0,0,1,2.473,1.2,4.117,4.117,0,0,1,.637,2.962l-.125.962H13.7a1.814,1.814,0,0,0,.4,1.313,1.521,1.521,0,0,0,1.172.508A2.7,2.7,0,0,0,17.383-2.6l1.008,1.25A3.135,3.135,0,0,1,17.016-.23,4.5,4.5,0,0,1,15.086.156Zm.7-6.945a1.565,1.565,0,0,0-1.082.383,3.363,3.363,0,0,0-.848,1.383h3.031l.047-.2a2.071,2.071,0,0,0,.008-.594,1.134,1.134,0,0,0-.383-.707A1.2,1.2,0,0,0,15.789-6.789ZM24.43,0a2.281,2.281,0,0,1-.086-.766,2.863,2.863,0,0,1-2.156.922,2.594,2.594,0,0,1-1.84-.723,2.186,2.186,0,0,1-.684-1.746,2.527,2.527,0,0,1,1.16-2.121,5.266,5.266,0,0,1,2.965-.738l1.031.016.109-.508a1.764,1.764,0,0,0,.023-.492.846.846,0,0,0-.277-.574.955.955,0,0,0-.629-.215,1.345,1.345,0,0,0-.875.254,1.231,1.231,0,0,0-.461.777L20.5-5.906a2.457,2.457,0,0,1,1.113-1.965,4.312,4.312,0,0,1,2.613-.738,3.117,3.117,0,0,1,2.25.855,2.5,2.5,0,0,1,.68,2.121l-.648,4.047-.039.5a2.412,2.412,0,0,0,.133.938L26.594,0Zm-1.7-1.555A2.017,2.017,0,0,0,24.4-2.383l.273-1.461-.766-.008a2.139,2.139,0,0,0-1.758.742,1.292,1.292,0,0,0-.242.633.75.75,0,0,0,.176.668A.891.891,0,0,0,22.734-1.555Zm9.4-7.062a2.4,2.4,0,0,1,1.906.945L34.867-12h2.211L35,0H33.031l.125-.906a2.736,2.736,0,0,1-2.2,1.07A2.433,2.433,0,0,1,29.57-.25a2.607,2.607,0,0,1-.918-1.168,4.7,4.7,0,0,1-.355-1.7,6.4,6.4,0,0,1,.023-.953l.047-.352A6.767,6.767,0,0,1,29.09-6.7,3.766,3.766,0,0,1,30.4-8.164,3.094,3.094,0,0,1,32.133-8.617Zm-1.6,4.547a6.327,6.327,0,0,0-.039,1Q30.57-1.7,31.6-1.672a1.885,1.885,0,0,0,1.617-.875l.6-3.359A1.248,1.248,0,0,0,32.6-6.781a1.606,1.606,0,0,0-1.34.621A4.176,4.176,0,0,0,30.531-4.07ZM40.773.156a3.677,3.677,0,0,1-1.965-.543,3.292,3.292,0,0,1-1.277-1.469A4.093,4.093,0,0,1,37.2-3.914l.023-.312a5.465,5.465,0,0,1,.719-2.266,4.341,4.341,0,0,1,1.547-1.59,3.827,3.827,0,0,1,2.094-.527,2.924,2.924,0,0,1,2.473,1.2A4.117,4.117,0,0,1,44.7-4.447l-.125.962h-5.18a1.814,1.814,0,0,0,.4,1.313,1.521,1.521,0,0,0,1.172.508A2.7,2.7,0,0,0,43.07-2.6l1.008,1.25A3.135,3.135,0,0,1,42.7-.23,4.5,4.5,0,0,1,40.773.156Zm.7-6.945a1.565,1.565,0,0,0-1.082.383,3.363,3.363,0,0,0-.848,1.383h3.031l.047-.2a2.071,2.071,0,0,0,.008-.594,1.134,1.134,0,0,0-.383-.707A1.2,1.2,0,0,0,41.477-6.789Zm9.539.453a4.548,4.548,0,0,0-.742-.078,2.136,2.136,0,0,0-1.867.883L47.43,0h-2.2L46.7-8.453l2.07-.008-.2,1.031a2.325,2.325,0,0,1,1.969-1.2,3.214,3.214,0,0,1,.766.109ZM2.781,14.117H7.609L7.281,16H.164L2.141,4.625H4.43Zm9.742,2.039a3.677,3.677,0,0,1-1.965-.543,3.292,3.292,0,0,1-1.277-1.469,4.093,4.093,0,0,1-.328-2.059l.023-.312A5.465,5.465,0,0,1,9.7,9.508a4.341,4.341,0,0,1,1.547-1.59,3.827,3.827,0,0,1,2.094-.527,2.924,2.924,0,0,1,2.473,1.2,4.117,4.117,0,0,1,.637,2.962l-.125.962h-5.18a1.814,1.814,0,0,0,.4,1.313,1.521,1.521,0,0,0,1.172.508A2.7,2.7,0,0,0,14.82,13.4l1.008,1.25a3.135,3.135,0,0,1-1.375,1.121A4.5,4.5,0,0,1,12.523,16.156Zm.7-6.945a1.565,1.565,0,0,0-1.082.383,3.363,3.363,0,0,0-.848,1.383h3.031l.047-.2a2.071,2.071,0,0,0,.008-.594A1.134,1.134,0,0,0,14,9.473,1.2,1.2,0,0,0,13.227,9.211Zm7.234-1.672-.187,1a3.042,3.042,0,0,1,2.461-1.148,2.028,2.028,0,0,1,1.766.875,3.526,3.526,0,0,1,.414,2.359L24.023,16h-2.2l.906-5.4a2.528,2.528,0,0,0,.016-.555.9.9,0,0,0-1-.82,1.9,1.9,0,0,0-1.555.8L19.133,16h-2.2L18.4,7.547Zm5.711,4.227a5.849,5.849,0,0,1,1.277-3.184,3.242,3.242,0,0,1,2.629-1.2,2.37,2.37,0,0,1,2.016.977l.289-.82,2.023.008-1.383,8.164a3.983,3.983,0,0,1-1.437,2.672,4.471,4.471,0,0,1-3,.953,4.168,4.168,0,0,1-1.672-.379,3.575,3.575,0,0,1-1.312-1L26.7,16.617a2.349,2.349,0,0,0,1.844.961,2.166,2.166,0,0,0,1.469-.449,2.4,2.4,0,0,0,.828-1.355l.125-.508a2.749,2.749,0,0,1-2.07.891,2.428,2.428,0,0,1-1.961-.918,3.947,3.947,0,0,1-.8-2.348A7.89,7.89,0,0,1,26.172,11.766Zm2.164.927a2.02,2.02,0,0,0,.309,1.178,1.08,1.08,0,0,0,.895.466,1.972,1.972,0,0,0,1.594-.767l.656-3.583a1.3,1.3,0,0,0-1.242-.767,1.728,1.728,0,0,0-1.43.681,3.561,3.561,0,0,0-.734,1.87A8.214,8.214,0,0,0,28.336,12.693Zm10.82-7.224-.367,2.078H40.2L39.906,9.2H38.5l-.719,4.234a1.077,1.077,0,0,0,.063.609q.109.211.531.227.125.008.672-.039l-.156,1.727a3.706,3.706,0,0,1-1.266.18,1.985,1.985,0,0,1-1.617-.68,2.456,2.456,0,0,1-.437-1.8L36.3,9.2H35.1l.289-1.656h1.2l.359-2.078Zm4.211,3.016a2.946,2.946,0,0,1,2.289-1.094,2.143,2.143,0,0,1,1.848.9,3.548,3.548,0,0,1,.441,2.379L47.055,16h-2.2l.9-5.358a2.6,2.6,0,0,0,.016-.563.885.885,0,0,0-.984-.868,1.9,1.9,0,0,0-1.562.766L42.156,16h-2.2L42.031,4h2.211Z" transform="translate(607.262 5325)" fill="#12263f"/>
        <path id="Trazado_836684" data-name="Trazado 836684" d="M10.125-9.477H6.75L5.109,0H2.82L4.461-9.477H1.125l.336-1.9h9Zm3.164,6.258L15.7-8.453h2.453L13.211,1.273a4.231,4.231,0,0,1-1.246,1.641,2.723,2.723,0,0,1-1.652.523A5.035,5.035,0,0,1,9.25,3.273l.164-1.719.3.016A1.651,1.651,0,0,0,11.3.781l.484-.9L10.4-8.453H12.68Zm12.4-.984a6.981,6.981,0,0,1-.7,2.359,3.826,3.826,0,0,1-1.32,1.531,3.058,3.058,0,0,1-1.75.477A2.44,2.44,0,0,1,19.984-.75l-.773,4h-2.2l2.023-11.7,2.031-.008-.148.852a2.7,2.7,0,0,1,2.156-1,2.4,2.4,0,0,1,1.93.9,3.922,3.922,0,0,1,.734,2.363A9.133,9.133,0,0,1,25.688-4.2ZM23.5-4.364l.047-.751A2.089,2.089,0,0,0,23.27-6.32a1,1,0,0,0-.855-.462,1.818,1.818,0,0,0-1.586.814L20.2-2.478a1.233,1.233,0,0,0,1.242.822,1.59,1.59,0,0,0,1.328-.618A4.234,4.234,0,0,0,23.5-4.364ZM30.4.156a3.677,3.677,0,0,1-1.965-.543,3.292,3.292,0,0,1-1.277-1.469,4.093,4.093,0,0,1-.328-2.059l.023-.312a5.465,5.465,0,0,1,.719-2.266,4.341,4.341,0,0,1,1.547-1.59,3.827,3.827,0,0,1,2.094-.527,2.924,2.924,0,0,1,2.473,1.2,4.117,4.117,0,0,1,.637,2.962l-.125.962h-5.18a1.814,1.814,0,0,0,.4,1.313,1.521,1.521,0,0,0,1.172.508A2.7,2.7,0,0,0,32.7-2.6L33.7-1.352A3.135,3.135,0,0,1,32.328-.23,4.5,4.5,0,0,1,30.4.156Zm.7-6.945a1.565,1.565,0,0,0-1.082.383,3.363,3.363,0,0,0-.848,1.383H32.2l.047-.2a2.071,2.071,0,0,0,.008-.594,1.134,1.134,0,0,0-.383-.707A1.2,1.2,0,0,0,31.1-6.789Zm12.531-1.82a3.39,3.39,0,0,1,1.926.574A3.234,3.234,0,0,1,46.746-6.5a4.762,4.762,0,0,1,.27,2.176,5.143,5.143,0,0,1-1.4,3.262A3.96,3.96,0,0,1,42.594.156,3.38,3.38,0,0,1,40.688-.41,3.222,3.222,0,0,1,39.5-1.937a4.657,4.657,0,0,1-.273-2.156,5.3,5.3,0,0,1,1.422-3.328A3.878,3.878,0,0,1,43.633-8.609ZM41.406-3.294a1.95,1.95,0,0,0,.352,1.182,1.168,1.168,0,0,0,.945.449A1.712,1.712,0,0,0,44.3-2.6a4.647,4.647,0,0,0,.539-2.531,2.122,2.122,0,0,0-.363-1.2,1.149,1.149,0,0,0-.949-.464,1.715,1.715,0,0,0-1.574.924A4.6,4.6,0,0,0,41.406-3.294ZM48.242,0l1.18-6.8H48.2l.289-1.648,1.219-.008L49.82-9.3a3.332,3.332,0,0,1,1.1-2.121,3.334,3.334,0,0,1,2.289-.754,7.33,7.33,0,0,1,1.2.163l-.2,1.751a2.732,2.732,0,0,0-.648-.094,1.615,1.615,0,0,0-1,.3,1.355,1.355,0,0,0-.52.918l-.117.69h1.633L53.266-6.8H51.641L50.461,0ZM62.133-2.383q.125-.625-.867-.906l-.711-.18q-2.523-.7-2.453-2.453A2.428,2.428,0,0,1,59.16-7.871a3.942,3.942,0,0,1,2.457-.738,3.536,3.536,0,0,1,2.313.758,2.5,2.5,0,0,1,.9,1.977l-2.187-.008a.963.963,0,0,0-1.078-1.1,1.552,1.552,0,0,0-.895.258,1.061,1.061,0,0,0-.465.7q-.117.625.945.883l.313.07a6.285,6.285,0,0,1,1.648.59,2.488,2.488,0,0,1,.879.824,2.04,2.04,0,0,1,.285,1.18,2.251,2.251,0,0,1-.52,1.406,3.18,3.18,0,0,1-1.359.93,4.736,4.736,0,0,1-1.816.3,3.568,3.568,0,0,1-2.344-.809A2.607,2.607,0,0,1,57.281-2.7l2.078.016a1.142,1.142,0,0,0,1.3,1.227,1.845,1.845,0,0,0,1-.25A.987.987,0,0,0,62.133-2.383ZM69.3.156A3.677,3.677,0,0,1,67.34-.387a3.292,3.292,0,0,1-1.277-1.469,4.093,4.093,0,0,1-.328-2.059l.023-.312a5.465,5.465,0,0,1,.719-2.266,4.341,4.341,0,0,1,1.547-1.59,3.827,3.827,0,0,1,2.094-.527,2.924,2.924,0,0,1,2.473,1.2,4.117,4.117,0,0,1,.637,2.962l-.125.962h-5.18a1.814,1.814,0,0,0,.4,1.313,1.521,1.521,0,0,0,1.172.508A2.7,2.7,0,0,0,71.6-2.6l1.008,1.25A3.135,3.135,0,0,1,71.234-.23,4.5,4.5,0,0,1,69.3.156Zm.7-6.945a1.565,1.565,0,0,0-1.082.383,3.363,3.363,0,0,0-.848,1.383h3.031l.047-.2a2.071,2.071,0,0,0,.008-.594,1.134,1.134,0,0,0-.383-.707A1.2,1.2,0,0,0,70.008-6.789Zm9.539.453a4.548,4.548,0,0,0-.742-.078,2.136,2.136,0,0,0-1.867.883L75.961,0h-2.2l1.469-8.453,2.07-.008-.2,1.031a2.325,2.325,0,0,1,1.969-1.2,3.214,3.214,0,0,1,.766.109ZM83.2-2.789,85.6-8.453h2.375L83.891,0H81.781L80.336-8.453H82.57ZM89.891,0H87.672l1.469-8.453h2.219ZM89.4-10.6a1.1,1.1,0,0,1,.344-.867,1.209,1.209,0,0,1,.867-.344,1.215,1.215,0,0,1,.867.3,1.1,1.1,0,0,1,.383.828,1.132,1.132,0,0,1-.324.844,1.215,1.215,0,0,1-.887.375,1.235,1.235,0,0,1-.863-.3A1.091,1.091,0,0,1,89.4-10.6Zm6.063,8.945a1.447,1.447,0,0,0,1.016-.332,1.632,1.632,0,0,0,.531-.926l2.07-.008a3.037,3.037,0,0,1-.559,1.6A3.394,3.394,0,0,1,97.176-.211a3.847,3.847,0,0,1-1.77.375A3.123,3.123,0,0,1,92.969-.9,3.965,3.965,0,0,1,92.1-3.664l.023-.43.008-.086a5.284,5.284,0,0,1,1.391-3.27,3.761,3.761,0,0,1,2.914-1.16,3.047,3.047,0,0,1,2.27.934A3.3,3.3,0,0,1,99.531-5.3H97.477a1.73,1.73,0,0,0-.3-1.07,1.128,1.128,0,0,0-.891-.422q-1.578-.047-1.914,2.3a7.782,7.782,0,0,0-.086,1.438Q94.367-1.68,95.461-1.656ZM103.945.156a3.677,3.677,0,0,1-1.965-.543A3.292,3.292,0,0,1,100.7-1.855a4.093,4.093,0,0,1-.328-2.059l.023-.312a5.465,5.465,0,0,1,.719-2.266,4.341,4.341,0,0,1,1.547-1.59,3.827,3.827,0,0,1,2.094-.527,2.924,2.924,0,0,1,2.473,1.2,4.117,4.117,0,0,1,.637,2.962l-.125.962h-5.18a1.814,1.814,0,0,0,.4,1.313,1.521,1.521,0,0,0,1.172.508,2.7,2.7,0,0,0,2.109-.937l1.008,1.25A3.135,3.135,0,0,1,105.875-.23,4.5,4.5,0,0,1,103.945.156Zm.7-6.945a1.565,1.565,0,0,0-1.082.383,3.363,3.363,0,0,0-.848,1.383h3.031l.047-.2a2.071,2.071,0,0,0,.008-.594,1.134,1.134,0,0,0-.383-.707A1.2,1.2,0,0,0,104.648-6.789Z" transform="translate(691.262 5333)" fill="#12263f"/>
        <path id="Trazado_836685" data-name="Trazado 836685" d="M.164,0,2.141-11.375l3.266.008a4.473,4.473,0,0,1,2.066.52A3.905,3.905,0,0,1,8.961-9.422a4.883,4.883,0,0,1,.688,2.094,6.911,6.911,0,0,1-.016,1.391l-.055.414A6.5,6.5,0,0,1,7.613-1.512,5.558,5.558,0,0,1,3.68,0ZM4.1-9.477,2.781-1.883l.953.008A3.127,3.127,0,0,0,6.27-3.031a5.976,5.976,0,0,0,1.1-3.492l.016-.25A3.151,3.151,0,0,0,6.891-8.75a1.879,1.879,0,0,0-1.539-.719ZM15.078,0a2.281,2.281,0,0,1-.086-.766,2.863,2.863,0,0,1-2.156.922A2.594,2.594,0,0,1,11-.566a2.186,2.186,0,0,1-.684-1.746,2.527,2.527,0,0,1,1.16-2.121,5.266,5.266,0,0,1,2.965-.738l1.031.016.109-.508a1.764,1.764,0,0,0,.023-.492.846.846,0,0,0-.277-.574.955.955,0,0,0-.629-.215,1.345,1.345,0,0,0-.875.254,1.231,1.231,0,0,0-.461.777l-2.211.008a2.457,2.457,0,0,1,1.113-1.965,4.312,4.312,0,0,1,2.613-.738,3.117,3.117,0,0,1,2.25.855,2.5,2.5,0,0,1,.68,2.121l-.648,4.047-.039.5a2.412,2.412,0,0,0,.133.938L17.242,0Zm-1.7-1.555a2.017,2.017,0,0,0,1.664-.828l.273-1.461-.766-.008a2.139,2.139,0,0,0-1.758.742,1.292,1.292,0,0,0-.242.633.75.75,0,0,0,.176.668A.891.891,0,0,0,13.383-1.555Zm9.672-8.977-.367,2.078h1.406L23.8-6.8H22.4L21.68-2.562a1.077,1.077,0,0,0,.063.609q.109.211.531.227.125.008.672-.039L22.789-.039a3.706,3.706,0,0,1-1.266.18,1.985,1.985,0,0,1-1.617-.68,2.456,2.456,0,0,1-.437-1.8L20.2-6.8H19l.289-1.656h1.2l.359-2.078ZM28.8,0a2.281,2.281,0,0,1-.086-.766,2.863,2.863,0,0,1-2.156.922,2.594,2.594,0,0,1-1.84-.723,2.186,2.186,0,0,1-.684-1.746,2.527,2.527,0,0,1,1.16-2.121,5.266,5.266,0,0,1,2.965-.738l1.031.016.109-.508a1.764,1.764,0,0,0,.023-.492.846.846,0,0,0-.277-.574.955.955,0,0,0-.629-.215,1.345,1.345,0,0,0-.875.254,1.231,1.231,0,0,0-.461.777l-2.211.008A2.457,2.457,0,0,1,25.98-7.871a4.312,4.312,0,0,1,2.613-.738,3.117,3.117,0,0,1,2.25.855,2.5,2.5,0,0,1,.68,2.121l-.648,4.047-.039.5a2.412,2.412,0,0,0,.133.938L30.961,0ZM27.1-1.555a2.017,2.017,0,0,0,1.664-.828l.273-1.461-.766-.008a2.139,2.139,0,0,0-1.758.742,1.292,1.292,0,0,0-.242.633.75.75,0,0,0,.176.668A.891.891,0,0,0,27.1-1.555Zm5.625-2.68A5.849,5.849,0,0,1,34-7.418a3.242,3.242,0,0,1,2.629-1.2,2.37,2.37,0,0,1,2.016.977l.289-.82,2.023.008L39.578-.289a3.983,3.983,0,0,1-1.437,2.672,4.471,4.471,0,0,1-3,.953,4.168,4.168,0,0,1-1.672-.379,3.575,3.575,0,0,1-1.312-1L33.25.617a2.349,2.349,0,0,0,1.844.961,2.166,2.166,0,0,0,1.469-.449,2.4,2.4,0,0,0,.828-1.355l.125-.508a2.749,2.749,0,0,1-2.07.891,2.428,2.428,0,0,1-1.961-.918,3.947,3.947,0,0,1-.8-2.348A7.89,7.89,0,0,1,32.727-4.234Zm2.164.927A2.02,2.02,0,0,0,35.2-2.13a1.08,1.08,0,0,0,.895.466,1.972,1.972,0,0,0,1.594-.767l.656-3.583A1.3,1.3,0,0,0,37.1-6.781a1.728,1.728,0,0,0-1.43.681,3.561,3.561,0,0,0-.734,1.87A8.214,8.214,0,0,0,34.891-3.307ZM47.031-6.336a4.548,4.548,0,0,0-.742-.078,2.136,2.136,0,0,0-1.867.883L43.445,0h-2.2l1.469-8.453,2.07-.008-.2,1.031a2.325,2.325,0,0,1,1.969-1.2,3.214,3.214,0,0,1,.766.109ZM51.641,0a2.281,2.281,0,0,1-.086-.766A2.863,2.863,0,0,1,49.4.156a2.594,2.594,0,0,1-1.84-.723,2.186,2.186,0,0,1-.684-1.746,2.527,2.527,0,0,1,1.16-2.121A5.266,5.266,0,0,1,51-5.172l1.031.016.109-.508a1.764,1.764,0,0,0,.023-.492.846.846,0,0,0-.277-.574.955.955,0,0,0-.629-.215,1.345,1.345,0,0,0-.875.254,1.231,1.231,0,0,0-.461.777l-2.211.008a2.457,2.457,0,0,1,1.113-1.965,4.312,4.312,0,0,1,2.613-.738,3.117,3.117,0,0,1,2.25.855,2.5,2.5,0,0,1,.68,2.121l-.648,4.047-.039.5a2.412,2.412,0,0,0,.133.938L53.8,0Zm-1.7-1.555a2.017,2.017,0,0,0,1.664-.828l.273-1.461-.766-.008a2.139,2.139,0,0,0-1.758.742,1.292,1.292,0,0,0-.242.633.75.75,0,0,0,.176.668A.891.891,0,0,0,49.945-1.555Zm8.719-6.906-.18.961a3.112,3.112,0,0,1,2.477-1.109,2.379,2.379,0,0,1,1.3.359,1.679,1.679,0,0,1,.7.93,3.255,3.255,0,0,1,2.625-1.289,2.126,2.126,0,0,1,1.754.8,3.271,3.271,0,0,1,.5,2.234l-.016.2L66.914,0H64.7l.9-5.4a3.907,3.907,0,0,0,.023-.54.837.837,0,0,0-.937-.845,1.86,1.86,0,0,0-1.555.97l-.023.18L62.125,0h-2.2l.9-5.383a3.9,3.9,0,0,0,.023-.539.836.836,0,0,0-.93-.852,1.867,1.867,0,0,0-1.508.789L57.352,0h-2.2l1.461-8.453ZM74.938,0H72.719L74.8-12h2.211ZM80.82.156a3.677,3.677,0,0,1-1.965-.543,3.292,3.292,0,0,1-1.277-1.469,4.093,4.093,0,0,1-.328-2.059l.023-.312a5.465,5.465,0,0,1,.719-2.266,4.341,4.341,0,0,1,1.547-1.59,3.827,3.827,0,0,1,2.094-.527,2.924,2.924,0,0,1,2.473,1.2,4.117,4.117,0,0,1,.637,2.962l-.125.962h-5.18a1.814,1.814,0,0,0,.4,1.313,1.521,1.521,0,0,0,1.172.508A2.7,2.7,0,0,0,83.117-2.6l1.008,1.25A3.135,3.135,0,0,1,82.75-.23,4.5,4.5,0,0,1,80.82.156Zm.7-6.945a1.565,1.565,0,0,0-1.082.383,3.363,3.363,0,0,0-.848,1.383h3.031l.047-.2a2.071,2.071,0,0,0,.008-.594,1.134,1.134,0,0,0-.383-.707A1.2,1.2,0,0,0,81.523-6.789Zm7.234-1.672-.187,1a3.042,3.042,0,0,1,2.461-1.148,2.028,2.028,0,0,1,1.766.875,3.526,3.526,0,0,1,.414,2.359L92.32,0h-2.2l.906-5.4a2.528,2.528,0,0,0,.016-.555.9.9,0,0,0-1-.82,1.9,1.9,0,0,0-1.555.8L87.43,0h-2.2L86.7-8.453Zm5.711,4.227a5.849,5.849,0,0,1,1.277-3.184,3.242,3.242,0,0,1,2.629-1.2,2.37,2.37,0,0,1,2.016.977l.289-.82,2.023.008L101.32-.289a3.983,3.983,0,0,1-1.437,2.672,4.471,4.471,0,0,1-3,.953,4.168,4.168,0,0,1-1.672-.379,3.575,3.575,0,0,1-1.312-1L94.992.617a2.349,2.349,0,0,0,1.844.961A2.166,2.166,0,0,0,98.3,1.129a2.4,2.4,0,0,0,.828-1.355l.125-.508a2.749,2.749,0,0,1-2.07.891,2.428,2.428,0,0,1-1.961-.918,3.947,3.947,0,0,1-.8-2.348A7.89,7.89,0,0,1,94.469-4.234Zm2.164.927a2.02,2.02,0,0,0,.309,1.178,1.08,1.08,0,0,0,.895.466,1.972,1.972,0,0,0,1.594-.767l.656-3.583a1.3,1.3,0,0,0-1.242-.767,1.728,1.728,0,0,0-1.43.681,3.561,3.561,0,0,0-.734,1.87A8.213,8.213,0,0,0,96.633-3.307Zm10.82-7.224-.367,2.078h1.406L108.2-6.8H106.8l-.719,4.234a1.077,1.077,0,0,0,.063.609q.109.211.531.227.125.008.672-.039l-.156,1.727a3.706,3.706,0,0,1-1.266.18,1.985,1.985,0,0,1-1.617-.68,2.456,2.456,0,0,1-.437-1.8l.727-4.461h-1.2l.289-1.656h1.2l.359-2.078Zm4.211,3.016a2.946,2.946,0,0,1,2.289-1.094,2.143,2.143,0,0,1,1.848.9,3.548,3.548,0,0,1,.441,2.379L115.352,0h-2.2l.9-5.358a2.6,2.6,0,0,0,.016-.563.885.885,0,0,0-.984-.868,1.9,1.9,0,0,0-1.562.766L110.453,0h-2.2l2.078-12h2.211Zm10.281,2.922a13.2,13.2,0,0,1,1.668-4.988,7.175,7.175,0,0,1,3.246-3.066l.375,1.258q-2.672,2.039-3.383,6.555a19.375,19.375,0,0,0-.258,2.75q-.039,3.211,1.469,4.461l-.492,1.18A5.13,5.13,0,0,1,122.211.313a10.87,10.87,0,0,1-.4-3.312,13.121,13.121,0,0,1,.1-1.406Zm12.719.391A6.061,6.061,0,0,1,133.445-1,3.033,3.033,0,0,1,130.9.164a2.357,2.357,0,0,1-2.031-1.078l-.32.914h-2.008l2.078-12h2.211l-.852,4.32a2.634,2.634,0,0,1,2.063-.93,2.385,2.385,0,0,1,1.926.879,3.89,3.89,0,0,1,.746,2.387A9.131,9.131,0,0,1,134.664-4.2Zm-2.187-.165a6.554,6.554,0,0,0,.047-1.034q-.086-1.364-1.125-1.387a1.833,1.833,0,0,0-1.617.885l-.609,3.37a1.258,1.258,0,0,0,1.266.878q1.625.047,1.992-2.367Zm6.461,1.149,2.414-5.234H143.8l-4.945,9.727a4.231,4.231,0,0,1-1.246,1.641,2.723,2.723,0,0,1-1.652.523,5.035,5.035,0,0,1-1.062-.164l.164-1.719.3.016a1.651,1.651,0,0,0,1.578-.789l.484-.9-1.383-8.336h2.281Zm8.75-7.312-.367,2.078h1.406L148.438-6.8h-1.406l-.719,4.234a1.077,1.077,0,0,0,.063.609q.109.211.531.227.125.008.672-.039l-.156,1.727a3.706,3.706,0,0,1-1.266.18,1.985,1.985,0,0,1-1.617-.68,2.456,2.456,0,0,1-.437-1.8l.727-4.461h-1.2l.289-1.656h1.2l.359-2.078ZM152.555.156a3.677,3.677,0,0,1-1.965-.543,3.292,3.292,0,0,1-1.277-1.469,4.093,4.093,0,0,1-.328-2.059l.023-.312a5.465,5.465,0,0,1,.719-2.266,4.341,4.341,0,0,1,1.547-1.59,3.827,3.827,0,0,1,2.094-.527,2.924,2.924,0,0,1,2.473,1.2,4.117,4.117,0,0,1,.637,2.962l-.125.962h-5.18a1.814,1.814,0,0,0,.4,1.313,1.521,1.521,0,0,0,1.172.508,2.7,2.7,0,0,0,2.109-.937l1.008,1.25A3.135,3.135,0,0,1,154.484-.23,4.5,4.5,0,0,1,152.555.156Zm.7-6.945a1.565,1.565,0,0,0-1.082.383,3.363,3.363,0,0,0-.848,1.383h3.031l.047-.2a2.071,2.071,0,0,0,.008-.594,1.134,1.134,0,0,0-.383-.707A1.2,1.2,0,0,0,153.258-6.789Zm8.648,4.406q.125-.625-.867-.906l-.711-.18q-2.523-.7-2.453-2.453a2.428,2.428,0,0,1,1.059-1.949,3.942,3.942,0,0,1,2.457-.738,3.536,3.536,0,0,1,2.313.758,2.5,2.5,0,0,1,.9,1.977l-2.187-.008a.963.963,0,0,0-1.078-1.1,1.552,1.552,0,0,0-.895.258,1.061,1.061,0,0,0-.465.7q-.117.625.945.883l.313.07a6.285,6.285,0,0,1,1.648.59,2.488,2.488,0,0,1,.879.824,2.04,2.04,0,0,1,.285,1.18,2.251,2.251,0,0,1-.52,1.406,3.18,3.18,0,0,1-1.359.93,4.736,4.736,0,0,1-1.816.3,3.568,3.568,0,0,1-2.344-.809,2.607,2.607,0,0,1-.953-2.051l2.078.016a1.142,1.142,0,0,0,1.3,1.227,1.845,1.845,0,0,0,1-.25A.987.987,0,0,0,161.906-2.383Zm2.7,5.961-.375-1.234q2.68-2.07,3.383-6.625a19.275,19.275,0,0,0,.242-2.7q.039-3.211-1.453-4.469l.492-1.18a4.565,4.565,0,0,1,1.582,1.457,6.725,6.725,0,0,1,.977,2.309,11.6,11.6,0,0,1,.3,2.781A13.865,13.865,0,0,1,169-1.855a11.039,11.039,0,0,1-1.84,3.441A6.68,6.68,0,0,1,164.6,3.578Z" transform="translate(857.5 5333)" fill="#12263f"/>
        <path id="Trazado_836686" data-name="Trazado 836686" d="M5.266,0h-2.2l1.5-8.656L1.8-7.82l.344-1.93,4.75-1.641L7.18-11.4ZM16.727-11.5l-.172,1.867-.43.008a4.28,4.28,0,0,0-3.867,2.953,3.049,3.049,0,0,1,2.289-.93,2.518,2.518,0,0,1,1.559.516,2.868,2.868,0,0,1,.934,1.367A4.677,4.677,0,0,1,17.25-3.8a4.54,4.54,0,0,1-.668,2.043,4.039,4.039,0,0,1-1.5,1.438A3.915,3.915,0,0,1,13.07.164a3.276,3.276,0,0,1-1.918-.629A3.391,3.391,0,0,1,9.984-2.1a5.156,5.156,0,0,1-.242-2.266l.086-.7A7.646,7.646,0,0,1,11.98-9.754,6.109,6.109,0,0,1,16.43-11.5ZM13.8-5.8a1.734,1.734,0,0,0-1.023.282,2.541,2.541,0,0,0-.75.759l-.1.7a5.964,5.964,0,0,0-.031.767,2.062,2.062,0,0,0,.336,1.182,1.069,1.069,0,0,0,.906.454,1.5,1.5,0,0,0,1.055-.376,2.33,2.33,0,0,0,.7-1.072,3.145,3.145,0,0,0,.148-1.37,1.68,1.68,0,0,0-.395-.967A1.117,1.117,0,0,0,13.8-5.8ZM26.9-3.961H22.617l.313-1.82h4.289ZM40.1-4.2A6.061,6.061,0,0,1,38.883-1,3.033,3.033,0,0,1,36.336.164,2.357,2.357,0,0,1,34.3-.914L33.984,0H31.977l2.078-12h2.211l-.852,4.32a2.634,2.634,0,0,1,2.063-.93A2.385,2.385,0,0,1,39.4-7.73a3.89,3.89,0,0,1,.746,2.387A9.132,9.132,0,0,1,40.1-4.2Zm-2.187-.165A6.554,6.554,0,0,0,37.961-5.4q-.086-1.364-1.125-1.387a1.833,1.833,0,0,0-1.617.885l-.609,3.37a1.258,1.258,0,0,0,1.266.878q1.625.047,1.992-2.367ZM43.117,0H40.9l1.469-8.453h2.219Zm-.492-10.6a1.1,1.1,0,0,1,.344-.867,1.209,1.209,0,0,1,.867-.344,1.215,1.215,0,0,1,.867.3,1.1,1.1,0,0,1,.383.828,1.132,1.132,0,0,1-.324.844,1.215,1.215,0,0,1-.887.375,1.235,1.235,0,0,1-.863-.3A1.091,1.091,0,0,1,42.625-10.6Zm6.828.07-.367,2.078h1.406L50.2-6.8H48.8l-.719,4.234a1.077,1.077,0,0,0,.063.609q.109.211.531.227.125.008.672-.039L49.188-.039a3.706,3.706,0,0,1-1.266.18A1.985,1.985,0,0,1,46.3-.539a2.456,2.456,0,0,1-.437-1.8L46.594-6.8H45.4l.289-1.656h1.2l.359-2.078ZM56.578,0H54.359l1.469-8.453h2.219Zm-.492-10.6a1.1,1.1,0,0,1,.344-.867,1.209,1.209,0,0,1,.867-.344,1.215,1.215,0,0,1,.867.3,1.1,1.1,0,0,1,.383.828,1.132,1.132,0,0,1-.324.844,1.215,1.215,0,0,1-.887.375,1.235,1.235,0,0,1-.863-.3A1.091,1.091,0,0,1,56.086-10.6Zm6.555,1.984a2.4,2.4,0,0,1,1.906.945L65.375-12h2.211L65.508,0H63.539l.125-.906a2.736,2.736,0,0,1-2.2,1.07A2.433,2.433,0,0,1,60.078-.25a2.607,2.607,0,0,1-.918-1.168,4.7,4.7,0,0,1-.355-1.7,6.4,6.4,0,0,1,.023-.953l.047-.352A6.767,6.767,0,0,1,59.6-6.7,3.766,3.766,0,0,1,60.91-8.164,3.094,3.094,0,0,1,62.641-8.617Zm-1.6,4.547a6.327,6.327,0,0,0-.039,1q.078,1.375,1.109,1.4a1.885,1.885,0,0,0,1.617-.875l.6-3.359a1.248,1.248,0,0,0-1.219-.875,1.606,1.606,0,0,0-1.34.621A4.176,4.176,0,0,0,61.039-4.07ZM71.281.156a3.677,3.677,0,0,1-1.965-.543,3.292,3.292,0,0,1-1.277-1.469,4.093,4.093,0,0,1-.328-2.059l.023-.312a5.465,5.465,0,0,1,.719-2.266A4.341,4.341,0,0,1,70-8.082a3.827,3.827,0,0,1,2.094-.527,2.924,2.924,0,0,1,2.473,1.2A4.117,4.117,0,0,1,75.2-4.447l-.125.962H69.9a1.814,1.814,0,0,0,.4,1.313,1.521,1.521,0,0,0,1.172.508A2.7,2.7,0,0,0,73.578-2.6l1.008,1.25A3.135,3.135,0,0,1,73.211-.23,4.5,4.5,0,0,1,71.281.156Zm.7-6.945a1.565,1.565,0,0,0-1.082.383,3.363,3.363,0,0,0-.848,1.383h3.031l.047-.2a2.071,2.071,0,0,0,.008-.594,1.134,1.134,0,0,0-.383-.707A1.2,1.2,0,0,0,71.984-6.789Zm7.234-1.672-.187,1a3.042,3.042,0,0,1,2.461-1.148,2.028,2.028,0,0,1,1.766.875,3.526,3.526,0,0,1,.414,2.359L82.781,0h-2.2l.906-5.4a2.528,2.528,0,0,0,.016-.555.9.9,0,0,0-1-.82,1.9,1.9,0,0,0-1.555.8L77.891,0h-2.2l1.469-8.453Zm9.758-2.07-.367,2.078h1.406L89.727-6.8H88.32L87.6-2.562a1.077,1.077,0,0,0,.063.609q.109.211.531.227.125.008.672-.039L88.711-.039a3.706,3.706,0,0,1-1.266.18,1.985,1.985,0,0,1-1.617-.68,2.456,2.456,0,0,1-.437-1.8L86.117-6.8h-1.2l.289-1.656h1.2l.359-2.078ZM92.156,0H89.938l1.469-8.453h2.219Zm-.492-10.6a1.1,1.1,0,0,1,.344-.867,1.209,1.209,0,0,1,.867-.344,1.215,1.215,0,0,1,.867.3,1.1,1.1,0,0,1,.383.828,1.132,1.132,0,0,1-.324.844,1.215,1.215,0,0,1-.887.375,1.235,1.235,0,0,1-.863-.3A1.091,1.091,0,0,1,91.664-10.6ZM94.555,0l1.18-6.8H94.508l.3-1.656h1.141l.07-.406a3.973,3.973,0,0,1,1.352-2.465,4.1,4.1,0,0,1,2.727-.855,6.635,6.635,0,0,1,1.27.152q.621.137,1.238.309l-.477,1.883a6.438,6.438,0,0,0-1.992-.391,2.08,2.08,0,0,0-1.273.371,1.7,1.7,0,0,0-.648,1.043l-.07.359h1.711l-.3,1.656H97.945L96.766,0Zm7.117,0H99.453l1.469-8.453h2.211Zm5.891.156A3.677,3.677,0,0,1,105.6-.387a3.292,3.292,0,0,1-1.277-1.469,4.093,4.093,0,0,1-.328-2.059l.023-.312a5.465,5.465,0,0,1,.719-2.266,4.341,4.341,0,0,1,1.547-1.59,3.827,3.827,0,0,1,2.094-.527,2.924,2.924,0,0,1,2.473,1.2,4.117,4.117,0,0,1,.637,2.962l-.125.962h-5.18a1.814,1.814,0,0,0,.4,1.313,1.521,1.521,0,0,0,1.172.508,2.7,2.7,0,0,0,2.109-.937l1.008,1.25A3.135,3.135,0,0,1,109.492-.23,4.5,4.5,0,0,1,107.563.156Zm.7-6.945a1.565,1.565,0,0,0-1.082.383,3.363,3.363,0,0,0-.848,1.383h3.031l.047-.2a2.071,2.071,0,0,0,.008-.594,1.134,1.134,0,0,0-.383-.707A1.2,1.2,0,0,0,108.266-6.789Zm9.539.453a4.548,4.548,0,0,0-.742-.078,2.136,2.136,0,0,0-1.867.883L114.219,0h-2.2l1.469-8.453,2.07-.008-.2,1.031a2.325,2.325,0,0,1,1.969-1.2,3.214,3.214,0,0,1,.766.109Z" transform="translate(611 5382)" fill="#12263f"/>
        <path id="Trazado_836687" data-name="Trazado 836687" d="M7.625-4.648H3.266L2.453,0H.164L2.141-11.375h7.2l-.336,1.9H4.1L3.586-6.539H7.961ZM10.93,0H8.711L10.8-12h2.211Zm6.758,0A2.281,2.281,0,0,1,17.6-.766a2.863,2.863,0,0,1-2.156.922,2.594,2.594,0,0,1-1.84-.723,2.186,2.186,0,0,1-.684-1.746,2.527,2.527,0,0,1,1.16-2.121,5.266,5.266,0,0,1,2.965-.738l1.031.016.109-.508a1.764,1.764,0,0,0,.023-.492.846.846,0,0,0-.277-.574.955.955,0,0,0-.629-.215,1.345,1.345,0,0,0-.875.254,1.231,1.231,0,0,0-.461.777l-2.211.008a2.457,2.457,0,0,1,1.113-1.965,4.312,4.312,0,0,1,2.613-.738,3.117,3.117,0,0,1,2.25.855,2.5,2.5,0,0,1,.68,2.121l-.648,4.047-.039.5a2.412,2.412,0,0,0,.133.938L19.852,0Zm-1.7-1.555a2.017,2.017,0,0,0,1.664-.828l.273-1.461-.766-.008a2.139,2.139,0,0,0-1.758.742,1.292,1.292,0,0,0-.242.633.75.75,0,0,0,.176.668A.891.891,0,0,0,15.992-1.555Zm5.625-2.68a5.849,5.849,0,0,1,1.277-3.184,3.242,3.242,0,0,1,2.629-1.2,2.37,2.37,0,0,1,2.016.977l.289-.82,2.023.008L28.469-.289a3.983,3.983,0,0,1-1.437,2.672,4.471,4.471,0,0,1-3,.953,4.168,4.168,0,0,1-1.672-.379,3.575,3.575,0,0,1-1.312-1L22.141.617a2.349,2.349,0,0,0,1.844.961,2.166,2.166,0,0,0,1.469-.449,2.4,2.4,0,0,0,.828-1.355l.125-.508a2.749,2.749,0,0,1-2.07.891,2.428,2.428,0,0,1-1.961-.918,3.947,3.947,0,0,1-.8-2.348A7.89,7.89,0,0,1,21.617-4.234Zm2.164.927A2.02,2.02,0,0,0,24.09-2.13a1.08,1.08,0,0,0,.895.466,1.972,1.972,0,0,0,1.594-.767l.656-3.583a1.3,1.3,0,0,0-1.242-.767,1.728,1.728,0,0,0-1.43.681,3.561,3.561,0,0,0-.734,1.87A8.214,8.214,0,0,0,23.781-3.307Zm11.25.924q.125-.625-.867-.906l-.711-.18Q30.93-4.164,31-5.922a2.428,2.428,0,0,1,1.059-1.949,3.942,3.942,0,0,1,2.457-.738,3.536,3.536,0,0,1,2.313.758,2.5,2.5,0,0,1,.9,1.977l-2.187-.008a.963.963,0,0,0-1.078-1.1,1.552,1.552,0,0,0-.895.258,1.061,1.061,0,0,0-.465.7q-.117.625.945.883l.313.07a6.285,6.285,0,0,1,1.648.59,2.488,2.488,0,0,1,.879.824,2.04,2.04,0,0,1,.285,1.18,2.251,2.251,0,0,1-.52,1.406,3.18,3.18,0,0,1-1.359.93,4.736,4.736,0,0,1-1.816.3,3.568,3.568,0,0,1-2.344-.809A2.607,2.607,0,0,1,30.18-2.7l2.078.016a1.142,1.142,0,0,0,1.3,1.227,1.845,1.845,0,0,0,1-.25A.987.987,0,0,0,35.031-2.383Z" transform="translate(838 5382)" fill="#12263f"/>
        <path id="Trazado_836688" data-name="Trazado 836688" d="M5.266,0h-2.2l1.5-8.656L1.8-7.82l.344-1.93,4.75-1.641L7.18-11.4Zm7.016-6.687,1.055.008a2.055,2.055,0,0,0,1.348-.445,1.737,1.737,0,0,0,.629-1.2,1.261,1.261,0,0,0-.242-1.012,1.23,1.23,0,0,0-.961-.395,1.642,1.642,0,0,0-1.1.348,1.494,1.494,0,0,0-.559.941l-2.2.016a2.952,2.952,0,0,1,1.184-2.254,4.165,4.165,0,0,1,2.707-.863,3.716,3.716,0,0,1,2.547.9,2.739,2.739,0,0,1,.852,2.3A3.078,3.078,0,0,1,15.469-5.8,2.381,2.381,0,0,1,16.59-4.754a2.826,2.826,0,0,1,.309,1.5,3.267,3.267,0,0,1-.633,1.813,3.7,3.7,0,0,1-1.547,1.2,4.962,4.962,0,0,1-2.094.395,3.557,3.557,0,0,1-2.484-.91A3.03,3.03,0,0,1,9.2-3.117h2.188a1.412,1.412,0,0,0,.355,1.035,1.385,1.385,0,0,0,1.035.418A1.933,1.933,0,0,0,14.086-2.1a1.761,1.761,0,0,0,.641-1.179,1.428,1.428,0,0,0-.277-1.2A1.553,1.553,0,0,0,13.3-4.914L12-4.922ZM22.953-3.961H18.672l.313-1.82h4.289ZM32.211-4.2A6.061,6.061,0,0,1,30.992-1,3.033,3.033,0,0,1,28.445.164,2.357,2.357,0,0,1,26.414-.914L26.094,0H24.086l2.078-12h2.211l-.852,4.32a2.634,2.634,0,0,1,2.063-.93,2.385,2.385,0,0,1,1.926.879,3.89,3.89,0,0,1,.746,2.387A9.132,9.132,0,0,1,32.211-4.2Zm-2.187-.165A6.554,6.554,0,0,0,30.07-5.4q-.086-1.364-1.125-1.387a1.833,1.833,0,0,0-1.617.885l-.609,3.37a1.258,1.258,0,0,0,1.266.878q1.625.047,1.992-2.367ZM35.227,0H33.008l1.469-8.453H36.7Zm-.492-10.6a1.1,1.1,0,0,1,.344-.867,1.209,1.209,0,0,1,.867-.344,1.215,1.215,0,0,1,.867.3,1.1,1.1,0,0,1,.383.828,1.132,1.132,0,0,1-.324.844,1.215,1.215,0,0,1-.887.375,1.235,1.235,0,0,1-.863-.3A1.091,1.091,0,0,1,34.734-10.6Zm6.828.07L41.2-8.453H42.6L42.313-6.8H40.906l-.719,4.234a1.077,1.077,0,0,0,.063.609q.109.211.531.227.125.008.672-.039L41.3-.039a3.706,3.706,0,0,1-1.266.18,1.985,1.985,0,0,1-1.617-.68,2.456,2.456,0,0,1-.437-1.8L38.7-6.8h-1.2L37.8-8.453h1.2l.359-2.078ZM46.953,0l1.18-6.8H46.914L47.2-8.453l1.219-.008.109-.844a3.332,3.332,0,0,1,1.1-2.121,3.334,3.334,0,0,1,2.289-.754,7.33,7.33,0,0,1,1.2.163l-.2,1.751a2.732,2.732,0,0,0-.648-.094,1.615,1.615,0,0,0-1,.3,1.355,1.355,0,0,0-.52.918l-.117.69h1.633L51.977-6.8H50.352L49.172,0ZM57.789-6.336a4.548,4.548,0,0,0-.742-.078,2.136,2.136,0,0,0-1.867.883L54.2,0H52l1.469-8.453,2.07-.008-.2,1.031a2.325,2.325,0,0,1,1.969-1.2,3.214,3.214,0,0,1,.766.109ZM62.4,0a2.281,2.281,0,0,1-.086-.766,2.863,2.863,0,0,1-2.156.922,2.594,2.594,0,0,1-1.84-.723,2.186,2.186,0,0,1-.684-1.746,2.527,2.527,0,0,1,1.16-2.121,5.266,5.266,0,0,1,2.965-.738l1.031.016.109-.508a1.764,1.764,0,0,0,.023-.492.846.846,0,0,0-.277-.574.955.955,0,0,0-.629-.215,1.345,1.345,0,0,0-.875.254,1.231,1.231,0,0,0-.461.777l-2.211.008a2.457,2.457,0,0,1,1.113-1.965A4.312,4.312,0,0,1,62.2-8.609a3.117,3.117,0,0,1,2.25.855,2.5,2.5,0,0,1,.68,2.121l-.648,4.047-.039.5a2.412,2.412,0,0,0,.133.938L64.563,0ZM60.7-1.555a2.017,2.017,0,0,0,1.664-.828l.273-1.461-.766-.008a2.139,2.139,0,0,0-1.758.742,1.292,1.292,0,0,0-.242.633.75.75,0,0,0,.176.668A.891.891,0,0,0,60.7-1.555Zm5.625-2.68a5.849,5.849,0,0,1,1.277-3.184,3.242,3.242,0,0,1,2.629-1.2,2.37,2.37,0,0,1,2.016.977l.289-.82,2.023.008L73.18-.289a3.983,3.983,0,0,1-1.437,2.672,4.471,4.471,0,0,1-3,.953,4.168,4.168,0,0,1-1.672-.379,3.575,3.575,0,0,1-1.312-1L66.852.617a2.349,2.349,0,0,0,1.844.961,2.166,2.166,0,0,0,1.469-.449,2.4,2.4,0,0,0,.828-1.355l.125-.508a2.749,2.749,0,0,1-2.07.891,2.428,2.428,0,0,1-1.961-.918,3.947,3.947,0,0,1-.8-2.348A7.89,7.89,0,0,1,66.328-4.234Zm2.164.927A2.02,2.02,0,0,0,68.8-2.13a1.08,1.08,0,0,0,.895.466,1.972,1.972,0,0,0,1.594-.767l.656-3.583A1.3,1.3,0,0,0,70.7-6.781a1.728,1.728,0,0,0-1.43.681,3.561,3.561,0,0,0-.734,1.87A8.213,8.213,0,0,0,68.492-3.307Zm9.867-5.154-.18.961a3.112,3.112,0,0,1,2.477-1.109,2.379,2.379,0,0,1,1.3.359,1.679,1.679,0,0,1,.7.93,3.255,3.255,0,0,1,2.625-1.289,2.126,2.126,0,0,1,1.754.8,3.271,3.271,0,0,1,.5,2.234l-.016.2L86.609,0H84.4l.9-5.4a3.907,3.907,0,0,0,.023-.54.837.837,0,0,0-.937-.845,1.86,1.86,0,0,0-1.555.97l-.023.18L81.82,0h-2.2l.9-5.383a3.9,3.9,0,0,0,.023-.539.836.836,0,0,0-.93-.852,1.867,1.867,0,0,0-1.508.789L77.047,0h-2.2L76.3-8.453ZM92.375.156A3.677,3.677,0,0,1,90.41-.387a3.292,3.292,0,0,1-1.277-1.469A4.093,4.093,0,0,1,88.8-3.914l.023-.312a5.465,5.465,0,0,1,.719-2.266,4.341,4.341,0,0,1,1.547-1.59,3.827,3.827,0,0,1,2.094-.527,2.924,2.924,0,0,1,2.473,1.2A4.117,4.117,0,0,1,96.3-4.447l-.125.962h-5.18a1.814,1.814,0,0,0,.4,1.313,1.521,1.521,0,0,0,1.172.508A2.7,2.7,0,0,0,94.672-2.6l1.008,1.25A3.135,3.135,0,0,1,94.3-.23,4.5,4.5,0,0,1,92.375.156Zm.7-6.945A1.565,1.565,0,0,0,92-6.406a3.363,3.363,0,0,0-.848,1.383H94.18l.047-.2a2.071,2.071,0,0,0,.008-.594,1.134,1.134,0,0,0-.383-.707A1.2,1.2,0,0,0,93.078-6.789Zm7.234-1.672-.187,1a3.042,3.042,0,0,1,2.461-1.148,2.028,2.028,0,0,1,1.766.875,3.526,3.526,0,0,1,.414,2.359L103.875,0h-2.2l.906-5.4a2.528,2.528,0,0,0,.016-.555.9.9,0,0,0-1-.82,1.9,1.9,0,0,0-1.555.8L98.984,0h-2.2L98.25-8.453Zm9.758-2.07L109.7-8.453h1.406L110.82-6.8h-1.406L108.7-2.562a1.077,1.077,0,0,0,.063.609q.109.211.531.227.125.008.672-.039L109.8-.039a3.706,3.706,0,0,1-1.266.18,1.985,1.985,0,0,1-1.617-.68,2.456,2.456,0,0,1-.437-1.8l.727-4.461h-1.2l.289-1.656h1.2l.359-2.078ZM115.813,0a2.281,2.281,0,0,1-.086-.766,2.863,2.863,0,0,1-2.156.922,2.594,2.594,0,0,1-1.84-.723,2.186,2.186,0,0,1-.684-1.746,2.527,2.527,0,0,1,1.16-2.121,5.266,5.266,0,0,1,2.965-.738l1.031.016.109-.508a1.764,1.764,0,0,0,.023-.492.846.846,0,0,0-.277-.574.955.955,0,0,0-.629-.215,1.345,1.345,0,0,0-.875.254,1.231,1.231,0,0,0-.461.777l-2.211.008A2.457,2.457,0,0,1,113-7.871a4.312,4.312,0,0,1,2.613-.738,3.117,3.117,0,0,1,2.25.855,2.5,2.5,0,0,1,.68,2.121l-.648,4.047-.039.5a2.412,2.412,0,0,0,.133.938L117.977,0Zm-1.7-1.555a2.017,2.017,0,0,0,1.664-.828l.273-1.461-.766-.008a2.139,2.139,0,0,0-1.758.742,1.292,1.292,0,0,0-.242.633.75.75,0,0,0,.176.668A.891.891,0,0,0,114.117-1.555Zm9.672-8.977-.367,2.078h1.406L124.539-6.8h-1.406l-.719,4.234a1.077,1.077,0,0,0,.063.609q.109.211.531.227.125.008.672-.039l-.156,1.727a3.706,3.706,0,0,1-1.266.18,1.985,1.985,0,0,1-1.617-.68,2.456,2.456,0,0,1-.437-1.8L120.93-6.8h-1.2l.289-1.656h1.2l.359-2.078ZM126.969,0H124.75l1.469-8.453h2.219Zm-.492-10.6a1.1,1.1,0,0,1,.344-.867,1.209,1.209,0,0,1,.867-.344,1.215,1.215,0,0,1,.867.3,1.1,1.1,0,0,1,.383.828,1.132,1.132,0,0,1-.324.844,1.215,1.215,0,0,1-.887.375,1.235,1.235,0,0,1-.863-.3A1.091,1.091,0,0,1,126.477-10.6Zm7.2,1.992a3.39,3.39,0,0,1,1.926.574A3.234,3.234,0,0,1,136.785-6.5a4.761,4.761,0,0,1,.27,2.176,5.143,5.143,0,0,1-1.4,3.262,3.96,3.96,0,0,1-3.02,1.215,3.38,3.38,0,0,1-1.906-.566,3.222,3.222,0,0,1-1.187-1.527,4.657,4.657,0,0,1-.273-2.156,5.3,5.3,0,0,1,1.422-3.328A3.878,3.878,0,0,1,133.672-8.609Zm-2.227,5.315a1.951,1.951,0,0,0,.352,1.182,1.168,1.168,0,0,0,.945.449,1.712,1.712,0,0,0,1.594-.932,4.646,4.646,0,0,0,.539-2.531,2.122,2.122,0,0,0-.363-1.2,1.149,1.149,0,0,0-.949-.464,1.715,1.715,0,0,0-1.574.924A4.6,4.6,0,0,0,131.445-3.294Zm9.727-5.167-.187,1a3.042,3.042,0,0,1,2.461-1.148,2.028,2.028,0,0,1,1.766.875,3.526,3.526,0,0,1,.414,2.359L144.734,0h-2.2l.906-5.4a2.527,2.527,0,0,0,.016-.555.9.9,0,0,0-1-.82,1.9,1.9,0,0,0-1.555.8L139.844,0h-2.2l1.469-8.453ZM4.734,18.156a4.008,4.008,0,0,1-2-.535,3.612,3.612,0,0,1-1.367-1.477A5.468,5.468,0,0,1,.789,13.93,8.9,8.9,0,0,1,1.063,11.2,7.3,7.3,0,0,1,2.219,8.641,5.256,5.256,0,0,1,4.09,6.992a4.844,4.844,0,0,1,2.324-.523,3.966,3.966,0,0,1,2.008.543A3.587,3.587,0,0,1,9.773,8.5a5.532,5.532,0,0,1,.563,2.207,9.188,9.188,0,0,1-.3,2.828,7.177,7.177,0,0,1-1.164,2.516,5.216,5.216,0,0,1-1.848,1.594A4.83,4.83,0,0,1,4.734,18.156ZM7.977,12l.063-.742a3.626,3.626,0,0,0-.371-2.109A1.567,1.567,0,0,0,6.3,8.4a2.473,2.473,0,0,0-2.27,1.266,7.455,7.455,0,0,0-.949,3.672,3.762,3.762,0,0,0,.367,2.129,1.563,1.563,0,0,0,1.383.777,2.345,2.345,0,0,0,2.031-.957,5.79,5.79,0,0,0,1.055-2.863Zm3.438,6,1.18-6.8H11.375l.289-1.648,1.219-.008.109-.844A3.181,3.181,0,0,1,16.383,5.82a7.33,7.33,0,0,1,1.2.163l-.2,1.751a2.732,2.732,0,0,0-.648-.094,1.615,1.615,0,0,0-1,.3,1.355,1.355,0,0,0-.52.918l-.117.69h1.633L16.438,11.2H14.813L13.633,18Zm5.641,0,1.18-6.8H17.016L17.3,9.547l1.219-.008.109-.844A3.181,3.181,0,0,1,22.023,5.82a7.33,7.33,0,0,1,1.2.163l-.2,1.751a2.732,2.732,0,0,0-.648-.094,1.615,1.615,0,0,0-1,.3,1.355,1.355,0,0,0-.52.918l-.117.69h1.633L22.078,11.2H20.453L19.273,18ZM27,15.617q.125-.625-.867-.906l-.711-.18q-2.523-.7-2.453-2.453a2.428,2.428,0,0,1,1.059-1.949,3.942,3.942,0,0,1,2.457-.738,3.536,3.536,0,0,1,2.313.758,2.5,2.5,0,0,1,.9,1.977l-2.187-.008a.963.963,0,0,0-1.078-1.1,1.552,1.552,0,0,0-.895.258,1.061,1.061,0,0,0-.465.7q-.117.625.945.883l.313.07a6.285,6.285,0,0,1,1.648.59,2.488,2.488,0,0,1,.879.824,2.04,2.04,0,0,1,.285,1.18,2.251,2.251,0,0,1-.52,1.406,3.18,3.18,0,0,1-1.359.93,4.736,4.736,0,0,1-1.816.3,3.568,3.568,0,0,1-2.344-.809,2.607,2.607,0,0,1-.953-2.051l2.078.016a1.142,1.142,0,0,0,1.3,1.227,1.845,1.845,0,0,0,1-.25A.987.987,0,0,0,27,15.617Zm7.172,2.539a3.677,3.677,0,0,1-1.965-.543,3.292,3.292,0,0,1-1.277-1.469,4.093,4.093,0,0,1-.328-2.059l.023-.312a5.465,5.465,0,0,1,.719-2.266,4.341,4.341,0,0,1,1.547-1.59,3.827,3.827,0,0,1,2.094-.527,2.924,2.924,0,0,1,2.473,1.2,4.117,4.117,0,0,1,.637,2.962l-.125.962h-5.18a1.814,1.814,0,0,0,.4,1.313,1.521,1.521,0,0,0,1.172.508,2.7,2.7,0,0,0,2.109-.937l1.008,1.25A3.135,3.135,0,0,1,36.1,17.77,4.5,4.5,0,0,1,34.172,18.156Zm.7-6.945a1.565,1.565,0,0,0-1.082.383,3.363,3.363,0,0,0-.848,1.383h3.031l.047-.2a2.071,2.071,0,0,0,.008-.594,1.134,1.134,0,0,0-.383-.707A1.2,1.2,0,0,0,34.875,11.211Zm8.219-3.742-.367,2.078h1.406L43.844,11.2H42.438l-.719,4.234a1.077,1.077,0,0,0,.063.609q.109.211.531.227.125.008.672-.039l-.156,1.727a3.706,3.706,0,0,1-1.266.18,1.985,1.985,0,0,1-1.617-.68,2.456,2.456,0,0,1-.437-1.8l.727-4.461h-1.2l.289-1.656h1.2l.359-2.078Z" transform="translate(917 5373)" fill="#12263f"/>
        <path id="Trazado_836689" data-name="Trazado 836689" d="M10.125-9.477H6.75L5.109,0H2.82L4.461-9.477H1.125l.336-1.9h9ZM12.031,0H9.813l1.469-8.453H13.5Zm-.492-10.6a1.1,1.1,0,0,1,.344-.867,1.209,1.209,0,0,1,.867-.344,1.215,1.215,0,0,1,.867.3A1.1,1.1,0,0,1,14-10.68a1.132,1.132,0,0,1-.324.844,1.215,1.215,0,0,1-.887.375,1.235,1.235,0,0,1-.863-.3A1.091,1.091,0,0,1,11.539-10.6Zm5.875,2.141-.18.961a3.112,3.112,0,0,1,2.477-1.109,2.379,2.379,0,0,1,1.3.359,1.679,1.679,0,0,1,.7.93,3.255,3.255,0,0,1,2.625-1.289,2.126,2.126,0,0,1,1.754.8,3.271,3.271,0,0,1,.5,2.234l-.016.2L25.664,0H23.453l.9-5.4a3.908,3.908,0,0,0,.023-.54.837.837,0,0,0-.937-.845,1.86,1.86,0,0,0-1.555.97l-.023.18L20.875,0h-2.2l.9-5.383a3.9,3.9,0,0,0,.023-.539.836.836,0,0,0-.93-.852,1.867,1.867,0,0,0-1.508.789L16.1,0H13.9l1.461-8.453ZM31.43.156a3.677,3.677,0,0,1-1.965-.543,3.292,3.292,0,0,1-1.277-1.469,4.093,4.093,0,0,1-.328-2.059l.023-.312A5.465,5.465,0,0,1,28.6-6.492a4.341,4.341,0,0,1,1.547-1.59,3.827,3.827,0,0,1,2.094-.527,2.924,2.924,0,0,1,2.473,1.2,4.117,4.117,0,0,1,.637,2.962l-.125.962h-5.18a1.814,1.814,0,0,0,.4,1.313,1.521,1.521,0,0,0,1.172.508A2.7,2.7,0,0,0,33.727-2.6l1.008,1.25A3.135,3.135,0,0,1,33.359-.23,4.5,4.5,0,0,1,31.43.156Zm.7-6.945a1.565,1.565,0,0,0-1.082.383A3.363,3.363,0,0,0,30.2-5.023h3.031l.047-.2a2.071,2.071,0,0,0,.008-.594,1.134,1.134,0,0,0-.383-.707A1.2,1.2,0,0,0,32.133-6.789Zm8.711,2.828H36.563l.313-1.82h4.289Zm5.6-6.57-.367,2.078h1.406L47.2-6.8H45.789L45.07-2.562a1.077,1.077,0,0,0,.063.609q.109.211.531.227.125.008.672-.039L46.18-.039a3.706,3.706,0,0,1-1.266.18A1.985,1.985,0,0,1,43.3-.539a2.456,2.456,0,0,1-.437-1.8L43.586-6.8h-1.2l.289-1.656h1.2l.359-2.078ZM51.9-8.609a3.39,3.39,0,0,1,1.926.574A3.234,3.234,0,0,1,55.012-6.5a4.762,4.762,0,0,1,.27,2.176,5.143,5.143,0,0,1-1.4,3.262A3.96,3.96,0,0,1,50.859.156,3.38,3.38,0,0,1,48.953-.41a3.222,3.222,0,0,1-1.187-1.527,4.657,4.657,0,0,1-.273-2.156,5.3,5.3,0,0,1,1.422-3.328A3.878,3.878,0,0,1,51.9-8.609ZM49.672-3.294a1.95,1.95,0,0,0,.352,1.182,1.168,1.168,0,0,0,.945.449A1.712,1.712,0,0,0,52.563-2.6,4.647,4.647,0,0,0,53.1-5.128a2.122,2.122,0,0,0-.363-1.2,1.149,1.149,0,0,0-.949-.464,1.715,1.715,0,0,0-1.574.924A4.6,4.6,0,0,0,49.672-3.294Zm11.2-.667H56.594l.313-1.82H61.2ZM64.336,0H62.117L64.2-12h2.211Zm4.2,0H66.313l1.469-8.453H70Zm-.492-10.6a1.1,1.1,0,0,1,.344-.867,1.209,1.209,0,0,1,.867-.344,1.215,1.215,0,0,1,.867.3,1.1,1.1,0,0,1,.383.828,1.132,1.132,0,0,1-.324.844,1.215,1.215,0,0,1-.887.375,1.235,1.235,0,0,1-.863-.3A1.091,1.091,0,0,1,68.039-10.6Zm5.914,7.813,2.406-5.664h2.375L74.648,0H72.539L71.094-8.453h2.234ZM82.336.156a3.677,3.677,0,0,1-1.965-.543,3.292,3.292,0,0,1-1.277-1.469,4.093,4.093,0,0,1-.328-2.059l.023-.312a5.465,5.465,0,0,1,.719-2.266,4.341,4.341,0,0,1,1.547-1.59,3.827,3.827,0,0,1,2.094-.527,2.924,2.924,0,0,1,2.473,1.2,4.117,4.117,0,0,1,.637,2.962l-.125.962h-5.18a1.814,1.814,0,0,0,.4,1.313,1.521,1.521,0,0,0,1.172.508A2.7,2.7,0,0,0,84.633-2.6l1.008,1.25A3.135,3.135,0,0,1,84.266-.23,4.5,4.5,0,0,1,82.336.156Zm.7-6.945a1.565,1.565,0,0,0-1.082.383,3.363,3.363,0,0,0-.848,1.383h3.031l.047-.2A2.071,2.071,0,0,0,84.2-5.82a1.134,1.134,0,0,0-.383-.707A1.2,1.2,0,0,0,83.039-6.789Z" transform="translate(536.5 5432)" fill="#12263f"/>
        <path id="Trazado_836690" data-name="Trazado 836690" d="M10.539-11.375l-1.281,7.5A4.571,4.571,0,0,1,7.7-.9,4.7,4.7,0,0,1,4.477.164a4.335,4.335,0,0,1-2.09-.527A3.077,3.077,0,0,1,1.078-1.785,3.855,3.855,0,0,1,.789-3.867l1.273-7.508H4.352L3.078-3.859a3.339,3.339,0,0,0-.008.82A1.385,1.385,0,0,0,4.578-1.727a2.154,2.154,0,0,0,1.586-.531,2.721,2.721,0,0,0,.8-1.609l1.281-7.508Zm7.9,7.172a6.981,6.981,0,0,1-.7,2.359,3.826,3.826,0,0,1-1.32,1.531,3.058,3.058,0,0,1-1.75.477A2.44,2.44,0,0,1,12.734-.75l-.773,4h-2.2l2.023-11.7,2.031-.008-.148.852a2.7,2.7,0,0,1,2.156-1,2.4,2.4,0,0,1,1.93.9,3.922,3.922,0,0,1,.734,2.363A9.133,9.133,0,0,1,18.438-4.2Zm-2.187-.16.047-.751A2.089,2.089,0,0,0,16.02-6.32a1,1,0,0,0-.855-.462,1.818,1.818,0,0,0-1.586.814l-.633,3.49a1.233,1.233,0,0,0,1.242.822,1.59,1.59,0,0,0,1.328-.618A4.234,4.234,0,0,0,16.25-4.364Zm11,.16a6.981,6.981,0,0,1-.7,2.359,3.826,3.826,0,0,1-1.32,1.531,3.058,3.058,0,0,1-1.75.477A2.44,2.44,0,0,1,21.547-.75l-.773,4h-2.2l2.023-11.7,2.031-.008-.148.852a2.7,2.7,0,0,1,2.156-1,2.4,2.4,0,0,1,1.93.9A3.922,3.922,0,0,1,27.3-5.344,9.133,9.133,0,0,1,27.25-4.2Zm-2.187-.16.047-.751a2.089,2.089,0,0,0-.277-1.205,1,1,0,0,0-.855-.462,1.818,1.818,0,0,0-1.586.814l-.633,3.49A1.233,1.233,0,0,0,23-1.656a1.59,1.59,0,0,0,1.328-.618A4.234,4.234,0,0,0,25.063-4.364Zm6.9,4.52A3.677,3.677,0,0,1,30-.387a3.292,3.292,0,0,1-1.277-1.469,4.093,4.093,0,0,1-.328-2.059l.023-.312a5.465,5.465,0,0,1,.719-2.266,4.341,4.341,0,0,1,1.547-1.59,3.827,3.827,0,0,1,2.094-.527,2.924,2.924,0,0,1,2.473,1.2,4.117,4.117,0,0,1,.637,2.962l-.125.962h-5.18a1.814,1.814,0,0,0,.4,1.313,1.521,1.521,0,0,0,1.172.508A2.7,2.7,0,0,0,34.258-2.6l1.008,1.25A3.135,3.135,0,0,1,33.891-.23,4.5,4.5,0,0,1,31.961.156Zm.7-6.945a1.565,1.565,0,0,0-1.082.383,3.363,3.363,0,0,0-.848,1.383h3.031l.047-.2a2.071,2.071,0,0,0,.008-.594,1.134,1.134,0,0,0-.383-.707A1.2,1.2,0,0,0,32.664-6.789Zm9.539.453a4.548,4.548,0,0,0-.742-.078,2.136,2.136,0,0,0-1.867.883L38.617,0h-2.2l1.469-8.453,2.07-.008-.2,1.031a2.325,2.325,0,0,1,1.969-1.2,3.214,3.214,0,0,1,.766.109Zm4.914,2.375H42.836l.313-1.82h4.289ZM50.578,0H48.359l2.086-12h2.211Zm6.758,0a2.281,2.281,0,0,1-.086-.766,2.863,2.863,0,0,1-2.156.922,2.594,2.594,0,0,1-1.84-.723,2.186,2.186,0,0,1-.684-1.746,2.527,2.527,0,0,1,1.16-2.121A5.266,5.266,0,0,1,56.7-5.172l1.031.016.109-.508a1.764,1.764,0,0,0,.023-.492.846.846,0,0,0-.277-.574.955.955,0,0,0-.629-.215,1.345,1.345,0,0,0-.875.254,1.231,1.231,0,0,0-.461.777l-2.211.008A2.457,2.457,0,0,1,54.52-7.871a4.312,4.312,0,0,1,2.613-.738,3.117,3.117,0,0,1,2.25.855,2.5,2.5,0,0,1,.68,2.121l-.648,4.047-.039.5a2.412,2.412,0,0,0,.133.938L59.5,0Zm-1.7-1.555A2.017,2.017,0,0,0,57.3-2.383l.273-1.461-.766-.008a2.139,2.139,0,0,0-1.758.742,1.292,1.292,0,0,0-.242.633.75.75,0,0,0,.176.668A.891.891,0,0,0,55.641-1.555ZM64.43-3.219l2.414-5.234H69.3L64.352,1.273a4.231,4.231,0,0,1-1.246,1.641,2.723,2.723,0,0,1-1.652.523,5.035,5.035,0,0,1-1.062-.164l.164-1.719.3.016A1.651,1.651,0,0,0,62.438.781l.484-.9L61.539-8.453H63.82Zm8.3,3.375a3.677,3.677,0,0,1-1.965-.543,3.292,3.292,0,0,1-1.277-1.469,4.093,4.093,0,0,1-.328-2.059l.023-.312A5.465,5.465,0,0,1,69.9-6.492a4.341,4.341,0,0,1,1.547-1.59,3.827,3.827,0,0,1,2.094-.527,2.924,2.924,0,0,1,2.473,1.2,4.117,4.117,0,0,1,.637,2.962l-.125.962h-5.18a1.814,1.814,0,0,0,.4,1.313,1.521,1.521,0,0,0,1.172.508A2.7,2.7,0,0,0,75.023-2.6l1.008,1.25A3.135,3.135,0,0,1,74.656-.23,4.5,4.5,0,0,1,72.727.156Zm.7-6.945a1.565,1.565,0,0,0-1.082.383A3.363,3.363,0,0,0,71.5-5.023h3.031l.047-.2a2.071,2.071,0,0,0,.008-.594,1.134,1.134,0,0,0-.383-.707A1.2,1.2,0,0,0,73.43-6.789Zm9.539.453a4.548,4.548,0,0,0-.742-.078,2.136,2.136,0,0,0-1.867.883L79.383,0h-2.2l1.469-8.453,2.07-.008-.2,1.031a2.325,2.325,0,0,1,1.969-1.2,3.214,3.214,0,0,1,.766.109ZM3.156,15.992,2.453,20H.164L2.141,8.625l3.984.008a3.986,3.986,0,0,1,2.9,1.023,3.174,3.174,0,0,1,.922,2.672A3.592,3.592,0,0,1,8.551,15a5.075,5.075,0,0,1-3.238,1Zm.32-1.9,1.906.016a2.41,2.41,0,0,0,1.531-.477,1.918,1.918,0,0,0,.727-1.289,1.646,1.646,0,0,0-.262-1.3,1.418,1.418,0,0,0-1.121-.516L4.1,10.523Zm12.422-.43a4.548,4.548,0,0,0-.742-.078,2.136,2.136,0,0,0-1.867.883L12.313,20h-2.2l1.469-8.453,2.07-.008-.2,1.031a2.325,2.325,0,0,1,1.969-1.2,3.214,3.214,0,0,1,.766.109Zm4.508-2.273a3.39,3.39,0,0,1,1.926.574A3.234,3.234,0,0,1,23.52,13.5a4.762,4.762,0,0,1,.27,2.176,5.143,5.143,0,0,1-1.4,3.262,3.96,3.96,0,0,1-3.02,1.215,3.38,3.38,0,0,1-1.906-.566,3.222,3.222,0,0,1-1.187-1.527A4.657,4.657,0,0,1,16,15.906a5.3,5.3,0,0,1,1.422-3.328A3.878,3.878,0,0,1,20.406,11.391ZM18.18,16.706a1.95,1.95,0,0,0,.352,1.182,1.168,1.168,0,0,0,.945.449A1.712,1.712,0,0,0,21.07,17.4a4.647,4.647,0,0,0,.539-2.531,2.122,2.122,0,0,0-.363-1.2,1.149,1.149,0,0,0-.949-.464,1.715,1.715,0,0,0-1.574.924A4.6,4.6,0,0,0,18.18,16.706ZM28.891,9.469l-.367,2.078H29.93L29.641,13.2H28.234l-.719,4.234a1.077,1.077,0,0,0,.063.609q.109.211.531.227.125.008.672-.039l-.156,1.727a3.706,3.706,0,0,1-1.266.18,1.985,1.985,0,0,1-1.617-.68,2.456,2.456,0,0,1-.437-1.8l.727-4.461h-1.2l.289-1.656h1.2l.359-2.078Zm5.453,1.922a3.39,3.39,0,0,1,1.926.574A3.234,3.234,0,0,1,37.457,13.5a4.762,4.762,0,0,1,.27,2.176,5.143,5.143,0,0,1-1.4,3.262,3.96,3.96,0,0,1-3.02,1.215A3.38,3.38,0,0,1,31.4,19.59a3.222,3.222,0,0,1-1.187-1.527,4.657,4.657,0,0,1-.273-2.156,5.3,5.3,0,0,1,1.422-3.328A3.878,3.878,0,0,1,34.344,11.391Zm-2.227,5.315a1.95,1.95,0,0,0,.352,1.182,1.168,1.168,0,0,0,.945.449,1.712,1.712,0,0,0,1.594-.932,4.647,4.647,0,0,0,.539-2.531,2.122,2.122,0,0,0-.363-1.2,1.149,1.149,0,0,0-.949-.464,1.715,1.715,0,0,0-1.574.924A4.6,4.6,0,0,0,32.117,16.706Zm9.945,1.638a1.447,1.447,0,0,0,1.016-.332,1.632,1.632,0,0,0,.531-.926l2.07-.008a3.037,3.037,0,0,1-.559,1.6,3.394,3.394,0,0,1-1.344,1.109,3.847,3.847,0,0,1-1.77.375A3.123,3.123,0,0,1,39.57,19.1a3.965,3.965,0,0,1-.867-2.766l.023-.43.008-.086a5.284,5.284,0,0,1,1.391-3.27,3.761,3.761,0,0,1,2.914-1.16,3.047,3.047,0,0,1,2.27.934,3.3,3.3,0,0,1,.824,2.379H44.078a1.73,1.73,0,0,0-.3-1.07,1.128,1.128,0,0,0-.891-.422q-1.578-.047-1.914,2.3a7.782,7.782,0,0,0-.086,1.438Q40.969,18.32,42.063,18.344Zm9.3-6.953a3.39,3.39,0,0,1,1.926.574A3.234,3.234,0,0,1,54.48,13.5a4.762,4.762,0,0,1,.27,2.176,5.143,5.143,0,0,1-1.4,3.262,3.96,3.96,0,0,1-3.02,1.215,3.38,3.38,0,0,1-1.906-.566,3.222,3.222,0,0,1-1.187-1.527,4.657,4.657,0,0,1-.273-2.156,5.3,5.3,0,0,1,1.422-3.328A3.878,3.878,0,0,1,51.367,11.391Zm-2.227,5.315a1.95,1.95,0,0,0,.352,1.182,1.168,1.168,0,0,0,.945.449,1.712,1.712,0,0,0,1.594-.932,4.647,4.647,0,0,0,.539-2.531,2.122,2.122,0,0,0-.363-1.2,1.149,1.149,0,0,0-.949-.464,1.715,1.715,0,0,0-1.574.924A4.6,4.6,0,0,0,49.141,16.706ZM57.711,20H55.492L57.578,8h2.211Z" transform="translate(676.5 5422)" fill="#12263f"/>
        <path id="Trazado_836691" data-name="Trazado 836691" d="M9.164,0H6.875l.844-4.875H3.3L2.453,0H.164L2.141-11.375H4.43l-.8,4.609H8.047l.8-4.609h2.289Zm5.922.156a3.677,3.677,0,0,1-1.965-.543,3.292,3.292,0,0,1-1.277-1.469,4.093,4.093,0,0,1-.328-2.059l.023-.312a5.465,5.465,0,0,1,.719-2.266A4.341,4.341,0,0,1,13.8-8.082,3.827,3.827,0,0,1,15.9-8.609a2.924,2.924,0,0,1,2.473,1.2,4.117,4.117,0,0,1,.637,2.962l-.125.962H13.7a1.814,1.814,0,0,0,.4,1.313,1.521,1.521,0,0,0,1.172.508A2.7,2.7,0,0,0,17.383-2.6l1.008,1.25A3.135,3.135,0,0,1,17.016-.23,4.5,4.5,0,0,1,15.086.156Zm.7-6.945a1.565,1.565,0,0,0-1.082.383,3.363,3.363,0,0,0-.848,1.383h3.031l.047-.2a2.071,2.071,0,0,0,.008-.594,1.134,1.134,0,0,0-.383-.707A1.2,1.2,0,0,0,15.789-6.789ZM24.43,0a2.281,2.281,0,0,1-.086-.766,2.863,2.863,0,0,1-2.156.922,2.594,2.594,0,0,1-1.84-.723,2.186,2.186,0,0,1-.684-1.746,2.527,2.527,0,0,1,1.16-2.121,5.266,5.266,0,0,1,2.965-.738l1.031.016.109-.508a1.764,1.764,0,0,0,.023-.492.846.846,0,0,0-.277-.574.955.955,0,0,0-.629-.215,1.345,1.345,0,0,0-.875.254,1.231,1.231,0,0,0-.461.777L20.5-5.906a2.457,2.457,0,0,1,1.113-1.965,4.312,4.312,0,0,1,2.613-.738,3.117,3.117,0,0,1,2.25.855,2.5,2.5,0,0,1,.68,2.121l-.648,4.047-.039.5a2.412,2.412,0,0,0,.133.938L26.594,0Zm-1.7-1.555A2.017,2.017,0,0,0,24.4-2.383l.273-1.461-.766-.008a2.139,2.139,0,0,0-1.758.742,1.292,1.292,0,0,0-.242.633.75.75,0,0,0,.176.668A.891.891,0,0,0,22.734-1.555Zm9.4-7.062a2.4,2.4,0,0,1,1.906.945L34.867-12h2.211L35,0H33.031l.125-.906a2.736,2.736,0,0,1-2.2,1.07A2.433,2.433,0,0,1,29.57-.25a2.607,2.607,0,0,1-.918-1.168,4.7,4.7,0,0,1-.355-1.7,6.4,6.4,0,0,1,.023-.953l.047-.352A6.767,6.767,0,0,1,29.09-6.7,3.766,3.766,0,0,1,30.4-8.164,3.094,3.094,0,0,1,32.133-8.617Zm-1.6,4.547a6.327,6.327,0,0,0-.039,1Q30.57-1.7,31.6-1.672a1.885,1.885,0,0,0,1.617-.875l.6-3.359A1.248,1.248,0,0,0,32.6-6.781a1.606,1.606,0,0,0-1.34.621A4.176,4.176,0,0,0,30.531-4.07ZM40.773.156a3.677,3.677,0,0,1-1.965-.543,3.292,3.292,0,0,1-1.277-1.469A4.093,4.093,0,0,1,37.2-3.914l.023-.312a5.465,5.465,0,0,1,.719-2.266,4.341,4.341,0,0,1,1.547-1.59,3.827,3.827,0,0,1,2.094-.527,2.924,2.924,0,0,1,2.473,1.2A4.117,4.117,0,0,1,44.7-4.447l-.125.962h-5.18a1.814,1.814,0,0,0,.4,1.313,1.521,1.521,0,0,0,1.172.508A2.7,2.7,0,0,0,43.07-2.6l1.008,1.25A3.135,3.135,0,0,1,42.7-.23,4.5,4.5,0,0,1,40.773.156Zm.7-6.945a1.565,1.565,0,0,0-1.082.383,3.363,3.363,0,0,0-.848,1.383h3.031l.047-.2a2.071,2.071,0,0,0,.008-.594,1.134,1.134,0,0,0-.383-.707A1.2,1.2,0,0,0,41.477-6.789Zm9.539.453a4.548,4.548,0,0,0-.742-.078,2.136,2.136,0,0,0-1.867.883L47.43,0h-2.2L46.7-8.453l2.07-.008-.2,1.031a2.325,2.325,0,0,1,1.969-1.2,3.214,3.214,0,0,1,.766.109Zm7.6,4.68a1.447,1.447,0,0,0,1.016-.332,1.632,1.632,0,0,0,.531-.926l2.07-.008a3.037,3.037,0,0,1-.559,1.6A3.394,3.394,0,0,1,60.332-.211a3.847,3.847,0,0,1-1.77.375A3.123,3.123,0,0,1,56.125-.9a3.965,3.965,0,0,1-.867-2.766l.023-.43.008-.086a5.284,5.284,0,0,1,1.391-3.27,3.761,3.761,0,0,1,2.914-1.16,3.047,3.047,0,0,1,2.27.934A3.3,3.3,0,0,1,62.688-5.3H60.633a1.73,1.73,0,0,0-.3-1.07,1.128,1.128,0,0,0-.891-.422q-1.578-.047-1.914,2.3a7.782,7.782,0,0,0-.086,1.438Q57.523-1.68,58.617-1.656Zm7.828-5.859a2.946,2.946,0,0,1,2.289-1.094,2.143,2.143,0,0,1,1.848.9,3.548,3.548,0,0,1,.441,2.379L70.133,0h-2.2l.9-5.358a2.6,2.6,0,0,0,.016-.563.885.885,0,0,0-.984-.868,1.9,1.9,0,0,0-1.562.766L65.234,0h-2.2l2.078-12H67.32ZM75.867.156A3.677,3.677,0,0,1,73.9-.387a3.292,3.292,0,0,1-1.277-1.469A4.093,4.093,0,0,1,72.3-3.914l.023-.312a5.465,5.465,0,0,1,.719-2.266,4.341,4.341,0,0,1,1.547-1.59,3.827,3.827,0,0,1,2.094-.527,2.924,2.924,0,0,1,2.473,1.2,4.117,4.117,0,0,1,.637,2.962l-.125.962h-5.18a1.814,1.814,0,0,0,.4,1.313,1.521,1.521,0,0,0,1.172.508A2.7,2.7,0,0,0,78.164-2.6l1.008,1.25A3.135,3.135,0,0,1,77.8-.23,4.5,4.5,0,0,1,75.867.156Zm.7-6.945a1.565,1.565,0,0,0-1.082.383,3.363,3.363,0,0,0-.848,1.383h3.031l.047-.2a2.071,2.071,0,0,0,.008-.594,1.134,1.134,0,0,0-.383-.707A1.2,1.2,0,0,0,76.57-6.789Zm7.453,5.133a1.447,1.447,0,0,0,1.016-.332,1.632,1.632,0,0,0,.531-.926l2.07-.008a3.037,3.037,0,0,1-.559,1.6A3.394,3.394,0,0,1,85.738-.211a3.847,3.847,0,0,1-1.77.375A3.123,3.123,0,0,1,81.531-.9a3.965,3.965,0,0,1-.867-2.766l.023-.43L80.7-4.18a5.284,5.284,0,0,1,1.391-3.27A3.761,3.761,0,0,1,85-8.609a3.047,3.047,0,0,1,2.27.934A3.3,3.3,0,0,1,88.094-5.3H86.039a1.73,1.73,0,0,0-.3-1.07,1.128,1.128,0,0,0-.891-.422q-1.578-.047-1.914,2.3a7.782,7.782,0,0,0-.086,1.438Q82.93-1.68,84.023-1.656Zm8.125-1.711-1.023.891L90.7,0h-2.2L90.57-12h2.211L91.641-5.484l.43-.461,2.508-2.508h2.828l-3.7,3.633L96.063,0H93.648Zm9.609.984q.125-.625-.867-.906l-.711-.18q-2.523-.7-2.453-2.453a2.428,2.428,0,0,1,1.059-1.949,3.942,3.942,0,0,1,2.457-.738,3.536,3.536,0,0,1,2.313.758,2.5,2.5,0,0,1,.9,1.977l-2.187-.008a.963.963,0,0,0-1.078-1.1,1.551,1.551,0,0,0-.895.258,1.061,1.061,0,0,0-.465.7q-.117.625.945.883l.313.07a6.285,6.285,0,0,1,1.648.59,2.488,2.488,0,0,1,.879.824,2.04,2.04,0,0,1,.285,1.18,2.251,2.251,0,0,1-.52,1.406,3.18,3.18,0,0,1-1.359.93,4.736,4.736,0,0,1-1.816.3,3.568,3.568,0,0,1-2.344-.809A2.607,2.607,0,0,1,96.906-2.7l2.078.016a1.142,1.142,0,0,0,1.3,1.227,1.845,1.845,0,0,0,1-.25A.987.987,0,0,0,101.758-2.383Zm8.391,1.508A2.919,2.919,0,0,1,107.82.156a2.172,2.172,0,0,1-1.844-.875,3.2,3.2,0,0,1-.484-2.266l.914-5.469h2.2l-.93,5.5a2.174,2.174,0,0,0-.008.485.8.8,0,0,0,.867.806,2.014,2.014,0,0,0,1.7-.79l1.055-6h2.219L112.039,0h-2.055ZM117.2-8.461l-.18.961a3.112,3.112,0,0,1,2.477-1.109,2.379,2.379,0,0,1,1.3.359,1.679,1.679,0,0,1,.7.93,3.255,3.255,0,0,1,2.625-1.289,2.126,2.126,0,0,1,1.754.8,3.271,3.271,0,0,1,.5,2.234l-.016.2L125.445,0h-2.211l.9-5.4a3.907,3.907,0,0,0,.023-.54.837.837,0,0,0-.937-.845,1.86,1.86,0,0,0-1.555.97l-.023.18L120.656,0h-2.2l.9-5.383a3.9,3.9,0,0,0,.023-.539.836.836,0,0,0-.93-.852,1.867,1.867,0,0,0-1.508.789L115.883,0h-2.2l1.461-8.453Z" transform="translate(836.5 5432)" fill="#12263f"/>
        <path id="Trazado_836692" data-name="Trazado 836692" d="M3.3-6.687l1.055.008A2.055,2.055,0,0,0,5.7-7.125a1.737,1.737,0,0,0,.629-1.2,1.261,1.261,0,0,0-.242-1.012,1.23,1.23,0,0,0-.961-.395,1.642,1.642,0,0,0-1.1.348,1.494,1.494,0,0,0-.559.941l-2.2.016a2.952,2.952,0,0,1,1.184-2.254,4.165,4.165,0,0,1,2.707-.863,3.716,3.716,0,0,1,2.547.9,2.739,2.739,0,0,1,.852,2.3A3.078,3.078,0,0,1,6.484-5.8,2.381,2.381,0,0,1,7.605-4.754a2.826,2.826,0,0,1,.309,1.5,3.267,3.267,0,0,1-.633,1.813,3.7,3.7,0,0,1-1.547,1.2A4.962,4.962,0,0,1,3.641.156a3.557,3.557,0,0,1-2.484-.91A3.03,3.03,0,0,1,.211-3.117H2.4a1.412,1.412,0,0,0,.355,1.035,1.385,1.385,0,0,0,1.035.418A1.933,1.933,0,0,0,5.1-2.1a1.761,1.761,0,0,0,.641-1.179,1.428,1.428,0,0,0-.277-1.2,1.553,1.553,0,0,0-1.152-.439l-1.3-.008ZM16.57,0H8.992L9.25-1.641,13.289-5.43A8.947,8.947,0,0,0,14.938-7.32a2.214,2.214,0,0,0,.3-1.422,1.061,1.061,0,0,0-1.117-.992,1.6,1.6,0,0,0-1.254.523A2.453,2.453,0,0,0,12.258-7.8l-2.2.008a3.863,3.863,0,0,1,.633-1.93,3.882,3.882,0,0,1,1.52-1.348,4.405,4.405,0,0,1,2.051-.473,3.5,3.5,0,0,1,2.469.891,2.756,2.756,0,0,1,.781,2.289A5.546,5.546,0,0,1,15.609-5L14.484-3.93,12.156-1.836l4.7.016ZM30.063-4.2A6.061,6.061,0,0,1,28.844-1,3.033,3.033,0,0,1,26.3.164,2.357,2.357,0,0,1,24.266-.914L23.945,0H21.938l2.078-12h2.211l-.852,4.32a2.634,2.634,0,0,1,2.063-.93,2.385,2.385,0,0,1,1.926.879,3.89,3.89,0,0,1,.746,2.387A9.133,9.133,0,0,1,30.063-4.2Zm-2.187-.165A6.554,6.554,0,0,0,27.922-5.4Q27.836-6.766,26.8-6.789A1.833,1.833,0,0,0,25.18-5.9l-.609,3.37a1.258,1.258,0,0,0,1.266.878q1.625.047,1.992-2.367ZM33.078,0H30.859l1.469-8.453h2.219Zm-.492-10.6a1.1,1.1,0,0,1,.344-.867,1.209,1.209,0,0,1,.867-.344,1.215,1.215,0,0,1,.867.3,1.1,1.1,0,0,1,.383.828,1.132,1.132,0,0,1-.324.844,1.215,1.215,0,0,1-.887.375,1.235,1.235,0,0,1-.863-.3A1.091,1.091,0,0,1,32.586-10.6Zm6.828.07-.367,2.078h1.406L40.164-6.8H38.758l-.719,4.234a1.077,1.077,0,0,0,.063.609q.109.211.531.227.125.008.672-.039L39.148-.039a3.706,3.706,0,0,1-1.266.18,1.985,1.985,0,0,1-1.617-.68,2.456,2.456,0,0,1-.437-1.8L36.555-6.8h-1.2l.289-1.656h1.2l.359-2.078Zm5.75,8.148q.125-.625-.867-.906l-.711-.18q-2.523-.7-2.453-2.453a2.428,2.428,0,0,1,1.059-1.949,3.942,3.942,0,0,1,2.457-.738,3.536,3.536,0,0,1,2.313.758,2.5,2.5,0,0,1,.9,1.977l-2.187-.008a.963.963,0,0,0-1.078-1.1,1.552,1.552,0,0,0-.895.258,1.061,1.061,0,0,0-.465.7q-.117.625.945.883l.313.07a6.285,6.285,0,0,1,1.648.59,2.488,2.488,0,0,1,.879.824,2.04,2.04,0,0,1,.285,1.18,2.251,2.251,0,0,1-.52,1.406,3.18,3.18,0,0,1-1.359.93,4.736,4.736,0,0,1-1.816.3,3.568,3.568,0,0,1-2.344-.809A2.607,2.607,0,0,1,40.313-2.7l2.078.016a1.142,1.142,0,0,0,1.3,1.227,1.845,1.845,0,0,0,1-.25A.987.987,0,0,0,45.164-2.383ZM57.227-3.961H52.945l.313-1.82h4.289ZM68.7-3.039q.164-.93-.914-1.422l-1.508-.6q-2.625-1.172-2.492-3.227a2.964,2.964,0,0,1,.625-1.687,3.758,3.758,0,0,1,1.6-1.152,5.67,5.67,0,0,1,2.227-.4,3.857,3.857,0,0,1,2.664.98,3.267,3.267,0,0,1,1,2.543H69.625a1.628,1.628,0,0,0-.34-1.2,1.531,1.531,0,0,0-1.176-.445A2.37,2.37,0,0,0,66.75-9.3a1.458,1.458,0,0,0-.687,1.02Q65.914-7.43,67.2-6.93l1.031.391.594.273q2.3,1.141,2.156,3.2a3.09,3.09,0,0,1-.645,1.738A3.633,3.633,0,0,1,68.777-.2,5.565,5.565,0,0,1,66.6.164a4.873,4.873,0,0,1-2.156-.508,3.349,3.349,0,0,1-1.437-1.367,3.54,3.54,0,0,1-.43-1.875l2.289.008q-.109,1.852,1.82,1.883a2.392,2.392,0,0,0,1.375-.367A1.43,1.43,0,0,0,68.7-3.039Zm8.055-5.57a3.39,3.39,0,0,1,1.926.574A3.234,3.234,0,0,1,79.871-6.5a4.762,4.762,0,0,1,.27,2.176,5.143,5.143,0,0,1-1.4,3.262A3.96,3.96,0,0,1,75.719.156,3.38,3.38,0,0,1,73.813-.41a3.222,3.222,0,0,1-1.187-1.527,4.657,4.657,0,0,1-.273-2.156,5.3,5.3,0,0,1,1.422-3.328A3.878,3.878,0,0,1,76.758-8.609ZM74.531-3.294a1.95,1.95,0,0,0,.352,1.182,1.168,1.168,0,0,0,.945.449A1.712,1.712,0,0,0,77.422-2.6a4.647,4.647,0,0,0,.539-2.531,2.122,2.122,0,0,0-.363-1.2,1.149,1.149,0,0,0-.949-.464,1.715,1.715,0,0,0-1.574.924A4.6,4.6,0,0,0,74.531-3.294ZM86.008-.875A2.919,2.919,0,0,1,83.68.156a2.172,2.172,0,0,1-1.844-.875,3.2,3.2,0,0,1-.484-2.266l.914-5.469h2.2l-.93,5.5a2.174,2.174,0,0,0-.008.485.8.8,0,0,0,.867.806,2.014,2.014,0,0,0,1.7-.79l1.055-6h2.219L87.9,0H85.844Zm9.32-5.461a4.548,4.548,0,0,0-.742-.078,2.136,2.136,0,0,0-1.867.883L91.742,0h-2.2l1.469-8.453,2.07-.008-.2,1.031a2.325,2.325,0,0,1,1.969-1.2,3.214,3.214,0,0,1,.766.109Zm3.508,4.68a1.447,1.447,0,0,0,1.016-.332,1.632,1.632,0,0,0,.531-.926l2.07-.008a3.037,3.037,0,0,1-.559,1.6,3.394,3.394,0,0,1-1.344,1.109,3.847,3.847,0,0,1-1.77.375A3.123,3.123,0,0,1,96.344-.9a3.965,3.965,0,0,1-.867-2.766l.023-.43.008-.086A5.284,5.284,0,0,1,96.9-7.449a3.761,3.761,0,0,1,2.914-1.16,3.047,3.047,0,0,1,2.27.934,3.3,3.3,0,0,1,.824,2.379h-2.055a1.73,1.73,0,0,0-.3-1.07,1.128,1.128,0,0,0-.891-.422q-1.578-.047-1.914,2.3a7.782,7.782,0,0,0-.086,1.438Q97.742-1.68,98.836-1.656ZM107.32.156a3.677,3.677,0,0,1-1.965-.543,3.292,3.292,0,0,1-1.277-1.469,4.093,4.093,0,0,1-.328-2.059l.023-.312a5.465,5.465,0,0,1,.719-2.266,4.341,4.341,0,0,1,1.547-1.59,3.827,3.827,0,0,1,2.094-.527,2.924,2.924,0,0,1,2.473,1.2,4.117,4.117,0,0,1,.637,2.962l-.125.962h-5.18a1.814,1.814,0,0,0,.4,1.313,1.521,1.521,0,0,0,1.172.508,2.7,2.7,0,0,0,2.109-.937l1.008,1.25A3.135,3.135,0,0,1,109.25-.23,4.5,4.5,0,0,1,107.32.156Zm.7-6.945a1.565,1.565,0,0,0-1.082.383,3.363,3.363,0,0,0-.848,1.383h3.031l.047-.2a2.071,2.071,0,0,0,.008-.594,1.134,1.134,0,0,0-.383-.707A1.2,1.2,0,0,0,108.023-6.789ZM118.3,0h-2.289l1.969-11.375h2.289Zm5.156-4.008L122.75,0h-2.289l1.977-11.375,3.984.008a3.986,3.986,0,0,1,2.9,1.023,3.174,3.174,0,0,1,.922,2.672A3.592,3.592,0,0,1,128.848-5a5.075,5.075,0,0,1-3.238,1Zm.32-1.9,1.906.016a2.41,2.41,0,0,0,1.531-.477,1.918,1.918,0,0,0,.727-1.289,1.646,1.646,0,0,0-.262-1.3,1.418,1.418,0,0,0-1.121-.516L124.4-9.477ZM139.242,0a2.281,2.281,0,0,1-.086-.766A2.863,2.863,0,0,1,137,.156a2.594,2.594,0,0,1-1.84-.723,2.186,2.186,0,0,1-.684-1.746,2.527,2.527,0,0,1,1.16-2.121,5.266,5.266,0,0,1,2.965-.738l1.031.016.109-.508a1.764,1.764,0,0,0,.023-.492.846.846,0,0,0-.277-.574.955.955,0,0,0-.629-.215,1.345,1.345,0,0,0-.875.254,1.231,1.231,0,0,0-.461.777l-2.211.008a2.457,2.457,0,0,1,1.113-1.965,4.312,4.312,0,0,1,2.613-.738,3.117,3.117,0,0,1,2.25.855,2.5,2.5,0,0,1,.68,2.121l-.648,4.047-.039.5a2.412,2.412,0,0,0,.133.938L141.406,0Zm-1.7-1.555a2.017,2.017,0,0,0,1.664-.828l.273-1.461-.766-.008a2.139,2.139,0,0,0-1.758.742,1.292,1.292,0,0,0-.242.633.75.75,0,0,0,.176.668A.891.891,0,0,0,137.547-1.555Zm9.4-7.062a2.4,2.4,0,0,1,1.906.945L149.68-12h2.211L149.813,0h-1.969l.125-.906a2.736,2.736,0,0,1-2.2,1.07,2.433,2.433,0,0,1-1.383-.414,2.607,2.607,0,0,1-.918-1.168,4.7,4.7,0,0,1-.355-1.7,6.4,6.4,0,0,1,.023-.953l.047-.352A6.767,6.767,0,0,1,143.9-6.7a3.766,3.766,0,0,1,1.313-1.461A3.094,3.094,0,0,1,146.945-8.617Zm-1.6,4.547a6.326,6.326,0,0,0-.039,1q.078,1.375,1.109,1.4a1.885,1.885,0,0,0,1.617-.875l.6-3.359a1.248,1.248,0,0,0-1.219-.875,1.606,1.606,0,0,0-1.34.621A4.176,4.176,0,0,0,145.344-4.07Zm10.422-4.547a2.4,2.4,0,0,1,1.906.945L158.5-12h2.211L158.633,0h-1.969l.125-.906a2.736,2.736,0,0,1-2.2,1.07A2.433,2.433,0,0,1,153.2-.25a2.607,2.607,0,0,1-.918-1.168,4.7,4.7,0,0,1-.355-1.7,6.4,6.4,0,0,1,.023-.953L152-4.422a6.767,6.767,0,0,1,.723-2.281,3.766,3.766,0,0,1,1.313-1.461A3.094,3.094,0,0,1,155.766-8.617Zm-1.6,4.547a6.326,6.326,0,0,0-.039,1q.078,1.375,1.109,1.4a1.885,1.885,0,0,0,1.617-.875l.6-3.359a1.248,1.248,0,0,0-1.219-.875,1.606,1.606,0,0,0-1.34.621A4.176,4.176,0,0,0,154.164-4.07ZM166.18-6.336a4.548,4.548,0,0,0-.742-.078,2.136,2.136,0,0,0-1.867.883L162.594,0h-2.2l1.469-8.453,2.07-.008-.2,1.031a2.325,2.325,0,0,1,1.969-1.2,3.214,3.214,0,0,1,.766.109ZM170.148.156a3.677,3.677,0,0,1-1.965-.543,3.292,3.292,0,0,1-1.277-1.469,4.093,4.093,0,0,1-.328-2.059l.023-.312a5.465,5.465,0,0,1,.719-2.266,4.341,4.341,0,0,1,1.547-1.59,3.827,3.827,0,0,1,2.094-.527,2.924,2.924,0,0,1,2.473,1.2,4.117,4.117,0,0,1,.637,2.962l-.125.962h-5.18a1.814,1.814,0,0,0,.4,1.313,1.521,1.521,0,0,0,1.172.508,2.7,2.7,0,0,0,2.109-.937l1.008,1.25A3.135,3.135,0,0,1,172.078-.23,4.5,4.5,0,0,1,170.148.156Zm.7-6.945a1.565,1.565,0,0,0-1.082.383,3.363,3.363,0,0,0-.848,1.383h3.031l.047-.2a2.071,2.071,0,0,0,.008-.594,1.134,1.134,0,0,0-.383-.707A1.2,1.2,0,0,0,170.852-6.789ZM179.5-2.383q.125-.625-.867-.906l-.711-.18q-2.523-.7-2.453-2.453a2.428,2.428,0,0,1,1.059-1.949,3.942,3.942,0,0,1,2.457-.738,3.536,3.536,0,0,1,2.313.758,2.5,2.5,0,0,1,.9,1.977l-2.187-.008a.963.963,0,0,0-1.078-1.1,1.552,1.552,0,0,0-.895.258,1.061,1.061,0,0,0-.465.7q-.117.625.945.883l.313.07a6.285,6.285,0,0,1,1.648.59,2.488,2.488,0,0,1,.879.824,2.04,2.04,0,0,1,.285,1.18,2.251,2.251,0,0,1-.52,1.406,3.18,3.18,0,0,1-1.359.93,4.736,4.736,0,0,1-1.816.3A3.568,3.568,0,0,1,175.6-.652a2.607,2.607,0,0,1-.953-2.051l2.078.016a1.142,1.142,0,0,0,1.3,1.227,1.845,1.845,0,0,0,1-.25A.987.987,0,0,0,179.5-2.383Zm8.055,0q.125-.625-.867-.906l-.711-.18q-2.523-.7-2.453-2.453a2.428,2.428,0,0,1,1.059-1.949,3.942,3.942,0,0,1,2.457-.738,3.536,3.536,0,0,1,2.313.758,2.5,2.5,0,0,1,.9,1.977l-2.187-.008a.963.963,0,0,0-1.078-1.1,1.552,1.552,0,0,0-.895.258,1.061,1.061,0,0,0-.465.7q-.117.625.945.883l.313.07a6.285,6.285,0,0,1,1.648.59,2.488,2.488,0,0,1,.879.824,2.04,2.04,0,0,1,.285,1.18,2.251,2.251,0,0,1-.52,1.406,3.18,3.18,0,0,1-1.359.93,4.736,4.736,0,0,1-1.816.3,3.568,3.568,0,0,1-2.344-.809A2.607,2.607,0,0,1,182.7-2.7l2.078.016a1.142,1.142,0,0,0,1.3,1.227,1.845,1.845,0,0,0,1-.25A.987.987,0,0,0,187.555-2.383Z" transform="translate(716.5 5479)" fill="#12263f"/>
        <path id="Trazado_836693" data-name="Trazado 836693" d="M3.3-6.687l1.055.008A2.055,2.055,0,0,0,5.7-7.125a1.737,1.737,0,0,0,.629-1.2,1.261,1.261,0,0,0-.242-1.012,1.23,1.23,0,0,0-.961-.395,1.642,1.642,0,0,0-1.1.348,1.494,1.494,0,0,0-.559.941l-2.2.016a2.952,2.952,0,0,1,1.184-2.254,4.165,4.165,0,0,1,2.707-.863,3.716,3.716,0,0,1,2.547.9,2.739,2.739,0,0,1,.852,2.3A3.078,3.078,0,0,1,6.484-5.8,2.381,2.381,0,0,1,7.605-4.754a2.826,2.826,0,0,1,.309,1.5,3.267,3.267,0,0,1-.633,1.813,3.7,3.7,0,0,1-1.547,1.2A4.962,4.962,0,0,1,3.641.156a3.557,3.557,0,0,1-2.484-.91A3.03,3.03,0,0,1,.211-3.117H2.4a1.412,1.412,0,0,0,.355,1.035,1.385,1.385,0,0,0,1.035.418A1.933,1.933,0,0,0,5.1-2.1a1.761,1.761,0,0,0,.641-1.179,1.428,1.428,0,0,0-.277-1.2,1.553,1.553,0,0,0-1.152-.439l-1.3-.008ZM16.57,0H8.992L9.25-1.641,13.289-5.43A8.947,8.947,0,0,0,14.938-7.32a2.214,2.214,0,0,0,.3-1.422,1.061,1.061,0,0,0-1.117-.992,1.6,1.6,0,0,0-1.254.523A2.453,2.453,0,0,0,12.258-7.8l-2.2.008a3.863,3.863,0,0,1,.633-1.93,3.882,3.882,0,0,1,1.52-1.348,4.405,4.405,0,0,1,2.051-.473,3.5,3.5,0,0,1,2.469.891,2.756,2.756,0,0,1,.781,2.289A5.546,5.546,0,0,1,15.609-5L14.484-3.93,12.156-1.836l4.7.016ZM30.063-4.2A6.061,6.061,0,0,1,28.844-1,3.033,3.033,0,0,1,26.3.164,2.357,2.357,0,0,1,24.266-.914L23.945,0H21.938l2.078-12h2.211l-.852,4.32a2.634,2.634,0,0,1,2.063-.93,2.385,2.385,0,0,1,1.926.879,3.89,3.89,0,0,1,.746,2.387A9.133,9.133,0,0,1,30.063-4.2Zm-2.187-.165A6.554,6.554,0,0,0,27.922-5.4Q27.836-6.766,26.8-6.789A1.833,1.833,0,0,0,25.18-5.9l-.609,3.37a1.258,1.258,0,0,0,1.266.878q1.625.047,1.992-2.367ZM33.078,0H30.859l1.469-8.453h2.219Zm-.492-10.6a1.1,1.1,0,0,1,.344-.867,1.209,1.209,0,0,1,.867-.344,1.215,1.215,0,0,1,.867.3,1.1,1.1,0,0,1,.383.828,1.132,1.132,0,0,1-.324.844,1.215,1.215,0,0,1-.887.375,1.235,1.235,0,0,1-.863-.3A1.091,1.091,0,0,1,32.586-10.6Zm6.828.07-.367,2.078h1.406L40.164-6.8H38.758l-.719,4.234a1.077,1.077,0,0,0,.063.609q.109.211.531.227.125.008.672-.039L39.148-.039a3.706,3.706,0,0,1-1.266.18,1.985,1.985,0,0,1-1.617-.68,2.456,2.456,0,0,1-.437-1.8L36.555-6.8h-1.2l.289-1.656h1.2l.359-2.078Zm5.75,8.148q.125-.625-.867-.906l-.711-.18q-2.523-.7-2.453-2.453a2.428,2.428,0,0,1,1.059-1.949,3.942,3.942,0,0,1,2.457-.738,3.536,3.536,0,0,1,2.313.758,2.5,2.5,0,0,1,.9,1.977l-2.187-.008a.963.963,0,0,0-1.078-1.1,1.552,1.552,0,0,0-.895.258,1.061,1.061,0,0,0-.465.7q-.117.625.945.883l.313.07a6.285,6.285,0,0,1,1.648.59,2.488,2.488,0,0,1,.879.824,2.04,2.04,0,0,1,.285,1.18,2.251,2.251,0,0,1-.52,1.406,3.18,3.18,0,0,1-1.359.93,4.736,4.736,0,0,1-1.816.3,3.568,3.568,0,0,1-2.344-.809A2.607,2.607,0,0,1,40.313-2.7l2.078.016a1.142,1.142,0,0,0,1.3,1.227,1.845,1.845,0,0,0,1-.25A.987.987,0,0,0,45.164-2.383ZM57.227-3.961H52.945l.313-1.82h4.289ZM62.445,0l1.977-11.375,3.266.008a4.473,4.473,0,0,1,2.066.52,3.905,3.905,0,0,1,1.488,1.426,4.883,4.883,0,0,1,.688,2.094,6.911,6.911,0,0,1-.016,1.391l-.055.414a6.5,6.5,0,0,1-1.965,4.012A5.558,5.558,0,0,1,65.961,0Zm3.938-9.477-1.32,7.594.953.008a3.127,3.127,0,0,0,2.535-1.156,5.976,5.976,0,0,0,1.1-3.492l.016-.25a3.151,3.151,0,0,0-.492-1.977,1.879,1.879,0,0,0-1.539-.719ZM76.484.156A3.677,3.677,0,0,1,74.52-.387a3.292,3.292,0,0,1-1.277-1.469,4.093,4.093,0,0,1-.328-2.059l.023-.312a5.465,5.465,0,0,1,.719-2.266A4.341,4.341,0,0,1,75.2-8.082,3.827,3.827,0,0,1,77.3-8.609a2.924,2.924,0,0,1,2.473,1.2,4.117,4.117,0,0,1,.637,2.962l-.125.962H75.1a1.814,1.814,0,0,0,.4,1.313,1.521,1.521,0,0,0,1.172.508A2.7,2.7,0,0,0,78.781-2.6l1.008,1.25A3.135,3.135,0,0,1,78.414-.23,4.5,4.5,0,0,1,76.484.156Zm.7-6.945a1.565,1.565,0,0,0-1.082.383,3.363,3.363,0,0,0-.848,1.383h3.031l.047-.2a2.071,2.071,0,0,0,.008-.594,1.134,1.134,0,0,0-.383-.707A1.2,1.2,0,0,0,77.188-6.789Zm8.648,4.406q.125-.625-.867-.906l-.711-.18q-2.523-.7-2.453-2.453a2.428,2.428,0,0,1,1.059-1.949,3.942,3.942,0,0,1,2.457-.738,3.536,3.536,0,0,1,2.313.758,2.5,2.5,0,0,1,.9,1.977l-2.187-.008a.963.963,0,0,0-1.078-1.1,1.551,1.551,0,0,0-.895.258,1.061,1.061,0,0,0-.465.7q-.117.625.945.883l.313.07a6.285,6.285,0,0,1,1.648.59,2.488,2.488,0,0,1,.879.824,2.04,2.04,0,0,1,.285,1.18,2.251,2.251,0,0,1-.52,1.406,3.18,3.18,0,0,1-1.359.93,4.736,4.736,0,0,1-1.816.3,3.568,3.568,0,0,1-2.344-.809A2.607,2.607,0,0,1,80.984-2.7l2.078.016a1.142,1.142,0,0,0,1.3,1.227,1.845,1.845,0,0,0,1-.25A.987.987,0,0,0,85.836-2.383Zm7.625-8.148-.367,2.078H94.5L94.211-6.8H92.8l-.719,4.234a1.077,1.077,0,0,0,.063.609q.109.211.531.227.125.008.672-.039L93.2-.039a3.706,3.706,0,0,1-1.266.18,1.985,1.985,0,0,1-1.617-.68,2.456,2.456,0,0,1-.437-1.8L90.6-6.8h-1.2L89.7-8.453h1.2l.359-2.078ZM96.641,0H94.422l1.469-8.453h2.219Zm-.492-10.6a1.1,1.1,0,0,1,.344-.867,1.209,1.209,0,0,1,.867-.344,1.215,1.215,0,0,1,.867.3,1.1,1.1,0,0,1,.383.828,1.132,1.132,0,0,1-.324.844,1.215,1.215,0,0,1-.887.375,1.235,1.235,0,0,1-.863-.3A1.091,1.091,0,0,1,96.148-10.6Zm5.844,2.141-.187,1a3.042,3.042,0,0,1,2.461-1.148,2.028,2.028,0,0,1,1.766.875,3.526,3.526,0,0,1,.414,2.359L105.555,0h-2.2l.906-5.4a2.528,2.528,0,0,0,.016-.555.9.9,0,0,0-1-.82,1.9,1.9,0,0,0-1.555.8L100.664,0h-2.2L99.93-8.453ZM112.172,0a2.281,2.281,0,0,1-.086-.766,2.863,2.863,0,0,1-2.156.922,2.594,2.594,0,0,1-1.84-.723,2.186,2.186,0,0,1-.684-1.746,2.527,2.527,0,0,1,1.16-2.121,5.266,5.266,0,0,1,2.965-.738l1.031.016.109-.508a1.764,1.764,0,0,0,.023-.492.846.846,0,0,0-.277-.574.955.955,0,0,0-.629-.215,1.345,1.345,0,0,0-.875.254,1.231,1.231,0,0,0-.461.777l-2.211.008a2.457,2.457,0,0,1,1.113-1.965,4.312,4.312,0,0,1,2.613-.738,3.117,3.117,0,0,1,2.25.855,2.5,2.5,0,0,1,.68,2.121l-.648,4.047-.039.5a2.412,2.412,0,0,0,.133.938L114.336,0Zm-1.7-1.555a2.017,2.017,0,0,0,1.664-.828l.273-1.461-.766-.008a2.139,2.139,0,0,0-1.758.742,1.292,1.292,0,0,0-.242.633.75.75,0,0,0,.176.668A.891.891,0,0,0,110.477-1.555Zm9.672-8.977-.367,2.078h1.406L120.9-6.8h-1.406l-.719,4.234a1.077,1.077,0,0,0,.063.609q.109.211.531.227.125.008.672-.039l-.156,1.727a3.706,3.706,0,0,1-1.266.18A1.985,1.985,0,0,1,117-.539a2.456,2.456,0,0,1-.437-1.8l.727-4.461h-1.2l.289-1.656h1.2l.359-2.078ZM123.328,0h-2.219l1.469-8.453H124.8Zm-.492-10.6a1.1,1.1,0,0,1,.344-.867,1.209,1.209,0,0,1,.867-.344,1.215,1.215,0,0,1,.867.3,1.1,1.1,0,0,1,.383.828,1.132,1.132,0,0,1-.324.844,1.215,1.215,0,0,1-.887.375,1.235,1.235,0,0,1-.863-.3A1.091,1.091,0,0,1,122.836-10.6Zm7.2,1.992a3.39,3.39,0,0,1,1.926.574A3.234,3.234,0,0,1,133.145-6.5a4.761,4.761,0,0,1,.27,2.176,5.143,5.143,0,0,1-1.4,3.262,3.96,3.96,0,0,1-3.02,1.215,3.38,3.38,0,0,1-1.906-.566A3.222,3.222,0,0,1,125.9-1.937a4.657,4.657,0,0,1-.273-2.156,5.3,5.3,0,0,1,1.422-3.328A3.878,3.878,0,0,1,130.031-8.609ZM127.8-3.294a1.95,1.95,0,0,0,.352,1.182,1.168,1.168,0,0,0,.945.449A1.712,1.712,0,0,0,130.7-2.6a4.646,4.646,0,0,0,.539-2.531,2.122,2.122,0,0,0-.363-1.2,1.149,1.149,0,0,0-.949-.464,1.715,1.715,0,0,0-1.574.924A4.6,4.6,0,0,0,127.8-3.294Zm9.727-5.167-.187,1A3.042,3.042,0,0,1,139.8-8.609a2.028,2.028,0,0,1,1.766.875,3.526,3.526,0,0,1,.414,2.359L141.094,0h-2.2l.906-5.4a2.527,2.527,0,0,0,.016-.555.9.9,0,0,0-1-.82,1.9,1.9,0,0,0-1.555.8L136.2,0H134l1.469-8.453ZM149.344,0h-2.289l1.969-11.375h2.289ZM154.5-4.008,153.8,0h-2.289l1.977-11.375,3.984.008a3.986,3.986,0,0,1,2.9,1.023,3.174,3.174,0,0,1,.922,2.672A3.592,3.592,0,0,1,159.895-5a5.075,5.075,0,0,1-3.238,1Zm.32-1.9,1.906.016a2.41,2.41,0,0,0,1.531-.477,1.918,1.918,0,0,0,.727-1.289,1.646,1.646,0,0,0-.262-1.3,1.418,1.418,0,0,0-1.121-.516l-2.156-.008ZM170.289,0a2.281,2.281,0,0,1-.086-.766,2.863,2.863,0,0,1-2.156.922,2.594,2.594,0,0,1-1.84-.723,2.186,2.186,0,0,1-.684-1.746,2.527,2.527,0,0,1,1.16-2.121,5.266,5.266,0,0,1,2.965-.738l1.031.016.109-.508a1.764,1.764,0,0,0,.023-.492.846.846,0,0,0-.277-.574.955.955,0,0,0-.629-.215,1.345,1.345,0,0,0-.875.254,1.231,1.231,0,0,0-.461.777l-2.211.008a2.457,2.457,0,0,1,1.113-1.965,4.312,4.312,0,0,1,2.613-.738,3.117,3.117,0,0,1,2.25.855,2.5,2.5,0,0,1,.68,2.121l-.648,4.047-.039.5a2.412,2.412,0,0,0,.133.938L172.453,0Zm-1.7-1.555a2.017,2.017,0,0,0,1.664-.828l.273-1.461-.766-.008a2.139,2.139,0,0,0-1.758.742,1.292,1.292,0,0,0-.242.633.75.75,0,0,0,.176.668A.891.891,0,0,0,168.594-1.555Zm9.4-7.062a2.4,2.4,0,0,1,1.906.945L180.727-12h2.211L180.859,0h-1.969l.125-.906a2.736,2.736,0,0,1-2.2,1.07A2.433,2.433,0,0,1,175.43-.25a2.607,2.607,0,0,1-.918-1.168,4.7,4.7,0,0,1-.355-1.7,6.4,6.4,0,0,1,.023-.953l.047-.352a6.767,6.767,0,0,1,.723-2.281,3.766,3.766,0,0,1,1.313-1.461A3.094,3.094,0,0,1,177.992-8.617Zm-1.6,4.547a6.326,6.326,0,0,0-.039,1q.078,1.375,1.109,1.4a1.885,1.885,0,0,0,1.617-.875l.6-3.359a1.248,1.248,0,0,0-1.219-.875,1.606,1.606,0,0,0-1.34.621A4.176,4.176,0,0,0,176.391-4.07Zm10.422-4.547a2.4,2.4,0,0,1,1.906.945L189.547-12h2.211L189.68,0h-1.969l.125-.906a2.736,2.736,0,0,1-2.2,1.07A2.433,2.433,0,0,1,184.25-.25a2.607,2.607,0,0,1-.918-1.168,4.7,4.7,0,0,1-.355-1.7A6.4,6.4,0,0,1,183-4.07l.047-.352A6.767,6.767,0,0,1,183.77-6.7a3.766,3.766,0,0,1,1.313-1.461A3.094,3.094,0,0,1,186.813-8.617Zm-1.6,4.547a6.326,6.326,0,0,0-.039,1q.078,1.375,1.109,1.4a1.885,1.885,0,0,0,1.617-.875l.6-3.359a1.248,1.248,0,0,0-1.219-.875,1.606,1.606,0,0,0-1.34.621A4.176,4.176,0,0,0,185.211-4.07Zm12.016-2.266a4.548,4.548,0,0,0-.742-.078,2.136,2.136,0,0,0-1.867.883L193.641,0h-2.2l1.469-8.453,2.07-.008-.2,1.031a2.325,2.325,0,0,1,1.969-1.2,3.214,3.214,0,0,1,.766.109ZM201.2.156a3.677,3.677,0,0,1-1.965-.543,3.292,3.292,0,0,1-1.277-1.469,4.093,4.093,0,0,1-.328-2.059l.023-.312a5.465,5.465,0,0,1,.719-2.266,4.341,4.341,0,0,1,1.547-1.59,3.827,3.827,0,0,1,2.094-.527,2.924,2.924,0,0,1,2.473,1.2,4.117,4.117,0,0,1,.637,2.962l-.125.962h-5.18a1.814,1.814,0,0,0,.4,1.313,1.521,1.521,0,0,0,1.172.508,2.7,2.7,0,0,0,2.109-.937l1.008,1.25A3.135,3.135,0,0,1,203.125-.23,4.5,4.5,0,0,1,201.2.156Zm.7-6.945a1.565,1.565,0,0,0-1.082.383,3.363,3.363,0,0,0-.848,1.383H203l.047-.2a2.071,2.071,0,0,0,.008-.594,1.134,1.134,0,0,0-.383-.707A1.2,1.2,0,0,0,201.9-6.789Zm8.648,4.406q.125-.625-.867-.906l-.711-.18q-2.523-.7-2.453-2.453a2.428,2.428,0,0,1,1.059-1.949,3.942,3.942,0,0,1,2.457-.738,3.536,3.536,0,0,1,2.313.758,2.5,2.5,0,0,1,.9,1.977l-2.187-.008a.963.963,0,0,0-1.078-1.1,1.552,1.552,0,0,0-.895.258,1.061,1.061,0,0,0-.465.7q-.117.625.945.883l.313.07a6.285,6.285,0,0,1,1.648.59,2.488,2.488,0,0,1,.879.824,2.04,2.04,0,0,1,.285,1.18,2.251,2.251,0,0,1-.52,1.406,3.18,3.18,0,0,1-1.359.93,4.736,4.736,0,0,1-1.816.3,3.568,3.568,0,0,1-2.344-.809A2.607,2.607,0,0,1,205.7-2.7l2.078.016a1.142,1.142,0,0,0,1.3,1.227,1.845,1.845,0,0,0,1-.25A.987.987,0,0,0,210.547-2.383Zm8.055,0q.125-.625-.867-.906l-.711-.18q-2.523-.7-2.453-2.453a2.428,2.428,0,0,1,1.059-1.949,3.942,3.942,0,0,1,2.457-.738,3.536,3.536,0,0,1,2.313.758,2.5,2.5,0,0,1,.9,1.977l-2.187-.008a.963.963,0,0,0-1.078-1.1,1.552,1.552,0,0,0-.895.258,1.061,1.061,0,0,0-.465.7q-.117.625.945.883l.313.07a6.285,6.285,0,0,1,1.648.59,2.488,2.488,0,0,1,.879.824,2.04,2.04,0,0,1,.285,1.18,2.251,2.251,0,0,1-.52,1.406,3.18,3.18,0,0,1-1.359.93,4.736,4.736,0,0,1-1.816.3A3.568,3.568,0,0,1,214.7-.652,2.607,2.607,0,0,1,213.75-2.7l2.078.016a1.142,1.142,0,0,0,1.3,1.227,1.845,1.845,0,0,0,1-.25A.987.987,0,0,0,218.6-2.383Z" transform="translate(700.5 5530)" fill="#12263f"/>
        <path id="Trazado_836694" data-name="Trazado 836694" d="M4.734.156a4.008,4.008,0,0,1-2-.535A3.612,3.612,0,0,1,1.371-1.855,5.468,5.468,0,0,1,.789-4.07,8.9,8.9,0,0,1,1.063-6.8,7.3,7.3,0,0,1,2.219-9.359,5.256,5.256,0,0,1,4.09-11.008a4.844,4.844,0,0,1,2.324-.523,3.966,3.966,0,0,1,2.008.543A3.587,3.587,0,0,1,9.773-9.5a5.532,5.532,0,0,1,.563,2.207,9.188,9.188,0,0,1-.3,2.828A7.177,7.177,0,0,1,8.875-1.945,5.216,5.216,0,0,1,7.027-.352,4.83,4.83,0,0,1,4.734.156ZM7.977-6l.063-.742a3.626,3.626,0,0,0-.371-2.109A1.567,1.567,0,0,0,6.3-9.6a2.473,2.473,0,0,0-2.27,1.266,7.455,7.455,0,0,0-.949,3.672,3.762,3.762,0,0,0,.367,2.129,1.563,1.563,0,0,0,1.383.777,2.345,2.345,0,0,0,2.031-.957A5.79,5.79,0,0,0,7.922-5.578ZM18.938-4.2a6.981,6.981,0,0,1-.7,2.359,3.826,3.826,0,0,1-1.32,1.531,3.058,3.058,0,0,1-1.75.477A2.44,2.44,0,0,1,13.234-.75l-.773,4h-2.2l2.023-11.7,2.031-.008-.148.852a2.7,2.7,0,0,1,2.156-1,2.4,2.4,0,0,1,1.93.9,3.922,3.922,0,0,1,.734,2.363A9.133,9.133,0,0,1,18.938-4.2Zm-2.187-.16.047-.751A2.089,2.089,0,0,0,16.52-6.32a1,1,0,0,0-.855-.462,1.818,1.818,0,0,0-1.586.814l-.633,3.49a1.233,1.233,0,0,0,1.242.822,1.59,1.59,0,0,0,1.328-.618A4.234,4.234,0,0,0,16.75-4.364ZM24.1-10.531l-.367,2.078h1.406L24.852-6.8H23.445l-.719,4.234a1.077,1.077,0,0,0,.063.609q.109.211.531.227.125.008.672-.039L23.836-.039a3.706,3.706,0,0,1-1.266.18,1.985,1.985,0,0,1-1.617-.68,2.456,2.456,0,0,1-.437-1.8L21.242-6.8h-1.2l.289-1.656h1.2l.359-2.078ZM27.281,0H25.063l1.469-8.453H28.75Zm-.492-10.6a1.1,1.1,0,0,1,.344-.867A1.209,1.209,0,0,1,28-11.812a1.215,1.215,0,0,1,.867.3,1.1,1.1,0,0,1,.383.828,1.132,1.132,0,0,1-.324.844,1.215,1.215,0,0,1-.887.375,1.235,1.235,0,0,1-.863-.3A1.091,1.091,0,0,1,26.789-10.6Zm7.2,1.992a3.39,3.39,0,0,1,1.926.574A3.234,3.234,0,0,1,37.1-6.5a4.762,4.762,0,0,1,.27,2.176,5.143,5.143,0,0,1-1.4,3.262A3.96,3.96,0,0,1,32.945.156,3.38,3.38,0,0,1,31.039-.41a3.222,3.222,0,0,1-1.187-1.527,4.657,4.657,0,0,1-.273-2.156A5.3,5.3,0,0,1,31-7.422,3.878,3.878,0,0,1,33.984-8.609ZM31.758-3.294a1.95,1.95,0,0,0,.352,1.182,1.168,1.168,0,0,0,.945.449A1.712,1.712,0,0,0,34.648-2.6a4.647,4.647,0,0,0,.539-2.531,2.122,2.122,0,0,0-.363-1.2,1.149,1.149,0,0,0-.949-.464,1.715,1.715,0,0,0-1.574.924A4.6,4.6,0,0,0,31.758-3.294Zm9.727-5.167-.187,1a3.042,3.042,0,0,1,2.461-1.148,2.028,2.028,0,0,1,1.766.875,3.526,3.526,0,0,1,.414,2.359L45.047,0h-2.2l.906-5.4a2.528,2.528,0,0,0,.016-.555.9.9,0,0,0-1-.82,1.9,1.9,0,0,0-1.555.8L40.156,0h-2.2l1.469-8.453ZM51.672-2.383q.125-.625-.867-.906l-.711-.18q-2.523-.7-2.453-2.453A2.428,2.428,0,0,1,48.7-7.871a3.942,3.942,0,0,1,2.457-.738,3.536,3.536,0,0,1,2.313.758,2.5,2.5,0,0,1,.9,1.977L52.18-5.883a.963.963,0,0,0-1.078-1.1,1.552,1.552,0,0,0-.895.258,1.061,1.061,0,0,0-.465.7q-.117.625.945.883l.313.07a6.285,6.285,0,0,1,1.648.59,2.488,2.488,0,0,1,.879.824,2.04,2.04,0,0,1,.285,1.18,2.251,2.251,0,0,1-.52,1.406,3.18,3.18,0,0,1-1.359.93,4.736,4.736,0,0,1-1.816.3,3.568,3.568,0,0,1-2.344-.809A2.607,2.607,0,0,1,46.82-2.7l2.078.016a1.142,1.142,0,0,0,1.3,1.227,1.845,1.845,0,0,0,1-.25A.987.987,0,0,0,51.672-2.383ZM59.7-4.594a13.2,13.2,0,0,1,1.668-4.988,7.175,7.175,0,0,1,3.246-3.066l.375,1.258Q62.32-9.352,61.609-4.836a19.376,19.376,0,0,0-.258,2.75q-.039,3.211,1.469,4.461l-.492,1.18A5.13,5.13,0,0,1,59.969.313,10.87,10.87,0,0,1,59.57-3a13.121,13.121,0,0,1,.1-1.406ZM66.625,0H64.406l1.469-8.453h2.219Zm-.492-10.6a1.1,1.1,0,0,1,.344-.867,1.209,1.209,0,0,1,.867-.344,1.215,1.215,0,0,1,.867.3,1.1,1.1,0,0,1,.383.828,1.132,1.132,0,0,1-.324.844,1.215,1.215,0,0,1-.887.375,1.235,1.235,0,0,1-.863-.3A1.091,1.091,0,0,1,66.133-10.6ZM69.086,0l1.18-6.8H69.047l.289-1.648,1.219-.008.109-.844a3.332,3.332,0,0,1,1.1-2.121,3.334,3.334,0,0,1,2.289-.754,7.33,7.33,0,0,1,1.2.163l-.2,1.751a2.732,2.732,0,0,0-.648-.094,1.615,1.615,0,0,0-1,.3,1.355,1.355,0,0,0-.52.918l-.117.69H74.4L74.109-6.8H72.484L71.3,0ZM82.969,0a2.281,2.281,0,0,1-.086-.766,2.863,2.863,0,0,1-2.156.922,2.594,2.594,0,0,1-1.84-.723A2.186,2.186,0,0,1,78.2-2.312a2.527,2.527,0,0,1,1.16-2.121,5.266,5.266,0,0,1,2.965-.738l1.031.016.109-.508a1.764,1.764,0,0,0,.023-.492.846.846,0,0,0-.277-.574.955.955,0,0,0-.629-.215,1.345,1.345,0,0,0-.875.254,1.231,1.231,0,0,0-.461.777l-2.211.008a2.457,2.457,0,0,1,1.113-1.965,4.312,4.312,0,0,1,2.613-.738,3.117,3.117,0,0,1,2.25.855,2.5,2.5,0,0,1,.68,2.121l-.648,4.047-.039.5a2.412,2.412,0,0,0,.133.938L85.133,0Zm-1.7-1.555a2.017,2.017,0,0,0,1.664-.828l.273-1.461-.766-.008a2.139,2.139,0,0,0-1.758.742,1.292,1.292,0,0,0-.242.633.75.75,0,0,0,.176.668A.891.891,0,0,0,81.273-1.555Zm8.688-6.906-.187,1a3.042,3.042,0,0,1,2.461-1.148A2.028,2.028,0,0,1,94-7.734a3.526,3.526,0,0,1,.414,2.359L93.523,0h-2.2l.906-5.4a2.528,2.528,0,0,0,.016-.555.9.9,0,0,0-1-.82,1.9,1.9,0,0,0-1.555.8L88.633,0h-2.2L87.9-8.453Zm8.875,5.242,2.414-5.234H103.7L98.758,1.273a4.231,4.231,0,0,1-1.246,1.641,2.723,2.723,0,0,1-1.652.523A5.035,5.035,0,0,1,94.8,3.273l.164-1.719.3.016A1.651,1.651,0,0,0,96.844.781l.484-.9L95.945-8.453h2.281Zm3.82,6.8-.375-1.234q2.68-2.07,3.383-6.625a19.275,19.275,0,0,0,.242-2.7q.039-3.211-1.453-4.469l.492-1.18a4.565,4.565,0,0,1,1.582,1.457,6.725,6.725,0,0,1,.977,2.309,11.6,11.6,0,0,1,.3,2.781,13.865,13.865,0,0,1-.75,4.223,11.039,11.039,0,0,1-1.84,3.441A6.68,6.68,0,0,1,102.656,3.578Z" transform="translate(751.5 5580)" fill="#12263f"/>
        <path id="Trazado_836695" data-name="Trazado 836695" d="M.164,0,2.141-11.375l3.266.008a4.473,4.473,0,0,1,2.066.52A3.905,3.905,0,0,1,8.961-9.422a4.883,4.883,0,0,1,.688,2.094,6.911,6.911,0,0,1-.016,1.391l-.055.414A6.5,6.5,0,0,1,7.613-1.512,5.558,5.558,0,0,1,3.68,0ZM4.1-9.477,2.781-1.883l.953.008A3.127,3.127,0,0,0,6.27-3.031a5.976,5.976,0,0,0,1.1-3.492l.016-.25A3.151,3.151,0,0,0,6.891-8.75a1.879,1.879,0,0,0-1.539-.719ZM15.078,0a2.281,2.281,0,0,1-.086-.766,2.863,2.863,0,0,1-2.156.922A2.594,2.594,0,0,1,11-.566a2.186,2.186,0,0,1-.684-1.746,2.527,2.527,0,0,1,1.16-2.121,5.266,5.266,0,0,1,2.965-.738l1.031.016.109-.508a1.764,1.764,0,0,0,.023-.492.846.846,0,0,0-.277-.574.955.955,0,0,0-.629-.215,1.345,1.345,0,0,0-.875.254,1.231,1.231,0,0,0-.461.777l-2.211.008a2.457,2.457,0,0,1,1.113-1.965,4.312,4.312,0,0,1,2.613-.738,3.117,3.117,0,0,1,2.25.855,2.5,2.5,0,0,1,.68,2.121l-.648,4.047-.039.5a2.412,2.412,0,0,0,.133.938L17.242,0Zm-1.7-1.555a2.017,2.017,0,0,0,1.664-.828l.273-1.461-.766-.008a2.139,2.139,0,0,0-1.758.742,1.292,1.292,0,0,0-.242.633.75.75,0,0,0,.176.668A.891.891,0,0,0,13.383-1.555Zm9.672-8.977-.367,2.078h1.406L23.8-6.8H22.4L21.68-2.562a1.077,1.077,0,0,0,.063.609q.109.211.531.227.125.008.672-.039L22.789-.039a3.706,3.706,0,0,1-1.266.18,1.985,1.985,0,0,1-1.617-.68,2.456,2.456,0,0,1-.437-1.8L20.2-6.8H19l.289-1.656h1.2l.359-2.078ZM28.8,0a2.281,2.281,0,0,1-.086-.766,2.863,2.863,0,0,1-2.156.922,2.594,2.594,0,0,1-1.84-.723,2.186,2.186,0,0,1-.684-1.746,2.527,2.527,0,0,1,1.16-2.121,5.266,5.266,0,0,1,2.965-.738l1.031.016.109-.508a1.764,1.764,0,0,0,.023-.492.846.846,0,0,0-.277-.574.955.955,0,0,0-.629-.215,1.345,1.345,0,0,0-.875.254,1.231,1.231,0,0,0-.461.777l-2.211.008A2.457,2.457,0,0,1,25.98-7.871a4.312,4.312,0,0,1,2.613-.738,3.117,3.117,0,0,1,2.25.855,2.5,2.5,0,0,1,.68,2.121l-.648,4.047-.039.5a2.412,2.412,0,0,0,.133.938L30.961,0ZM27.1-1.555a2.017,2.017,0,0,0,1.664-.828l.273-1.461-.766-.008a2.139,2.139,0,0,0-1.758.742,1.292,1.292,0,0,0-.242.633.75.75,0,0,0,.176.668A.891.891,0,0,0,27.1-1.555Z" transform="translate(787.5 5629)" fill="#12263f"/>
        <path id="Trazado_836666" data-name="Trazado 836666" d="M-5743-6422.092v-12.033h577v12.033" transform="translate(6254.5 11722.092)" fill="none" stroke="#1e5af9" stroke-width="2"/>
        <path id="Trazado_836696" data-name="Trazado 836696" d="M3.07-6.687h1.2a1.7,1.7,0,0,0,1.273-.43,1.574,1.574,0,0,0,.414-1.141,1.392,1.392,0,0,0-.41-1.07,1.59,1.59,0,0,0-1.129-.383,1.666,1.666,0,0,0-1.086.355A1.137,1.137,0,0,0,2.9-8.43H.641a2.777,2.777,0,0,1,.48-1.6,3.2,3.2,0,0,1,1.344-1.105,4.485,4.485,0,0,1,1.9-.4,4.253,4.253,0,0,1,2.828.863A2.945,2.945,0,0,1,8.219-8.289a2.394,2.394,0,0,1-.477,1.438,3.1,3.1,0,0,1-1.25,1.008A2.826,2.826,0,0,1,7.926-4.812,2.8,2.8,0,0,1,8.4-3.187,2.994,2.994,0,0,1,7.293-.758,4.445,4.445,0,0,1,4.367.156a4.214,4.214,0,0,1-2.785-.9A2.934,2.934,0,0,1,.5-3.117H2.758a1.308,1.308,0,0,0,.48,1.047,1.771,1.771,0,0,0,1.184.406A1.779,1.779,0,0,0,5.684-2.09a1.47,1.47,0,0,0,.457-1.129q0-1.7-1.875-1.7H3.07ZM17.75,0h-7.8V-1.547l3.68-3.922a9.078,9.078,0,0,0,1.121-1.445,2.322,2.322,0,0,0,.363-1.172,1.738,1.738,0,0,0-.383-1.191,1.382,1.382,0,0,0-1.094-.434,1.49,1.49,0,0,0-1.207.527A2.089,2.089,0,0,0,11.992-7.8H9.727a3.729,3.729,0,0,1,.5-1.9,3.5,3.5,0,0,1,1.4-1.348,4.262,4.262,0,0,1,2.055-.488,4.036,4.036,0,0,1,2.73.844A2.985,2.985,0,0,1,17.383-8.3a3.825,3.825,0,0,1-.437,1.719,9.551,9.551,0,0,1-1.5,2.039L12.859-1.82H17.75ZM30.492-4.2A6.061,6.061,0,0,1,29.273-1,3.033,3.033,0,0,1,26.727.164,2.357,2.357,0,0,1,24.7-.914L24.375,0H22.367l2.078-12h2.211L25.8-7.68a2.634,2.634,0,0,1,2.063-.93,2.385,2.385,0,0,1,1.926.879,3.89,3.89,0,0,1,.746,2.387A9.133,9.133,0,0,1,30.492-4.2ZM28.3-4.368A6.554,6.554,0,0,0,28.352-5.4q-.086-1.364-1.125-1.387a1.833,1.833,0,0,0-1.617.885L25-2.534a1.258,1.258,0,0,0,1.266.878q1.625.047,1.992-2.367ZM33.508,0H31.289l1.469-8.453h2.219Zm-.492-10.6a1.1,1.1,0,0,1,.344-.867,1.209,1.209,0,0,1,.867-.344,1.215,1.215,0,0,1,.867.3,1.1,1.1,0,0,1,.383.828,1.132,1.132,0,0,1-.324.844,1.215,1.215,0,0,1-.887.375,1.235,1.235,0,0,1-.863-.3A1.091,1.091,0,0,1,33.016-10.6Zm6.828.07-.367,2.078h1.406L40.594-6.8H39.188l-.719,4.234a1.077,1.077,0,0,0,.063.609q.109.211.531.227.125.008.672-.039L39.578-.039a3.706,3.706,0,0,1-1.266.18A1.985,1.985,0,0,1,36.7-.539a2.456,2.456,0,0,1-.437-1.8L36.984-6.8h-1.2l.289-1.656h1.2l.359-2.078Zm5.75,8.148q.125-.625-.867-.906l-.711-.18q-2.523-.7-2.453-2.453a2.428,2.428,0,0,1,1.059-1.949,3.942,3.942,0,0,1,2.457-.738,3.536,3.536,0,0,1,2.313.758,2.5,2.5,0,0,1,.9,1.977L46.1-5.883a.963.963,0,0,0-1.078-1.1,1.552,1.552,0,0,0-.895.258,1.061,1.061,0,0,0-.465.7q-.117.625.945.883l.313.07a6.285,6.285,0,0,1,1.648.59,2.488,2.488,0,0,1,.879.824,2.04,2.04,0,0,1,.285,1.18,2.251,2.251,0,0,1-.52,1.406,3.18,3.18,0,0,1-1.359.93,4.736,4.736,0,0,1-1.816.3A3.568,3.568,0,0,1,41.7-.652,2.607,2.607,0,0,1,40.742-2.7l2.078.016a1.142,1.142,0,0,0,1.3,1.227,1.845,1.845,0,0,0,1-.25A.987.987,0,0,0,45.594-2.383Z" transform="translate(776 5275.967)" fill="#12263f"/>
      </g>
    </g>
  </g>
</svg>
