<svg xmlns="http://www.w3.org/2000/svg" xmlns:xlink="http://www.w3.org/1999/xlink" width="88" height="87" viewBox="0 0 88 87">
  <defs>
    <clipPath id="clip-path">
      <path id="path3861" d="M0-682.665H49.109v49.109H0Z" transform="translate(0 682.665)"/>
    </clipPath>
  </defs>
  <g id="Grupo_1094263" data-name="Grupo 1094263" transform="translate(-180 -17687)">
    <g id="Grupo_1094262" data-name="Grupo 1094262" transform="translate(-437 17190)">
      <rect id="Rectángulo_387077" data-name="Rectángulo 387077" width="88" height="87" rx="8" transform="translate(617 497)" fill="#fdb6c7"/>
    </g>
    <g id="g3855" transform="translate(199.445 18388.611)">
      <g id="g3857" transform="translate(0 -682.665)">
        <g id="g3859" transform="translate(0 0)" clip-path="url(#clip-path)">
          <g id="g3865" transform="translate(0.719 6.474)">
            <path id="path3867" d="M-553.124-540.75H-591.2a4.8,4.8,0,0,1-4.8-4.8v-33.283l23.835-3.837,23.835,3.837v33.283a4.8,4.8,0,0,1-4.8,4.8" transform="translate(595.999 582.665)" fill="#f9f5f3"/>
          </g>
          <g id="g3869" transform="translate(0.719 0.719)">
            <path id="path3871" d="M-615-123.741h-47.67v-4.8a4.8,4.8,0,0,1,4.8-4.8h38.079a4.8,4.8,0,0,1,4.8,4.8Z" transform="translate(662.665 133.333)" fill="#01c3fd"/>
          </g>
          <g id="g3873" transform="translate(0.719 9.313)">
            <path id="path3875" d="M-79.953-442.252v-34.28l-6.2,1v33.283a4.8,4.8,0,0,0,4.8,4.8h6.2a4.8,4.8,0,0,1-4.8-4.8" transform="translate(86.15 476.532)" fill="#e7e7ef"/>
          </g>
          <g id="g3877" transform="translate(0.719 0.719)">
            <path id="path3879" d="M-141.824,0h-6.2a4.8,4.8,0,0,0-4.8,4.8v4.8h6.2V4.8a4.8,4.8,0,0,1,4.8-4.8" transform="translate(152.817)" fill="#05b5ea"/>
          </g>
          <g id="g3889" transform="translate(9.28 5.515)">
            <path id="path3891" d="M0,0H19.039" fill="none" stroke="#000" stroke-linecap="round" stroke-linejoin="round" stroke-miterlimit="10" stroke-width="1"/>
          </g>
          <g id="g3893" transform="translate(38.39 4.796)">
            <path id="path3895" d="M-18.561-9.281a.719.719,0,0,1-.719.719A.719.719,0,0,1-20-9.281.719.719,0,0,1-19.281-10a.719.719,0,0,1,.719.719" transform="translate(20 10)"/>
          </g>
          <g id="g3897" transform="translate(33.115 4.796)">
            <path id="path3899" d="M-18.561-9.281a.719.719,0,0,1-.719.719A.719.719,0,0,1-20-9.281.719.719,0,0,1-19.281-10a.719.719,0,0,1,.719.719" transform="translate(20 10)"/>
          </g>
          <g id="g3901" transform="translate(16.083 17.257)">
            <path id="path3903" d="M0,0H1.97V9.215" fill="none" stroke="#000" stroke-linecap="round" stroke-linejoin="round" stroke-miterlimit="10" stroke-width="1"/>
          </g>
          <g id="g3905" transform="translate(40.222 17.257)">
            <path id="path3907" d="M0,0H1.97V9.215" fill="none" stroke="#000" stroke-linecap="round" stroke-linejoin="round" stroke-miterlimit="10" stroke-width="1"/>
          </g>
          <g id="g3909" transform="translate(6.917 16.881)">
            <path id="path3911" d="M-68.759-89.361A2.665,2.665,0,0,1-71.424-86.7a2.665,2.665,0,0,1-2.665-2.665v-4.262a2.665,2.665,0,0,1,2.665-2.665,2.665,2.665,0,0,1,2.665,2.665Z" transform="translate(74.089 96.288)" fill="none" stroke="#000" stroke-linecap="round" stroke-linejoin="round" stroke-miterlimit="10" stroke-width="1"/>
          </g>
          <g id="g3913" transform="translate(21.89 16.881)">
            <path id="path3915" d="M-68.759-89.361A2.665,2.665,0,0,1-71.424-86.7a2.665,2.665,0,0,1-2.665-2.665v-4.262a2.665,2.665,0,0,1,2.665-2.665,2.665,2.665,0,0,1,2.665,2.665Z" transform="translate(74.089 96.288)" fill="none" stroke="#000" stroke-linecap="round" stroke-linejoin="round" stroke-miterlimit="10" stroke-width="1"/>
          </g>
          <g id="g3917" transform="translate(31.056 16.881)">
            <path id="path3919" d="M-68.759-89.361A2.665,2.665,0,0,1-71.424-86.7a2.665,2.665,0,0,1-2.665-2.665v-4.262a2.665,2.665,0,0,1,2.665-2.665,2.665,2.665,0,0,1,2.665,2.665Z" transform="translate(74.089 96.288)" fill="none" stroke="#000" stroke-linecap="round" stroke-linejoin="round" stroke-miterlimit="10" stroke-width="1"/>
          </g>
          <g id="g3921" transform="translate(21.889 32.604)">
            <path id="path3923" d="M0,0H1.97V9.215" fill="none" stroke="#000" stroke-linecap="round" stroke-linejoin="round" stroke-miterlimit="10" stroke-width="1"/>
          </g>
          <g id="g3925" transform="translate(16.083 32.604)">
            <path id="path3927" d="M0,0H1.97V9.215" fill="none" stroke="#000" stroke-linecap="round" stroke-linejoin="round" stroke-miterlimit="10" stroke-width="1"/>
          </g>
          <g id="g3929" transform="translate(6.917 32.228)">
            <path id="path3931" d="M-68.759-80.432v.692a2.665,2.665,0,0,1-2.665,2.665,2.665,2.665,0,0,1-2.665-2.665V-84a2.665,2.665,0,0,1,2.665-2.665A2.665,2.665,0,0,1-68.759-84v.692" transform="translate(74.089 86.666)" fill="none" stroke="#000" stroke-linecap="round" stroke-linejoin="round" stroke-miterlimit="10" stroke-width="1"/>
          </g>
          <g id="g3957" transform="translate(0.719 0.719)">
            <path id="path3959" d="M-553.124,0H-591.2A4.8,4.8,0,0,0-596,4.8V42.874a4.8,4.8,0,0,0,4.8,4.8h38.079a4.8,4.8,0,0,0,4.8-4.8V4.8A4.8,4.8,0,0,0-553.124,0Z" transform="translate(595.999)" fill="none" stroke="#000" stroke-linecap="round" stroke-linejoin="round" stroke-miterlimit="10" stroke-width="1"/>
          </g>
          <g id="g3965" transform="translate(35.273 10.311)">
            <path id="path3967" d="M0,0H12.925" fill="none" stroke="#000" stroke-linecap="round" stroke-linejoin="round" stroke-miterlimit="10" stroke-width="1"/>
          </g>
          <g id="g3969" transform="translate(0.911 10.311)">
            <path id="path3971" d="M0,0H31.484" fill="none" stroke="#000" stroke-linecap="round" stroke-linejoin="round" stroke-miterlimit="10" stroke-width="1"/>
          </g>
        </g>
      </g>
    </g>
  </g>
</svg>
