<svg id="Grupo_1094265" data-name="Grupo 1094265" xmlns="http://www.w3.org/2000/svg" xmlns:xlink="http://www.w3.org/1999/xlink" width="243.443" height="245.75" viewBox="0 0 243.443 245.75">
  <defs>
    <clipPath id="clip-path">
      <rect id="Rectángulo_387468" data-name="Rectángulo 387468" width="243.443" height="245.75" fill="none"/>
    </clipPath>
  </defs>
  <g id="Grupo_1094264" data-name="Grupo 1094264" clip-path="url(#clip-path)">
    <path id="Trazado_836309" data-name="Trazado 836309" d="M783.633,212.3a4.628,4.628,0,0,1-1.091-.131,4.572,4.572,0,0,1-2.845-2.075l-18.2-29.818a4.607,4.607,0,0,1,1.53-6.325l13.466-8.219a4.606,4.606,0,0,1,6.325,1.531l18.2,29.818a4.606,4.606,0,0,1-1.53,6.325l-13.466,8.219a4.571,4.571,0,0,1-2.389.676m-4.747-45.926a3.266,3.266,0,0,0-1.707.481l-13.466,8.219a3.288,3.288,0,0,0-1.093,4.518l18.2,29.818a3.29,3.29,0,0,0,4.518,1.093l13.466-8.219a3.291,3.291,0,0,0,1.093-4.518l-18.2-29.818a3.289,3.289,0,0,0-2.811-1.574" transform="translate(-562.777 -122.094)" fill="#1a171b"/>
    <path id="Trazado_836310" data-name="Trazado 836310" d="M789.377,217.157a.513.513,0,0,1-.438-.245l-16.315-26.73a.513.513,0,0,1,.17-.7l16.15-9.857a.512.512,0,0,1,.7.17l16.315,26.731a.513.513,0,0,1-.17.7l-16.15,9.857a.508.508,0,0,1-.266.075m-15.936-27.151,16.027,26.259,15.679-9.569-16.027-26.259Zm31.941,16.545Z" transform="translate(-571.449 -132.808)" fill="#1a171b"/>
    <path id="Trazado_836311" data-name="Trazado 836311" d="M797.08,190.509a1.422,1.422,0,0,1-.331-.04,1.391,1.391,0,1,1,.331.04m0-2a.608.608,0,1,0,.519.291h0a.6.6,0,0,0-.375-.274.618.618,0,0,0-.144-.017" transform="translate(-588.56 -138.852)" fill="#1a171b"/>
    <path id="Trazado_836312" data-name="Trazado 836312" d="M849.2,318.3a.394.394,0,0,1-.337-.189l-1.174-1.924a.394.394,0,0,1,.131-.542l4.809-2.935a.394.394,0,0,1,.542.131l1.174,1.924a.394.394,0,0,1-.131.542l-4.809,2.935a.393.393,0,0,1-.205.058m-.632-2.187.763,1.251,4.136-2.524-.763-1.251Z" transform="translate(-626.989 -231.27)" fill="#1a171b"/>
    <path id="Trazado_836313" data-name="Trazado 836313" d="M877.532,301.013a.393.393,0,0,1-.337-.189l-1.174-1.924a.394.394,0,0,1,.131-.542l4.809-2.935a.394.394,0,0,1,.542.131l1.174,1.924a.394.394,0,0,1-.131.542l-4.809,2.935a.393.393,0,0,1-.205.057m-.632-2.187.763,1.251,4.136-2.524-.763-1.25Z" transform="translate(-647.944 -218.479)" fill="#1a171b"/>
    <path id="Trazado_836314" data-name="Trazado 836314" d="M475.407,779.985h-1.553a.39.39,0,0,1,0-.781h1.163v-.686a.39.39,0,1,1,.781,0v1.076a.39.39,0,0,1-.39.391m-4.708,0h-2.629a.39.39,0,0,1,0-.781H470.7a.39.39,0,1,1,0,.781m-5.785,0h-2.629a.39.39,0,1,1,0-.781h2.629a.39.39,0,0,1,0,.781m-5.785,0H456.5a.39.39,0,1,1,0-.781h2.629a.39.39,0,1,1,0,.781m-5.784,0h-2.63a.39.39,0,0,1,0-.781h2.63a.39.39,0,0,1,0,.781m-5.785,0h-2.629a.39.39,0,1,1,0-.781h2.629a.39.39,0,1,1,0,.781m-5.785,0h-.521a.39.39,0,1,1,0-.781h.521a.39.39,0,1,1,0,.781m33.631-4.231a.391.391,0,0,1-.39-.391v-2.629a.39.39,0,1,1,.781,0v2.629a.391.391,0,0,1-.39.391m-9.63-2.766h-2.629a.39.39,0,0,1,0-.781h2.629a.39.39,0,1,1,0,.781m-5.784,0h-2.63a.39.39,0,1,1,0-.781h2.63a.39.39,0,0,1,0,.781m-5.785,0h-2.63a.39.39,0,1,1,0-.781h2.63a.39.39,0,1,1,0,.781m-5.785,0h-2.629a.39.39,0,1,1,0-.781h2.629a.39.39,0,1,1,0,.781m19.931-.578a.391.391,0,0,1-.39-.39V769.39a.39.39,0,0,1,.781,0v2.629a.391.391,0,0,1-.39.39m7.053-2.44a.391.391,0,0,1-.39-.39v-2.629a.39.39,0,0,1,.781,0v2.629a.391.391,0,0,1-.39.39m-7.053-3.345a.39.39,0,0,1-.39-.39v-2.629a.39.39,0,1,1,.781,0v2.629a.39.39,0,0,1-.39.39m7.053-2.44a.39.39,0,0,1-.39-.39v-2.629a.39.39,0,1,1,.781,0v2.629a.39.39,0,0,1-.39.39m-7.053-3.344a.391.391,0,0,1-.39-.391v-2.63a.39.39,0,1,1,.781,0v2.63a.391.391,0,0,1-.39.391m7.053-2.44a.391.391,0,0,1-.39-.391V755.38a.39.39,0,1,1,.781,0v2.629a.391.391,0,0,1-.39.391m-7.053-3.345a.391.391,0,0,1-.39-.39v-2.629a.39.39,0,0,1,.781,0v2.629a.391.391,0,0,1-.39.39m7.053-2.44a.391.391,0,0,1-.39-.391V749.6a.39.39,0,1,1,.781,0v2.63a.391.391,0,0,1-.39.391m-7.053-3.345a.39.39,0,0,1-.39-.39v-2.629a.39.39,0,0,1,.781,0v2.629a.39.39,0,0,1-.39.39m7.053-2.44a.39.39,0,0,1-.39-.391v-2.629a.39.39,0,0,1,.781,0v2.629a.39.39,0,0,1-.39.391m-7.053-3.344a.391.391,0,0,1-.39-.39v-2.629a.39.39,0,0,1,.781,0V743.1a.391.391,0,0,1-.39.39m7.053-2.44a.391.391,0,0,1-.39-.39v-2.63a.39.39,0,0,1,.781,0v2.63a.391.391,0,0,1-.39.39m-7.053-3.345a.391.391,0,0,1-.39-.391v-2.629a.39.39,0,1,1,.781,0v2.629a.391.391,0,0,1-.39.391m7.053-2.44a.391.391,0,0,1-.39-.39v-1.979a.391.391,0,0,1,.114-.764h.276a.391.391,0,0,1,.39.391v2.353a.391.391,0,0,1-.39.39m-3.431-2.353h-2.63a.39.39,0,0,1,0-.781h2.63a.39.39,0,0,1,0,.781" transform="translate(-326.104 -541.55)" fill="#1a171b"/>
    <path id="Trazado_836315" data-name="Trazado 836315" d="M824.308,280.41a1.433,1.433,0,0,1,1.439,1.427l.025,5.733a1.433,1.433,0,0,1,2.867-.012l0,.956a1.433,1.433,0,1,1,2.867-.012l0,.478a1.433,1.433,0,0,1,2.867-.012l0,.806a1.284,1.284,0,1,1,2.568-.011l.045,10.391a1.284,1.284,0,0,1-1.279,1.29l.011,2.508L824.41,304l-.016-3.7a1.434,1.434,0,0,1-1.439-1.427l-.073-17.02a1.433,1.433,0,0,1,1.427-1.439" transform="translate(-608.68 -207.417)" fill="#fdb6c7"/>
    <path id="Trazado_836316" data-name="Trazado 836316" d="M827.168,307.368a.651.651,0,0,1-.651-.648l-.014-3.155a2.088,2.088,0,0,1-1.442-1.975l-.074-17.02a2.087,2.087,0,0,1,2.075-2.093,2.084,2.084,0,0,1,2.093,2.075l.017,3.8a2.08,2.08,0,0,1,.782-.155h.009a2.073,2.073,0,0,0,2.862.943h.009a2.069,2.069,0,0,1,1.467.6,2.139,2.139,0,0,1,.207.238,2.074,2.074,0,0,1,1.185-.377h.009a2.086,2.086,0,0,1,1.86,1.146,1.92,1.92,0,0,1,.852-.2h.008a1.937,1.937,0,0,1,1.935,1.926l.045,10.391a1.938,1.938,0,0,1-1.276,1.828l.009,1.969a.651.651,0,0,1-.648.654l-11.317.049Zm-.016-5a.651.651,0,0,1,.651.648l.013,3.052,10.015-.043-.008-1.857a.651.651,0,0,1,.648-.654.633.633,0,0,0,.63-.636l-.045-10.391a.634.634,0,0,0-.633-.63h0a.634.634,0,0,0-.63.636.651.651,0,0,1-.648.653h0a.651.651,0,0,1-.651-.648v0l0-.8a.783.783,0,0,0-.782-.779h0a.784.784,0,0,0-.779.786h0a.651.651,0,0,1-.648.653h0a.651.651,0,0,1-.651-.648l0-.478a.782.782,0,0,0-.782-.779h0a.783.783,0,0,0-.779.786h0a.651.651,0,0,1-.648.653h0a.651.651,0,0,1-.651-.648l0-.956a.787.787,0,0,0-.786-.779.783.783,0,0,0-.779.786.651.651,0,0,1-.648.654h0a.651.651,0,0,1-.651-.648v0l-.025-5.731a.782.782,0,0,0-.782-.779h0a.784.784,0,0,0-.779.786l.074,17.02a.777.777,0,0,0,.231.552.769.769,0,0,0,.554.227Z" transform="translate(-610.238 -208.947)" fill="#1a171b"/>
    <path id="Trazado_836317" data-name="Trazado 836317" d="M869.83,322.135a.651.651,0,0,1-.651-.648l-.01-2.389a.651.651,0,0,1,.648-.654h0a.651.651,0,0,1,.651.648l.01,2.389a.651.651,0,0,1-.648.654Z" transform="translate(-642.919 -235.552)" fill="#1a171b"/>
    <path id="Trazado_836318" data-name="Trazado 836318" d="M858.812,320.758a.651.651,0,0,1-.651-.648l-.017-4.061a.651.651,0,0,1,.648-.654h0a.651.651,0,0,1,.651.648l.018,4.061a.651.651,0,0,1-.648.654Z" transform="translate(-634.763 -233.296)" fill="#1a171b"/>
    <path id="Trazado_836319" data-name="Trazado 836319" d="M847.79,318.582a.651.651,0,0,1-.651-.648l-.016-3.673a.651.651,0,0,1,.648-.654h0a.651.651,0,0,1,.651.648l.016,3.673a.651.651,0,0,1-.648.654Z" transform="translate(-626.611 -231.974)" fill="#1a171b"/>
    <path id="Trazado_836320" data-name="Trazado 836320" d="M836.759,314.078a.651.651,0,0,1-.651-.648l-.012-2.792a.651.651,0,0,1,.648-.654h0a.651.651,0,0,1,.651.648l.012,2.792a.651.651,0,0,1-.648.654Z" transform="translate(-618.455 -229.294)" fill="#1a171b"/>
    <path id="Trazado_836321" data-name="Trazado 836321" d="M852.147,594.117l-2.466-5.905a6.274,6.274,0,0,1-.6-2.09c-.073-1.595,1.047-2.974,1.507-4.5a8.1,8.1,0,0,1,.359-1.138,1.214,1.214,0,0,1,2.269-.1,6.449,6.449,0,0,1,.6,1.58c.473,1.459,1.413,2.82,1.384,4.354a7.149,7.149,0,0,1-.78,2.682c-.754,1.714-1.555,3.405-2.309,5.119Z" transform="translate(-628.058 -428.766)" fill="#6e40fc"/>
    <path id="Trazado_836322" data-name="Trazado 836322" d="M835.836,501.569h-3.621a7.564,7.564,0,0,1-7.556-7.556v-4.968a7.565,7.565,0,0,1,7.556-7.556h3.621a7.565,7.565,0,0,1,7.556,7.556v4.968a7.564,7.564,0,0,1-7.556,7.556m-3.621-18.916a6.4,6.4,0,0,0-6.392,6.392v4.968a6.4,6.4,0,0,0,6.392,6.392h3.621a6.4,6.4,0,0,0,6.392-6.392v-4.968a6.4,6.4,0,0,0-6.392-6.392Z" transform="translate(-609.995 -356.153)" fill="#1a171b"/>
    <path id="Trazado_836323" data-name="Trazado 836323" d="M828.618,586.545H795.636a.582.582,0,0,1-.582-.582V573.131a9.966,9.966,0,0,1,9.955-9.955.582.582,0,0,1,.544.376l6.574,17.369,6.574-17.369a.582.582,0,0,1,.544-.376,9.966,9.966,0,0,1,9.954,9.955v12.832a.582.582,0,0,1-.582.582m-32.4-1.164h31.817v-12.25a8.8,8.8,0,0,0-8.391-8.781l-6.973,18.423a.582.582,0,0,1-1.089,0l-6.973-18.423a8.8,8.8,0,0,0-8.392,8.781Z" transform="translate(-588.096 -416.578)" fill="#1a171b"/>
    <path id="Trazado_836324" data-name="Trazado 836324" d="M852.98,569.2h-1.569l-2.188-3.919h5.945Z" transform="translate(-628.164 -418.136)" fill="#6e40fc"/>
    <path id="Trazado_836325" data-name="Trazado 836325" d="M851.988,568.559h-1.569a.349.349,0,0,1-.305-.179l-2.188-3.919a.349.349,0,0,1,.305-.52h5.945a.349.349,0,0,1,.3.52l-2.188,3.919a.349.349,0,0,1-.305.179m-1.364-.7h1.159l1.8-3.221h-4.755Z" transform="translate(-627.172 -417.143)" fill="#1a171b"/>
    <path id="Trazado_836326" data-name="Trazado 836326" d="M847.043,585.948a.344.344,0,0,1-.13-.025.349.349,0,0,1-.195-.454l2.5-6.252a.349.349,0,0,1,.649.259l-2.5,6.252a.349.349,0,0,1-.324.22" transform="translate(-626.294 -428.28)" fill="#1a171b"/>
    <path id="Trazado_836327" data-name="Trazado 836327" d="M865.161,585.948a.35.35,0,0,1-.324-.22l-2.5-6.252a.349.349,0,1,1,.649-.259l2.5,6.252a.349.349,0,0,1-.195.454.344.344,0,0,1-.13.025" transform="translate(-637.848 -428.28)" fill="#1a171b"/>
    <path id="Trazado_836328" data-name="Trazado 836328" d="M845.879,564.339H831.642a.582.582,0,1,1,0-1.164h14.237a.582.582,0,0,1,0,1.164" transform="translate(-614.729 -416.577)" fill="#1a171b"/>
    <path id="Trazado_836329" data-name="Trazado 836329" d="M825.241,617.766a.582.582,0,0,1-.582-.582V606.408a.582.582,0,1,1,1.164,0v10.776a.582.582,0,0,1-.582.582" transform="translate(-609.995 -448.125)" fill="#1a171b"/>
    <path id="Trazado_836330" data-name="Trazado 836330" d="M892.736,617.766a.582.582,0,0,1-.582-.582V606.408a.582.582,0,1,1,1.164,0v10.776a.582.582,0,0,1-.582.582" transform="translate(-659.92 -448.125)" fill="#1a171b"/>
    <path id="Trazado_836331" data-name="Trazado 836331" d="M842.176,508.639a.35.35,0,0,1-.33-.236,1.449,1.449,0,0,0-2.74,0,.349.349,0,1,1-.66-.228,2.148,2.148,0,0,1,4.061,0,.35.35,0,0,1-.33.463" transform="translate(-620.178 -374.823)" fill="#1a171b"/>
    <path id="Trazado_836332" data-name="Trazado 836332" d="M872.019,508.639a.349.349,0,0,1-.33-.236,1.449,1.449,0,0,0-2.74,0,.349.349,0,0,1-.66-.228,2.148,2.148,0,0,1,4.061,0,.35.35,0,0,1-.33.463" transform="translate(-642.253 -374.823)" fill="#1a171b"/>
    <path id="Trazado_836333" data-name="Trazado 836333" d="M856.207,540.183h-4.368a.349.349,0,0,1,0-.7h4.368a.349.349,0,0,1,0,.7" transform="translate(-629.841 -399.053)" fill="#1a171b"/>
    <path id="Trazado_836334" data-name="Trazado 836334" d="M844.464,480.524a9.081,9.081,0,0,0-1.554-.474H830.931c-.032.005-.064.01-.1.013-.441.149-.907.183-1.355.342a7.083,7.083,0,0,0-.985.514.953.953,0,0,1-.164.152c.542,1.853,4.167,3.285,8.562,3.285,4.353,0,7.952-1.405,8.546-3.233a9.625,9.625,0,0,0-.975-.6" transform="translate(-612.711 -355.09)" fill="#fff"/>
    <path id="Trazado_836335" data-name="Trazado 836335" d="M835.239,483.283c-4.657,0-8.492-1.558-9.12-3.7a.583.583,0,0,1,.219-.637.418.418,0,0,0,.065-.063.59.59,0,0,1,.16-.128c.089-.048.176-.1.264-.15a4.636,4.636,0,0,1,.8-.4,5.777,5.777,0,0,1,.78-.2,4.963,4.963,0,0,0,.583-.144.59.59,0,0,1,.129-.028l.055-.007a.578.578,0,0,1,.1-.009h11.979a.572.572,0,0,1,.156.021c.135.037.271.071.407.1a6.281,6.281,0,0,1,1.244.406,6.535,6.535,0,0,1,.788.47c.082.054.164.109.247.162a.582.582,0,0,1,.241.671c-.685,2.106-4.512,3.635-9.1,3.635m-7.838-3.668c.791,1.285,3.738,2.5,7.838,2.5,4.017,0,6.952-1.185,7.8-2.444a4.32,4.32,0,0,0-.48-.28,5.324,5.324,0,0,0-1.02-.325c-.12-.03-.24-.06-.359-.092H829.323l-.017,0a6.543,6.543,0,0,1-.659.161,4.726,4.726,0,0,0-.626.158,3.707,3.707,0,0,0-.606.308l-.013.008" transform="translate(-611.057 -353.435)" fill="#1a171b"/>
    <path id="Trazado_836336" data-name="Trazado 836336" d="M839.584,472.7c-.715-2.195-4.764-3.877-9.652-3.877-4.948,0-9.033,1.724-9.674,3.958a3.744,3.744,0,0,0-1.133,2.686v5.895a1.372,1.372,0,0,0,1.372,1.372,2.384,2.384,0,0,0,2.384-2.384v-3.794a18.3,18.3,0,0,0,14.169-.033v3.827a2.384,2.384,0,0,0,2.384,2.384,1.372,1.372,0,0,0,1.372-1.372v-5.895a3.742,3.742,0,0,0-1.222-2.767" transform="translate(-605.901 -346.785)" fill="#fff"/>
    <path id="Trazado_836337" data-name="Trazado 836337" d="M837.781,481.661a2.969,2.969,0,0,1-2.966-2.966v-2.93a19.506,19.506,0,0,1-13.005.026v2.9a2.97,2.97,0,0,1-2.966,2.966,1.956,1.956,0,0,1-1.954-1.954v-5.895a4.3,4.3,0,0,1,1.2-3c.851-2.46,5.087-4.23,10.187-4.23,5.005,0,9.228,1.729,10.154,4.132a4.347,4.347,0,0,1,1.3,3.094v5.895a1.956,1.956,0,0,1-1.954,1.954m-2.384-7.376a.582.582,0,0,1,.582.582v3.827a1.8,1.8,0,0,0,1.8,1.8.791.791,0,0,0,.79-.79v-5.895a3.181,3.181,0,0,0-1.033-2.338.584.584,0,0,1-.161-.249c-.708-2.175-5.182-3.475-9.1-3.475-5.07,0-8.616,1.8-9.114,3.536a.585.585,0,0,1-.153.256,3.149,3.149,0,0,0-.958,2.269v5.895a.791.791,0,0,0,.79.79,1.8,1.8,0,0,0,1.8-1.8V474.9a.582.582,0,0,1,.838-.523,17.727,17.727,0,0,0,13.654-.031.582.582,0,0,1,.26-.061" transform="translate(-604.247 -345.131)" fill="#1a171b"/>
    <path id="Trazado_836338" data-name="Trazado 836338" d="M19.2,545.019A11.018,11.018,0,1,1,30.22,534,11.03,11.03,0,0,1,19.2,545.019m0-20.734A9.716,9.716,0,1,0,28.919,534a9.727,9.727,0,0,0-9.716-9.716" transform="translate(-6.054 -386.848)" fill="#1a171b"/>
    <path id="Trazado_836339" data-name="Trazado 836339" d="M30.445,553.529a.651.651,0,0,1-.391-.13l-6.41-4.808a.651.651,0,0,1,.781-1.041l6.06,4.545,5.263-3.158a.651.651,0,0,1,.67,1.116l-5.639,3.383a.648.648,0,0,1-.335.093" transform="translate(-17.297 -404.923)" fill="#1a171b"/>
    <rect id="Rectángulo_387453" data-name="Rectángulo 387453" width="15.927" height="31.058" transform="translate(77.836 23.446) rotate(-69.872)" fill="#fee0e7"/>
    <path id="Trazado_836340" data-name="Trazado 836340" d="M317.627,60.545a.657.657,0,0,1-.226-.04L288.24,49.817a.657.657,0,0,1-.391-.843l5.481-14.954a.658.658,0,0,1,.844-.391l29.161,10.688a.657.657,0,0,1,.391.843l-5.481,14.955a.657.657,0,0,1-.617.431M289.309,48.809l27.926,10.235,5.029-13.72L294.338,35.089Z" transform="translate(-212.89 -24.845)" fill="#1a171b"/>
    <path id="Trazado_836341" data-name="Trazado 836341" d="M317.627,87.192a.657.657,0,0,1-.226-.04L288.24,76.464a.657.657,0,0,1,.039-1.247L307,69.64a.658.658,0,0,1,.741.275L318.18,86.18a.657.657,0,0,1-.553,1.012M290.553,75.911l25.466,9.334-9.114-14.2Z" transform="translate(-212.89 -51.492)" fill="#1a171b"/>
    <path id="Trazado_836342" data-name="Trazado 836342" d="M321.826,52.378,311.39,36.113,340.551,46.8Z" transform="translate(-230.333 -26.713)" fill="#fff"/>
    <path id="Trazado_836343" data-name="Trazado 836343" d="M319.958,51.167a.658.658,0,0,1-.553-.3L308.969,34.6a.657.657,0,0,1,.78-.972l29.161,10.688a.657.657,0,0,1-.039,1.247L320.146,51.14a.656.656,0,0,1-.187.027M311.13,35.535l9.114,14.2,16.352-4.87Z" transform="translate(-228.465 -24.845)" fill="#1a171b"/>
    <path id="Trazado_836344" data-name="Trazado 836344" d="M348.476,58.117l-16.2-5.938a.377.377,0,0,1,.26-.708l16.2,5.938a.377.377,0,1,1-.26.708" transform="translate(-245.599 -38.056)" fill="#1a171b"/>
    <path id="Trazado_836345" data-name="Trazado 836345" d="M43.809,371.782a3.9,3.9,0,1,1,3.9-3.9,3.9,3.9,0,0,1-3.9,3.9m0-7.012a3.115,3.115,0,1,0,3.115,3.115,3.119,3.119,0,0,0-3.115-3.115" transform="translate(-29.523 -269.24)" fill="#1a171b"/>
    <path id="Trazado_836346" data-name="Trazado 836346" d="M36.323,366.018a.391.391,0,0,1-.072-.774,6.111,6.111,0,0,0,2.272-.93.39.39,0,1,1,.434.649,6.892,6.892,0,0,1-2.561,1.048.387.387,0,0,1-.073.007m-3.12-.16a.388.388,0,0,1-.112-.017,6.911,6.911,0,0,1-2.439-1.306.39.39,0,0,1,.5-.6,6.129,6.129,0,0,0,2.165,1.16.391.391,0,0,1-.112.765m7.65-3.131a.391.391,0,0,1-.342-.579,6.122,6.122,0,0,0,.731-2.344.39.39,0,0,1,.777.079,6.893,6.893,0,0,1-.824,2.641.391.391,0,0,1-.343.2m-11.818-.608a.391.391,0,0,1-.36-.238,6.922,6.922,0,0,1-.548-2.711,7.058,7.058,0,0,1,.054-.872.39.39,0,0,1,.775.1,6.256,6.256,0,0,0-.048.775,6.144,6.144,0,0,0,.486,2.407.391.391,0,0,1-.359.543m12.17-4.98a.39.39,0,0,1-.363-.247,6.155,6.155,0,0,0-1.342-2.058.39.39,0,0,1,.557-.547,6.935,6.935,0,0,1,1.511,2.318.391.391,0,0,1-.363.535m-11.52-1.32a.391.391,0,0,1-.321-.613,6.959,6.959,0,0,1,1.994-1.917.39.39,0,1,1,.419.659,6.179,6.179,0,0,0-1.771,1.7.39.39,0,0,1-.321.168m7.437-2.512a.387.387,0,0,1-.121-.019,6.236,6.236,0,0,0-2.441-.279.39.39,0,1,1-.066-.778,7.027,7.027,0,0,1,2.748.314.391.391,0,0,1-.12.762" transform="translate(-20.806 -260.524)" fill="#1a171b"/>
    <rect id="Rectángulo_387454" data-name="Rectángulo 387454" width="4.821" height="4.821" transform="translate(186.991 59.253)" fill="#ffcb3b"/>
    <path id="Trazado_836347" data-name="Trazado 836347" d="M717.008,226.678h-4.821a.39.39,0,0,1-.39-.39v-4.82a.39.39,0,0,1,.39-.39h4.821a.39.39,0,0,1,.39.39v4.82a.39.39,0,0,1-.39.39m-4.43-.781h4.04v-4.04h-4.04Z" transform="translate(-526.511 -163.529)" fill="#1a171b"/>
    <path id="Trazado_836348" data-name="Trazado 836348" d="M771.345,760.109l-5.388-4.777,6.831-2.277Z" transform="translate(-566.574 -557.029)" fill="#97bf0d"/>
    <path id="Trazado_836349" data-name="Trazado 836349" d="M777.137,761.066a.394.394,0,0,1-.262-.1l-5.388-4.778a.394.394,0,0,1,.137-.669l6.831-2.277a.395.395,0,0,1,.511.453l-1.444,7.055a.4.4,0,0,1-.262.3.4.4,0,0,1-.125.02m-4.615-5.014,4.366,3.871,1.17-5.716Z" transform="translate(-570.566 -557.154)" fill="#1a171b"/>
    <path id="Trazado_836350" data-name="Trazado 836350" d="M11.941,447.2l-3.533-.016-1.753-3.068,1.78-3.052,3.533.016,1.753,3.068Z" transform="translate(-4.923 -326.256)" fill="#fee0e7"/>
    <path id="Trazado_836351" data-name="Trazado 836351" d="M5.677,451.535h0l-3.533-.016a.39.39,0,0,1-.337-.2L.052,448.255a.39.39,0,0,1,0-.39l1.78-3.052a.391.391,0,0,1,.337-.194h0l3.533.016a.39.39,0,0,1,.337.2L7.8,447.9a.39.39,0,0,1,0,.391l-1.78,3.052a.391.391,0,0,1-.337.194m-3.306-.8,3.082.013,1.553-2.662-1.529-2.676L2.394,445.4.841,448.063Z" transform="translate(0 -328.882)" fill="#1a171b"/>
    <path id="Trazado_836352" data-name="Trazado 836352" d="M812.3,430.036l-3.533-.016-1.753-3.068,1.78-3.052,3.533.016,1.753,3.068Z" transform="translate(-596.946 -313.556)" fill="#6e40fc"/>
    <path id="Trazado_836353" data-name="Trazado 836353" d="M806.04,434.367h0l-3.533-.016a.39.39,0,0,1-.337-.2l-1.753-3.067a.391.391,0,0,1,0-.39l1.78-3.052a.391.391,0,0,1,.337-.194h0l3.533.016a.39.39,0,0,1,.337.2l1.753,3.067a.391.391,0,0,1,0,.39l-1.78,3.052a.391.391,0,0,1-.337.194m-3.306-.8,3.082.014,1.553-2.662-1.529-2.676-3.082-.014L801.2,430.9Z" transform="translate(-592.023 -316.183)" fill="#1a171b"/>
    <path id="Trazado_836354" data-name="Trazado 836354" d="M202.71,102.689H179.571a.39.39,0,1,1,0-.781H202.71a.39.39,0,0,1,0,.781" transform="translate(-132.539 -75.381)" fill="#1a171b"/>
    <path id="Trazado_836355" data-name="Trazado 836355" d="M326.034,773.592H302.9a.39.39,0,1,1,0-.781h23.138a.39.39,0,1,1,0,.781" transform="translate(-223.761 -571.643)" fill="#1a171b"/>
    <path id="Trazado_836356" data-name="Trazado 836356" d="M214.834,63.567h-9.466a.39.39,0,1,1,0-.781h9.466a.39.39,0,0,1,0,.781" transform="translate(-151.621 -46.442)" fill="#1a171b"/>
    <path id="Trazado_836357" data-name="Trazado 836357" d="M75.077,445.521a.39.39,0,0,1-.39-.39v-14.2a.39.39,0,1,1,.781,0v14.2a.39.39,0,0,1-.39.39" transform="translate(-55.245 -318.469)" fill="#1a171b"/>
    <path id="Trazado_836358" data-name="Trazado 836358" d="M62.956,462.568a.39.39,0,0,1-.39-.39V451.134a.39.39,0,1,1,.781,0v11.043a.39.39,0,0,1-.39.39" transform="translate(-46.28 -333.412)" fill="#1a171b"/>
    <path id="Trazado_836359" data-name="Trazado 836359" d="M23.394,642.406H5.514a.39.39,0,0,1,0-.781h17.88a.39.39,0,0,1,0,.781" transform="translate(-3.79 -474.606)" fill="#1a171b"/>
    <path id="Trazado_836360" data-name="Trazado 836360" d="M810.868,391.182H800.35a.39.39,0,0,1,0-.781h10.517a.39.39,0,1,1,0,.781" transform="translate(-591.725 -288.777)" fill="#1a171b"/>
    <path id="Trazado_836361" data-name="Trazado 836361" d="M344.935,153.589H329.158a.39.39,0,1,1,0-.781h15.776a.39.39,0,1,1,0,.781" transform="translate(-243.187 -113.031)" fill="#1a171b"/>
    <path id="Trazado_836362" data-name="Trazado 836362" d="M353.65,179.852h-6.311a.39.39,0,1,1,0-.781h6.311a.39.39,0,0,1,0,.781" transform="translate(-256.636 -132.458)" fill="#1a171b"/>
    <path id="Trazado_836363" data-name="Trazado 836363" d="M690.435,72.831H677.288a.39.39,0,0,1,0-.781h13.147a.39.39,0,0,1,0,.781" transform="translate(-500.697 -53.295)" fill="#1a171b"/>
    <path id="Trazado_836364" data-name="Trazado 836364" d="M744.815,128.923H731.668a.39.39,0,0,1,0-.781h13.147a.39.39,0,0,1,0,.781" transform="translate(-540.921 -94.786)" fill="#1a171b"/>
    <path id="Trazado_836365" data-name="Trazado 836365" d="M420.193,36.878H406.52a.39.39,0,1,1,0-.781h13.673a.39.39,0,1,1,0,.781" transform="translate(-300.412 -26.701)" fill="#1a171b"/>
    <path id="Trazado_836366" data-name="Trazado 836366" d="M657.52,222.195H647a.39.39,0,0,1,0-.781H657.52a.39.39,0,0,1,0,.781" transform="translate(-478.295 -163.778)" fill="#1a171b"/>
    <path id="Trazado_836367" data-name="Trazado 836367" d="M347.52,15.195H337a.39.39,0,0,1,0-.781H347.52a.39.39,0,1,1,0,.781" transform="translate(-248.99 -10.662)" fill="#1a171b"/>
    <path id="Trazado_836368" data-name="Trazado 836368" d="M638.5,204.9h-9.465a.39.39,0,1,1,0-.781H638.5a.39.39,0,1,1,0,.781" transform="translate(-465.005 -150.989)" fill="#1a171b"/>
    <path id="Trazado_836369" data-name="Trazado 836369" d="M135.5,124.9h-9.466a.39.39,0,1,1,0-.781H135.5a.39.39,0,1,1,0,.781" transform="translate(-92.939 -91.814)" fill="#1a171b"/>
    <path id="Trazado_836370" data-name="Trazado 836370" d="M456.409,6.348A2.848,2.848,0,1,1,453.56,3.5a2.848,2.848,0,0,1,2.849,2.849" transform="translate(-333.389 -2.588)" fill="#5ba000"/>
    <path id="Trazado_836371" data-name="Trazado 836371" d="M448.952,6.478a3.239,3.239,0,1,1,3.239-3.239,3.242,3.242,0,0,1-3.239,3.239m0-5.7a2.458,2.458,0,1,0,2.458,2.458A2.461,2.461,0,0,0,448.952.781" transform="translate(-329.691)" fill="#1a171b"/>
    <rect id="Rectángulo_387455" data-name="Rectángulo 387455" width="5.259" height="5.259" transform="translate(107.186 43.111) rotate(-45)" fill="#97bf0d"/>
    <path id="Trazado_836372" data-name="Trazado 836372" d="M414.376,162.825a.389.389,0,0,1-.276-.115l-3.719-3.718a.391.391,0,0,1,0-.552l3.719-3.718a.4.4,0,0,1,.552,0l3.718,3.718a.39.39,0,0,1,0,.552l-3.718,3.718a.389.389,0,0,1-.276.115m-3.166-4.109,3.166,3.166,3.166-3.166-3.166-3.166Z" transform="translate(-303.471 -114.365)" fill="#1a171b"/>
    <rect id="Rectángulo_387456" data-name="Rectángulo 387456" width="5.259" height="5.259" transform="translate(224.715 181.76)" fill="#97bf0d"/>
    <path id="Trazado_836373" data-name="Trazado 836373" d="M864.053,699.425h-5.259a.391.391,0,0,1-.39-.391v-5.259a.391.391,0,0,1,.39-.39h5.259a.391.391,0,0,1,.39.39v5.259a.391.391,0,0,1-.39.391m-4.868-.781h4.478v-4.478h-4.478Z" transform="translate(-634.956 -512.892)" fill="#1a171b"/>
    <rect id="Rectángulo_387457" data-name="Rectángulo 387457" width="5.259" height="5.259" transform="translate(15.601 173.429)" fill="#00a096"/>
    <path id="Trazado_836374" data-name="Trazado 836374" d="M60.714,667.423H55.455a.39.39,0,0,1-.39-.391v-5.259a.39.39,0,0,1,.39-.39h5.259a.391.391,0,0,1,.39.39v5.259a.391.391,0,0,1-.39.391m-4.868-.781h4.478v-4.478H55.846Z" transform="translate(-40.731 -489.221)" fill="#1a171b"/>
    <path id="Trazado_836375" data-name="Trazado 836375" d="M204.762,764.253a8.719,8.719,0,0,0,2.057-1.658,4.732,4.732,0,0,1,2.292-5.921,8.814,8.814,0,0,0-.406-2.609,4.732,4.732,0,0,1-3.984-4.943,8.713,8.713,0,0,0-2.463-.955,4.732,4.732,0,0,1-6.274.977,8.719,8.719,0,0,0-2.056,1.659,4.732,4.732,0,0,1-2.293,5.92,8.814,8.814,0,0,0,.406,2.609,4.732,4.732,0,0,1,3.984,4.943,8.722,8.722,0,0,0,2.464.955,4.732,4.732,0,0,1,6.273-.977m-8.346-6.938a4,4,0,1,1,4.573,3.341,4,4,0,0,1-4.573-3.341" transform="translate(-141.75 -553.414)" fill="#00a096"/>
    <path id="Trazado_836376" data-name="Trazado 836376" d="M193.952,760.194a.406.406,0,0,1-.084-.009,9.117,9.117,0,0,1-2.574-1,.39.39,0,0,1-.2-.361,4.341,4.341,0,0,0-3.655-4.535.39.39,0,0,1-.312-.268,9.208,9.208,0,0,1-.424-2.725.389.389,0,0,1,.215-.35,4.342,4.342,0,0,0,2.1-5.432.39.39,0,0,1,.076-.4,9.1,9.1,0,0,1,2.148-1.733.39.39,0,0,1,.411.011,4.342,4.342,0,0,0,5.756-.9.393.393,0,0,1,.388-.136,9.12,9.12,0,0,1,2.574,1,.39.39,0,0,1,.2.361,4.342,4.342,0,0,0,3.655,4.535.391.391,0,0,1,.312.268,9.209,9.209,0,0,1,.424,2.725.39.39,0,0,1-.215.35,4.342,4.342,0,0,0-2.1,5.432.39.39,0,0,1-.076.4,9.1,9.1,0,0,1-2.148,1.733.39.39,0,0,1-.411-.011,4.342,4.342,0,0,0-5.756.9.39.39,0,0,1-.3.145m-2.066-1.57a8.323,8.323,0,0,0,1.923.745,5.122,5.122,0,0,1,6.42-1,8.322,8.322,0,0,0,1.605-1.294,5.123,5.123,0,0,1,2.346-6.059,8.429,8.429,0,0,0-.317-2.036,5.123,5.123,0,0,1-4.077-5.059,8.326,8.326,0,0,0-1.923-.745,5.122,5.122,0,0,1-6.42,1,8.313,8.313,0,0,0-1.605,1.295,5.123,5.123,0,0,1-2.346,6.059,8.429,8.429,0,0,0,.317,2.036,5.122,5.122,0,0,1,4.077,5.059m3.941-2.956a4.4,4.4,0,1,1,.686-.053,4.46,4.46,0,0,1-.686.053m.017-8.011a3.62,3.62,0,0,0-3.579,4.171,3.614,3.614,0,1,0,3.579-4.171" transform="translate(-138.106 -549.112)" fill="#1a171b"/>
    <path id="Trazado_836377" data-name="Trazado 836377" d="M119.733,717.5a13.2,13.2,0,0,0,3.11-2.508,7.157,7.157,0,0,1,3.467-8.954,13.348,13.348,0,0,0-.614-3.946,7.157,7.157,0,0,1-6.026-7.476,13.194,13.194,0,0,0-3.726-1.444,7.157,7.157,0,0,1-9.488,1.478,13.2,13.2,0,0,0-3.11,2.508,7.157,7.157,0,0,1-3.467,8.954,13.351,13.351,0,0,0,.614,3.946,7.156,7.156,0,0,1,6.026,7.476,13.194,13.194,0,0,0,3.726,1.444,7.157,7.157,0,0,1,9.488-1.477M107.11,707a6.056,6.056,0,1,1,6.916,5.052A6.056,6.056,0,0,1,107.11,707" transform="translate(-73.88 -512.732)" fill="#fee0e7"/>
    <path id="Trazado_836378" data-name="Trazado 836378" d="M106.637,713.617a.4.4,0,0,1-.084-.009,13.587,13.587,0,0,1-3.836-1.487.391.391,0,0,1-.2-.361,6.766,6.766,0,0,0-5.7-7.068.39.39,0,0,1-.311-.269,13.735,13.735,0,0,1-.633-4.062.39.39,0,0,1,.215-.35,6.766,6.766,0,0,0,3.278-8.465.391.391,0,0,1,.076-.4,13.575,13.575,0,0,1,3.2-2.583.39.39,0,0,1,.411.011,6.765,6.765,0,0,0,8.97-1.4.394.394,0,0,1,.388-.136,13.584,13.584,0,0,1,3.836,1.487.391.391,0,0,1,.2.361,6.766,6.766,0,0,0,5.7,7.068.39.39,0,0,1,.311.268,13.734,13.734,0,0,1,.633,4.062.39.39,0,0,1-.215.35A6.766,6.766,0,0,0,119.6,709.1a.39.39,0,0,1-.076.4,13.564,13.564,0,0,1-3.2,2.583.39.39,0,0,1-.41-.011,6.767,6.767,0,0,0-8.97,1.4.39.39,0,0,1-.3.145m-3.326-2.057a12.786,12.786,0,0,0,3.18,1.233,7.547,7.547,0,0,1,9.64-1.5,12.788,12.788,0,0,0,2.655-2.141,7.548,7.548,0,0,1,3.522-9.1,12.936,12.936,0,0,0-.524-3.368,7.547,7.547,0,0,1-6.122-7.6,12.8,12.8,0,0,0-3.18-1.232,7.547,7.547,0,0,1-9.64,1.5,12.788,12.788,0,0,0-2.655,2.141,7.548,7.548,0,0,1-3.522,9.1,12.955,12.955,0,0,0,.525,3.368,7.547,7.547,0,0,1,6.122,7.6m6.172-4.788a6.45,6.45,0,1,1,1-.077,6.457,6.457,0,0,1-1,.077m-5.595-5.576a5.666,5.666,0,1,0,1.023-4.214,5.671,5.671,0,0,0-1.023,4.214" transform="translate(-70.923 -508.192)" fill="#1a171b"/>
    <path id="Trazado_836379" data-name="Trazado 836379" d="M162.723,797.769a.388.388,0,0,1-.1-.013,4.985,4.985,0,0,1-1.026-.4.39.39,0,0,1-.19-.469,1.795,1.795,0,0,0-1.9-2.354.391.391,0,0,1-.418-.286,4.938,4.938,0,0,1-.115-.539,5.076,5.076,0,0,1-.054-.548.391.391,0,0,1,.312-.4,1.794,1.794,0,0,0,1.09-2.818.39.39,0,0,1,.038-.5,4.994,4.994,0,0,1,.857-.691.391.391,0,0,1,.5.07,1.8,1.8,0,0,0,2.987-.465.39.39,0,0,1,.457-.219,4.968,4.968,0,0,1,1.026.4.39.39,0,0,1,.19.47,1.795,1.795,0,0,0,1.9,2.354.39.39,0,0,1,.419.286,4.911,4.911,0,0,1,.169,1.086.391.391,0,0,1-.312.4,1.795,1.795,0,0,0-1.09,2.819.39.39,0,0,1-.038.5,4.963,4.963,0,0,1-.857.691.39.39,0,0,1-.5-.07,1.795,1.795,0,0,0-2.986.465.391.391,0,0,1-.357.232m-.488-.971q.144.062.293.114a2.576,2.576,0,0,1,3.874-.6c.084-.062.166-.128.244-.2a2.576,2.576,0,0,1,1.415-3.656c-.006-.053-.013-.1-.021-.156s-.017-.1-.027-.155a2.575,2.575,0,0,1-2.459-3.053q-.144-.062-.293-.114a2.576,2.576,0,0,1-3.874.6c-.084.062-.166.128-.244.2a2.575,2.575,0,0,1-1.415,3.656c.006.053.013.1.021.156s.017.1.027.155a2.576,2.576,0,0,1,2.46,3.053m1.655-1.743a2.112,2.112,0,1,1,.329-.026,2.129,2.129,0,0,1-.329.026m.007-3.44a1.368,1.368,0,0,0-.207.016,1.324,1.324,0,1,0,.207-.016" transform="translate(-117.554 -582.967)" fill="#1a171b"/>
    <path id="Trazado_836380" data-name="Trazado 836380" d="M604.845,911.057a5.858,5.858,0,0,1-1.248-.136.391.391,0,0,1-.256-.19,2.838,2.838,0,0,0-2.468-1.44h-.029a.391.391,0,0,1-.288-.127A5.842,5.842,0,0,1,599.3,907a.391.391,0,0,1,.036-.317,2.836,2.836,0,0,0,0-2.881.391.391,0,0,1-.036-.317,5.845,5.845,0,0,1,1.25-2.162.4.4,0,0,1,.292-.127,2.838,2.838,0,0,0,2.493-1.44.391.391,0,0,1,.256-.19,5.841,5.841,0,0,1,2.5,0,.391.391,0,0,1,.256.19,2.838,2.838,0,0,0,1.051,1.059,2.872,2.872,0,0,0,1.443.38.381.381,0,0,1,.292.127,5.845,5.845,0,0,1,1.25,2.162.391.391,0,0,1-.036.317,2.836,2.836,0,0,0,0,2.881.39.39,0,0,1,.036.317,5.844,5.844,0,0,1-1.25,2.162.387.387,0,0,1-.292.127h-.026a2.838,2.838,0,0,0-2.468,1.44.391.391,0,0,1-.256.19,5.859,5.859,0,0,1-1.248.136m-.918-.866a5.021,5.021,0,0,0,1.837,0,3.619,3.619,0,0,1,2.9-1.677,5.059,5.059,0,0,0,.919-1.59,3.617,3.617,0,0,1,0-3.357,5.064,5.064,0,0,0-.919-1.59,3.62,3.62,0,0,1-2.9-1.677,5.031,5.031,0,0,0-1.837,0,3.62,3.62,0,0,1-2.9,1.677,5.063,5.063,0,0,0-.919,1.59,3.62,3.62,0,0,1,0,3.357,5.064,5.064,0,0,0,.919,1.59,3.619,3.619,0,0,1,2.905,1.677m.918-2.974a1.971,1.971,0,1,1,1.972-1.971,1.973,1.973,0,0,1-1.972,1.971m0-3.162a1.191,1.191,0,1,0,1.191,1.191,1.192,1.192,0,0,0-1.191-1.191" transform="translate(-443.288 -665.307)" fill="#1a171b"/>
    <path id="Trazado_836381" data-name="Trazado 836381" d="M396.187,278.305a.39.39,0,0,1-.39-.39v-2.63a.39.39,0,0,1,.781,0v2.63a.39.39,0,0,1-.39.39m0-5.785a.39.39,0,0,1-.39-.39V269.5a.39.39,0,1,1,.781,0v2.629a.39.39,0,0,1-.39.39m0-5.785a.39.39,0,0,1-.39-.39v-2.629a.39.39,0,1,1,.781,0v2.629a.39.39,0,0,1-.39.39m0-5.785a.39.39,0,0,1-.39-.391v-2.629a.39.39,0,1,1,.781,0v2.629a.39.39,0,0,1-.39.391" transform="translate(-292.768 -190.501)" fill="#1a171b"/>
    <path id="Trazado_836382" data-name="Trazado 836382" d="M932.6,437.076a.391.391,0,0,1-.391-.39v-1.052a.39.39,0,0,1,.781,0v1.052a.391.391,0,0,1-.39.39m0-4.207a.391.391,0,0,1-.391-.39v-2.629a.39.39,0,0,1,.781,0v2.629a.391.391,0,0,1-.39.39m0-5.785a.39.39,0,0,1-.391-.39v-2.629a.39.39,0,0,1,.781,0v2.629a.39.39,0,0,1-.39.39m0-5.785a.39.39,0,0,1-.391-.39V418.28a.39.39,0,1,1,.781,0v2.629a.39.39,0,0,1-.39.39m0-5.785a.39.39,0,0,1-.391-.39V412.5a.39.39,0,1,1,.781,0v2.629a.39.39,0,0,1-.39.39m0-5.785a.39.39,0,0,1-.391-.39V406.71a.39.39,0,1,1,.781,0v2.629a.39.39,0,0,1-.39.39" transform="translate(-689.552 -300.552)" fill="#1a171b"/>
    <path id="Trazado_836383" data-name="Trazado 836383" d="M285.418,751.861h-2.63a.39.39,0,0,1,0-.781h2.63a.39.39,0,0,1,0,.781m-5.785,0H277a.39.39,0,0,1,0-.781h2.629a.39.39,0,1,1,0,.781m-5.785,0h-2.629a.39.39,0,0,1,0-.781h2.629a.39.39,0,0,1,0,.781m-5.785,0h-2.629a.39.39,0,1,1,0-.781h2.629a.39.39,0,0,1,0,.781" transform="translate(-196.051 -555.569)" fill="#1a171b"/>
    <path id="Trazado_836384" data-name="Trazado 836384" d="M687.45,102.66h-2.63a.39.39,0,0,1,0-.781h2.63a.39.39,0,1,1,0,.781m-5.785,0h-2.629a.39.39,0,1,1,0-.781h2.629a.39.39,0,0,1,0,.781m-5.785,0h-2.629a.39.39,0,1,1,0-.781h2.629a.39.39,0,1,1,0,.781m-5.784,0h-2.629a.39.39,0,0,1,0-.781H670.1a.39.39,0,0,1,0,.781m-5.785,0h-2.629a.39.39,0,1,1,0-.781h2.629a.39.39,0,1,1,0,.781" transform="translate(-489.153 -75.359)" fill="#1a171b"/>
    <path id="Trazado_836385" data-name="Trazado 836385" d="M161.218,628.19a4.067,4.067,0,0,1-2.666-.995.39.39,0,1,1,.512-.59,3.29,3.29,0,0,0,2.155.8.391.391,0,0,1,0,.781M164,626.92a.39.39,0,0,1-.295-.646,3.291,3.291,0,0,0,.8-2.155.39.39,0,1,1,.781,0,4.071,4.071,0,0,1-.995,2.666.39.39,0,0,1-.3.135m-6.463-2.411a.39.39,0,0,1-.39-.39,4.072,4.072,0,0,1,.994-2.667.39.39,0,1,1,.59.511,3.29,3.29,0,0,0-.8,2.155.391.391,0,0,1-.39.39m6.092-2.782a.387.387,0,0,1-.255-.1,3.289,3.289,0,0,0-2.155-.8.39.39,0,1,1,0-.781,4.068,4.068,0,0,1,2.666.995.391.391,0,0,1-.256.685" transform="translate(-116.241 -458.645)" fill="#1a171b"/>
    <path id="Trazado_836386" data-name="Trazado 836386" d="M519.058,624.648a4.069,4.069,0,0,1-2.666-.995.391.391,0,0,1,.512-.59,3.288,3.288,0,0,0,2.154.8.39.39,0,0,1,0,.781m2.782-1.27a.39.39,0,0,1-.295-.646,3.291,3.291,0,0,0,.8-2.155.39.39,0,1,1,.781,0,4.07,4.07,0,0,1-.995,2.666.389.389,0,0,1-.3.135m-6.463-2.411a.391.391,0,0,1-.39-.39,4.07,4.07,0,0,1,.995-2.666.39.39,0,0,1,.59.512,3.289,3.289,0,0,0-.8,2.155.391.391,0,0,1-.391.39m6.092-2.782a.388.388,0,0,1-.255-.1,3.29,3.29,0,0,0-2.155-.8.39.39,0,0,1,0-.781,4.067,4.067,0,0,1,2.666.995.39.39,0,0,1-.256.685" transform="translate(-380.932 -456.025)" fill="#1a171b"/>
    <path id="Trazado_836387" data-name="Trazado 836387" d="M759.47,563.678a.391.391,0,0,1-.39-.39v-2.629a.39.39,0,1,1,.781,0v2.629a.391.391,0,0,1-.391.39m0-5.784a.391.391,0,0,1-.39-.391v-2.629a.39.39,0,1,1,.781,0V557.5a.391.391,0,0,1-.391.391m0-5.785a.391.391,0,0,1-.39-.391v-2.629a.39.39,0,1,1,.781,0v2.629a.391.391,0,0,1-.391.391" transform="translate(-561.486 -405.868)" fill="#1a171b"/>
    <path id="Trazado_836388" data-name="Trazado 836388" d="M832.187,701.63a.391.391,0,0,1-.39-.39V698.61a.39.39,0,1,1,.781,0v2.629a.391.391,0,0,1-.39.39m0-5.784a.391.391,0,0,1-.39-.391v-2.629a.39.39,0,1,1,.781,0v2.629a.391.391,0,0,1-.39.391m0-5.785a.391.391,0,0,1-.39-.39v-2.629a.39.39,0,1,1,.781,0v2.629a.391.391,0,0,1-.39.39" transform="translate(-615.275 -507.91)" fill="#1a171b"/>
    <path id="Trazado_836389" data-name="Trazado 836389" d="M320.884,795.18l1.742,3.53,3.9.566-2.819,2.748.665,3.879-3.484-1.832L317.4,805.9l.665-3.879-2.819-2.748,3.9-.566Z" transform="translate(-233.186 -588.189)" fill="#ffcb3b"/>
    <path id="Trazado_836390" data-name="Trazado 836390" d="M321.564,807.424a.27.27,0,0,1-.128-.032l-3.356-1.765-3.356,1.765a.274.274,0,0,1-.4-.289l.641-3.737-2.716-2.647a.274.274,0,0,1,.152-.468l3.753-.545,1.678-3.4a.274.274,0,0,1,.491,0l1.678,3.4,3.753.545a.274.274,0,0,1,.152.468l-2.716,2.647.641,3.737a.274.274,0,0,1-.27.32m-3.484-2.38a.274.274,0,0,1,.128.031l2.992,1.573-.571-3.332a.273.273,0,0,1,.079-.242l2.421-2.36-3.346-.486a.274.274,0,0,1-.206-.15l-1.5-3.032-1.5,3.032a.274.274,0,0,1-.206.15l-3.346.486,2.421,2.36a.273.273,0,0,1,.079.242l-.571,3.332,2.992-1.573a.274.274,0,0,1,.128-.031" transform="translate(-230.909 -588.909)" fill="#1a171b"/>
    <path id="Trazado_836391" data-name="Trazado 836391" d="M334.411,800.04a.165.165,0,0,1-.165-.165v-2.53a.165.165,0,0,1,.329,0v2.53a.165.165,0,0,1-.164.165" transform="translate(-247.24 -589.669)" fill="#1a171b"/>
    <path id="Trazado_836392" data-name="Trazado 836392" d="M344.764,814.158a.164.164,0,0,1-.113-.284l2.108-2a.164.164,0,1,1,.226.238l-2.108,2a.164.164,0,0,1-.113.045" transform="translate(-254.898 -600.502)" fill="#1a171b"/>
    <path id="Trazado_836393" data-name="Trazado 836393" d="M343.417,828.558a.165.165,0,0,1-.162-.135l-.527-2.846a.164.164,0,0,1,.323-.06l.527,2.847a.164.164,0,0,1-.132.192l-.03,0" transform="translate(-253.512 -610.53)" fill="#1a171b"/>
    <path id="Trazado_836394" data-name="Trazado 836394" d="M318.742,818.008l-.024,0a.164.164,0,0,1-.139-.187l.08-.543a.164.164,0,0,1,.325.048l-.08.543a.165.165,0,0,1-.162.141m.191-1.3-.024,0a.165.165,0,0,1-.139-.187l.08-.542a.164.164,0,0,1,.325.048l-.08.542a.164.164,0,0,1-.162.141m.191-1.3-.024,0a.165.165,0,0,1-.139-.187l.08-.542a.164.164,0,0,1,.325.048l-.08.542a.165.165,0,0,1-.162.141m-.331-1.134a.164.164,0,0,1-.118-.05l-.38-.4a.164.164,0,0,1,.237-.228l.38.4a.165.165,0,0,1-.119.278m-.912-.948a.164.164,0,0,1-.118-.051l-.38-.395a.165.165,0,0,1,.237-.228l.38.395a.165.165,0,0,1-.118.279m-.912-.949a.164.164,0,0,1-.119-.05l-.38-.4a.164.164,0,0,1,.237-.228l.38.4a.164.164,0,0,1-.119.278" transform="translate(-234.058 -600.371)" fill="#1a171b"/>
    <path id="Trazado_836395" data-name="Trazado 836395" d="M49.06,238.156l1.742,3.53,3.9.566L51.879,245l.665,3.879-3.484-1.832-3.484,1.832L46.241,245l-2.819-2.748,3.9-.566Z" transform="translate(-32.119 -176.162)" fill="#fee0e7"/>
    <path id="Trazado_836396" data-name="Trazado 836396" d="M49.739,250.4a.275.275,0,0,1-.128-.031L46.256,248.6,42.9,250.367a.274.274,0,0,1-.4-.289l.641-3.737-2.716-2.647a.274.274,0,0,1,.152-.468l3.753-.545,1.678-3.4a.274.274,0,0,1,.492,0l1.678,3.4,3.753.545a.274.274,0,0,1,.152.468l-2.715,2.647.641,3.737a.274.274,0,0,1-.27.32m-8.532-6.71,2.421,2.36a.274.274,0,0,1,.079.243l-.571,3.332,2.992-1.573a.274.274,0,0,1,.255,0l2.992,1.573-.571-3.332a.274.274,0,0,1,.079-.243l2.421-2.36-3.346-.486a.273.273,0,0,1-.206-.15l-1.5-3.032-1.5,3.032a.274.274,0,0,1-.206.15Z" transform="translate(-29.842 -176.881)" fill="#1a171b"/>
    <path id="Trazado_836397" data-name="Trazado 836397" d="M62.587,243.015a.165.165,0,0,1-.165-.165v-2.53a.165.165,0,1,1,.329,0v2.53a.165.165,0,0,1-.165.165" transform="translate(-46.173 -177.642)" fill="#1a171b"/>
    <path id="Trazado_836398" data-name="Trazado 836398" d="M72.94,257.134a.165.165,0,0,1-.113-.284l2.108-2a.164.164,0,1,1,.226.238l-2.108,2a.164.164,0,0,1-.113.045" transform="translate(-53.831 -188.475)" fill="#1a171b"/>
    <path id="Trazado_836399" data-name="Trazado 836399" d="M71.592,271.533a.165.165,0,0,1-.162-.135l-.527-2.846a.164.164,0,1,1,.323-.06l.527,2.846a.165.165,0,0,1-.132.192l-.03,0" transform="translate(-52.444 -198.503)" fill="#1a171b"/>
    <path id="Trazado_836400" data-name="Trazado 836400" d="M46.918,260.983l-.024,0a.164.164,0,0,1-.139-.187l.08-.542a.164.164,0,0,1,.325.048l-.08.542a.164.164,0,0,1-.162.141m.191-1.3-.024,0a.164.164,0,0,1-.139-.187l.08-.542a.164.164,0,0,1,.325.048l-.08.542a.165.165,0,0,1-.163.141m.191-1.3-.024,0a.165.165,0,0,1-.139-.187l.08-.542a.164.164,0,0,1,.325.048l-.08.542a.164.164,0,0,1-.162.141m-.331-1.134a.164.164,0,0,1-.118-.051l-.38-.4a.164.164,0,1,1,.237-.228l.38.4a.165.165,0,0,1-.119.279m-.912-.949a.164.164,0,0,1-.118-.051l-.38-.4a.164.164,0,0,1,.237-.228l.38.4a.165.165,0,0,1-.119.279m-.912-.948a.165.165,0,0,1-.119-.05l-.38-.4a.164.164,0,0,1,.237-.228l.38.4a.164.164,0,0,1-.119.279" transform="translate(-32.992 -188.344)" fill="#1a171b"/>
    <path id="Trazado_836401" data-name="Trazado 836401" d="M492.048,706.107H449.29a4.29,4.29,0,0,1-4.285-4.286V679.8a4.29,4.29,0,0,1,4.285-4.285h42.757a4.29,4.29,0,0,1,4.285,4.285v22.02a4.29,4.29,0,0,1-4.285,4.286M449.29,676.818a2.987,2.987,0,0,0-2.984,2.984v22.02a2.987,2.987,0,0,0,2.984,2.984h42.757a2.987,2.987,0,0,0,2.984-2.984V679.8a2.987,2.987,0,0,0-2.984-2.984Z" transform="translate(-329.167 -499.675)" fill="#1a171b"/>
    <rect id="Rectángulo_387458" data-name="Rectángulo 387458" width="43.328" height="19.686" transform="translate(119.838 180.127)" fill="#ccbcfe"/>
    <path id="Trazado_836402" data-name="Trazado 836402" d="M502.591,710.944H459.262a.39.39,0,0,1-.39-.39V690.867a.391.391,0,0,1,.39-.39h43.328a.391.391,0,0,1,.39.39v19.686a.39.39,0,0,1-.39.39m-42.938-.781H502.2v-18.9H459.653Z" transform="translate(-339.425 -510.741)" fill="#1a171b"/>
    <path id="Trazado_836403" data-name="Trazado 836403" d="M540.361,683.42a1.139,1.139,0,1,1,1.139-1.139,1.14,1.14,0,0,1-1.139,1.139m0-1.5a.358.358,0,1,0,.358.358.358.358,0,0,0-.358-.358" transform="translate(-398.859 -503.837)" fill="#1a171b"/>
    <path id="Trazado_836404" data-name="Trazado 836404" d="M490.942,781.565H475.206a3.959,3.959,0,0,1-3.388,1.551h-9.535a3.959,3.959,0,0,1-3.388-1.551H443.16c-1.683,0-3.047.942-3.047,2.1v1.957h53.875V783.67c0-1.163-1.364-2.1-3.047-2.1" transform="translate(-325.549 -578.118)" fill="#fff"/>
    <path id="Trazado_836405" data-name="Trazado 836405" d="M492.139,784.429H438.264a.651.651,0,0,1-.651-.651V781.82c0-1.545,1.624-2.755,3.7-2.755h15.736a.651.651,0,0,1,.555.311,3.362,3.362,0,0,0,2.832,1.24h9.535a3.362,3.362,0,0,0,2.833-1.24.651.651,0,0,1,.555-.311h15.736c2.073,0,3.7,1.21,3.7,2.755v1.958a.651.651,0,0,1-.651.651m-53.224-1.3h52.573V781.82c0-.788-1.1-1.454-2.4-1.454h-15.4a4.813,4.813,0,0,1-3.723,1.551h-9.535a4.812,4.812,0,0,1-3.723-1.551h-15.4c-1.3,0-2.4.666-2.4,1.454Z" transform="translate(-323.699 -576.269)" fill="#1a171b"/>
    <path id="Trazado_836406" data-name="Trazado 836406" d="M472.817,773.592H459.262a.39.39,0,0,1,0-.781h13.554a.39.39,0,1,1,0,.781" transform="translate(-339.425 -571.643)" fill="#1a171b"/>
    <path id="Trazado_836407" data-name="Trazado 836407" d="M587.2,773.592H573.642a.39.39,0,0,1,0-.781H587.2a.39.39,0,1,1,0,.781" transform="translate(-424.031 -571.643)" fill="#1a171b"/>
    <rect id="Rectángulo_387459" data-name="Rectángulo 387459" width="0.825" height="10.179" transform="translate(116.374 53.765)" fill="#1a171b"/>
    <path id="Trazado_836408" data-name="Trazado 836408" d="M460.026,212.51v4.215H459.2V206.547h2.867a2.436,2.436,0,0,1,1.968.8,3.824,3.824,0,0,1,0,4.359,2.442,2.442,0,0,1-1.968.8Zm0-.734h2.041a1.574,1.574,0,0,0,1.377-.629,2.707,2.707,0,0,0,.447-1.608,2.749,2.749,0,0,0-.444-1.622,1.573,1.573,0,0,0-1.38-.629h-2.041Z" transform="translate(-339.668 -152.781)" fill="#1a171b"/>
    <path id="Trazado_836409" data-name="Trazado 836409" d="M486.749,222.246l.161.748h.021l.175-.748,1.5-5.655h.846l-2.216,7.564H486.6l-2.23-7.564h.845Z" transform="translate(-358.282 -160.21)" fill="#1a171b"/>
    <path id="Trazado_836410" data-name="Trazado 836410" d="M511.251,213.44h1.2v.727h-1.2v2.559h-.825v-2.559h-3.663v-.5l3.607-7.123h.881Zm-3.558,0h2.733v-5.606l-.021-.007-.217.594Z" transform="translate(-374.849 -152.781)" fill="#1a171b"/>
    <rect id="Rectángulo_387460" data-name="Rectángulo 387460" width="0.825" height="10.179" transform="translate(178.587 176.89)" fill="#1a171b"/>
    <path id="Trazado_836411" data-name="Trazado 836411" d="M699.027,685.51v4.215H698.2V679.547h2.866a2.436,2.436,0,0,1,1.967.8,3.823,3.823,0,0,1,0,4.359,2.441,2.441,0,0,1-1.967.8Zm0-.734h2.041a1.575,1.575,0,0,0,1.377-.629,2.709,2.709,0,0,0,.447-1.608,2.752,2.752,0,0,0-.444-1.622,1.573,1.573,0,0,0-1.38-.629h-2.041Z" transform="translate(-516.455 -502.656)" fill="#1a171b"/>
    <path id="Trazado_836412" data-name="Trazado 836412" d="M725.749,695.246l.161.748h.021l.175-.748,1.5-5.655h.846l-2.216,7.564H725.6l-2.23-7.564h.846Z" transform="translate(-535.069 -510.085)" fill="#1a171b"/>
    <path id="Trazado_836413" data-name="Trazado 836413" d="M750.272,678.982a2.792,2.792,0,0,1,.818.119,2.059,2.059,0,0,1,.678.343l-.188.7a2.2,2.2,0,0,0-.587-.318,2.237,2.237,0,0,0-.72-.1,1.654,1.654,0,0,0-1.444.86,4.275,4.275,0,0,0-.548,2.321v.65l.021.007a2.463,2.463,0,0,1,.811-.713,2.169,2.169,0,0,1,1.056-.259,1.937,1.937,0,0,1,1.706.933,4.426,4.426,0,0,1,.615,2.471,4.324,4.324,0,0,1-.66,2.5,2.051,2.051,0,0,1-1.772.958,2.205,2.205,0,0,1-1.873-1.031,4.975,4.975,0,0,1-.727-2.9v-2.537a4.824,4.824,0,0,1,.8-2.908,2.41,2.41,0,0,1,2.017-1.1m-.28,4.306a1.608,1.608,0,0,0-1.077.374,2.1,2.1,0,0,0-.636,1.01v.916a4.55,4.55,0,0,0,.493,2.317,1.462,1.462,0,0,0,1.282.829,1.305,1.305,0,0,0,1.182-.783,4.055,4.055,0,0,0,.427-1.957,3.92,3.92,0,0,0-.427-1.968,1.358,1.358,0,0,0-1.244-.738" transform="translate(-552.887 -502.238)" fill="#1a171b"/>
    <path id="Trazado_836414" data-name="Trazado 836414" d="M328.63,558.2H325.17l-.825,2.859h-.853l3.055-10.179h.741l3.013,10.179h-.853Zm-3.244-.734h3.034l-1.5-5.229H326.9Z" transform="translate(-239.285 -407.481)" fill="#1a171b"/>
    <path id="Trazado_836415" data-name="Trazado 836415" d="M353.408,555.278a6.076,6.076,0,0,1,.591-2.922,1.85,1.85,0,0,1,1.7-1.069,1.809,1.809,0,0,1,1,.273,2.19,2.19,0,0,1,.71.776l.021-.007v-4.243h.832V558.99h-.727l-.07-.923h-.021a2.176,2.176,0,0,1-.727.79,1.9,1.9,0,0,1-1.035.273,1.856,1.856,0,0,1-1.685-.989,5.323,5.323,0,0,1-.587-2.716Zm.818.147a4.923,4.923,0,0,0,.4,2.177,1.3,1.3,0,0,0,1.241.787,1.415,1.415,0,0,0,.958-.325,2.266,2.266,0,0,0,.608-.919v-3.768a2.566,2.566,0,0,0-.6-.972,1.363,1.363,0,0,0-2.2.518,5.753,5.753,0,0,0-.4,2.356Z" transform="translate(-261.414 -405.415)" fill="#1a171b"/>
    <path id="Trazado_836416" data-name="Trazado 836416" d="M378.3,555.278a6.075,6.075,0,0,1,.591-2.922,1.85,1.85,0,0,1,1.7-1.069,1.808,1.808,0,0,1,1,.273,2.189,2.189,0,0,1,.71.776l.021-.007v-4.243h.832V558.99h-.727l-.07-.923h-.021a2.175,2.175,0,0,1-.727.79,1.9,1.9,0,0,1-1.035.273,1.856,1.856,0,0,1-1.685-.989,5.323,5.323,0,0,1-.587-2.716Zm.818.147a4.923,4.923,0,0,0,.4,2.177,1.3,1.3,0,0,0,1.241.787,1.415,1.415,0,0,0,.958-.325,2.266,2.266,0,0,0,.608-.919v-3.768a2.566,2.566,0,0,0-.6-.972,1.363,1.363,0,0,0-2.2.518,5.752,5.752,0,0,0-.4,2.356Z" transform="translate(-279.829 -405.415)" fill="#1a171b"/>
    <path id="Trazado_836417" data-name="Trazado 836417" d="M406.942,561.279l-.538-.042a1.165,1.165,0,0,0-.892.371,2.385,2.385,0,0,0-.521,1.055v5.425h-.825v-7.564h.727l.084,1.167.021.007a2.43,2.43,0,0,1,.643-.968,1.412,1.412,0,0,1,.958-.346,1.261,1.261,0,0,1,.251.024,1.876,1.876,0,0,1,.2.053Z" transform="translate(-298.96 -414.512)" fill="#1a171b"/>
    <path id="Trazado_836418" data-name="Trazado 836418" d="M420.59,568.228a2.279,2.279,0,0,1-1.877-.905A3.677,3.677,0,0,1,418,564.97v-1.259a3.794,3.794,0,0,1,.723-2.394,2.179,2.179,0,0,1,1.779-.933,2.055,2.055,0,0,1,1.765.835,3.817,3.817,0,0,1,.612,2.3v.832h-4.055v.622a3.274,3.274,0,0,0,.465,1.828,1.474,1.474,0,0,0,1.3.71,2.346,2.346,0,0,0,1.073-.217,1.854,1.854,0,0,0,.7-.615l.336.594a2.17,2.17,0,0,1-.839.706,2.875,2.875,0,0,1-1.265.252m-.091-7.1a1.381,1.381,0,0,0-1.2.71,3.337,3.337,0,0,0-.482,1.786h3.237V563.3a2.789,2.789,0,0,0-.4-1.566,1.3,1.3,0,0,0-1.157-.608" transform="translate(-309.19 -414.512)" fill="#1a171b"/>
    <path id="Trazado_836419" data-name="Trazado 836419" d="M444.785,566.277a1.342,1.342,0,0,0-.308-.891,3.661,3.661,0,0,0-1.167-.786,5.638,5.638,0,0,1-1.608-.968,1.709,1.709,0,0,1-.5-1.29,1.845,1.845,0,0,1,.594-1.395,2.2,2.2,0,0,1,1.58-.563,2.11,2.11,0,0,1,1.622.629,2.3,2.3,0,0,1,.587,1.636h-.818a1.627,1.627,0,0,0-.374-1.073,1.251,1.251,0,0,0-1.017-.451,1.343,1.343,0,0,0-1.014.35,1.282,1.282,0,0,0-.07,1.646,4.515,4.515,0,0,0,1.174.765,5,5,0,0,1,1.615.986,2.052,2.052,0,0,1-.084,2.814,2.331,2.331,0,0,1-1.622.542,2.3,2.3,0,0,1-1.751-.65,2.251,2.251,0,0,1-.619-1.615h.818a1.52,1.52,0,0,0,.482,1.189,1.664,1.664,0,0,0,1.07.357,1.438,1.438,0,0,0,1.034-.353,1.162,1.162,0,0,0,.37-.877" transform="translate(-326.212 -414.512)" fill="#1a171b"/>
    <path id="Trazado_836420" data-name="Trazado 836420" d="M467.049,566.277a1.34,1.34,0,0,0-.308-.891,3.661,3.661,0,0,0-1.167-.786,5.639,5.639,0,0,1-1.608-.968,1.709,1.709,0,0,1-.5-1.29,1.845,1.845,0,0,1,.594-1.395,2.2,2.2,0,0,1,1.58-.563,2.111,2.111,0,0,1,1.622.629,2.3,2.3,0,0,1,.587,1.636h-.818a1.627,1.627,0,0,0-.374-1.073,1.251,1.251,0,0,0-1.017-.451,1.343,1.343,0,0,0-1.014.35,1.282,1.282,0,0,0-.07,1.646,4.507,4.507,0,0,0,1.174.765,5,5,0,0,1,1.615.986,2.052,2.052,0,0,1-.084,2.814,2.331,2.331,0,0,1-1.622.542,2.3,2.3,0,0,1-1.751-.65,2.251,2.251,0,0,1-.619-1.615h.818a1.521,1.521,0,0,0,.482,1.189,1.664,1.664,0,0,0,1.07.357,1.438,1.438,0,0,0,1.034-.353,1.162,1.162,0,0,0,.37-.877" transform="translate(-342.681 -414.512)" fill="#1a171b"/>
    <path id="Trazado_836421" data-name="Trazado 836421" d="M255.746,682.153a.65.65,0,0,1-.573-.343l-2.392-4.462a.65.65,0,0,1,.266-.881l19.086-10.232a.65.65,0,0,1,.881.266l2.392,4.462a.651.651,0,0,1-.266.881l-19.087,10.232a.648.648,0,0,1-.307.077m-1.511-4.846,1.777,3.314L273.952,671l-1.777-3.314Z" transform="translate(-186.923 -492.752)" fill="#1a171b"/>
    <path id="Trazado_836422" data-name="Trazado 836422" d="M343.652,627.38A11.629,11.629,0,1,1,349.127,626a11.655,11.655,0,0,1-5.475,1.384m-.033-21.941a10.317,10.317,0,1,0,9.111,5.441,10.255,10.255,0,0,0-9.111-5.441" transform="translate(-245.592 -446.877)" fill="#1a171b"/>
    <path id="Trazado_836423" data-name="Trazado 836423" d="M351.609,670.45a9.961,9.961,0,0,1-8.789-5.249.39.39,0,0,1,.688-.369,9.183,9.183,0,0,0,12.418,3.75.391.391,0,0,1,.369.689,9.9,9.9,0,0,1-4.686,1.179" transform="translate(-253.548 -491.619)" fill="#1a171b"/>
    <path id="Trazado_836424" data-name="Trazado 836424" d="M256.647,689.351a.39.39,0,0,1-.185-.735l14.872-7.973a.39.39,0,0,1,.369.688L256.831,689.3a.388.388,0,0,1-.184.046" transform="translate(-189.551 -503.433)" fill="#1a171b"/>
    <path id="Trazado_836425" data-name="Trazado 836425" d="M356.23,840.356a11.857,11.857,0,0,0-23.517-1.077,7.737,7.737,0,1,0-3.508,14.939v.039h26.806a6.953,6.953,0,0,0,.219-13.9" transform="translate(-238.367 -613.493)" fill="#ccbcfe"/>
    <path id="Trazado_836426" data-name="Trazado 836426" d="M347.614,859.608H320.808a.647.647,0,0,1-.29-.068,8.388,8.388,0,1,1,3.3-16.406,12.509,12.509,0,0,1,24.608,1.31,7.6,7.6,0,0,1-.813,15.164m-26.584-1.3h26.584a6.3,6.3,0,0,0,.2-12.6.651.651,0,0,1-.629-.6,11.207,11.207,0,0,0-22.226-1.017.651.651,0,0,1-.871.5,7.087,7.087,0,1,0-3.213,13.683.663.663,0,0,1,.158.036" transform="translate(-231.674 -616.487)" fill="#1a171b"/>
    <path id="Trazado_836427" data-name="Trazado 836427" d="M399.427,880.661a.651.651,0,1,1,0-1.3,6.3,6.3,0,0,0,3.981-11.185.651.651,0,0,1,.823-1.008,7.6,7.6,0,0,1-4.8,13.5" transform="translate(-294.972 -641.328)" fill="#fff"/>
    <path id="Trazado_836428" data-name="Trazado 836428" d="M406.477,868.8l-.013-3.142,2.252-2.191-7.44.012Z" transform="translate(-296.822 -638.701)" fill="#fff"/>
    <path id="Trazado_836429" data-name="Trazado 836429" d="M372.659,874.656a.648.648,0,0,1-.411-.147,7.6,7.6,0,0,1,4.8-13.5.651.651,0,0,1,0,1.3A6.3,6.3,0,0,0,373.07,873.5a.651.651,0,0,1-.412,1.155" transform="translate(-273.279 -636.886)" fill="#fff"/>
    <path id="Trazado_836430" data-name="Trazado 836430" d="M372.312,896.486l.013,3.142-2.252,2.191,7.44-.012Z" transform="translate(-273.741 -663.125)" fill="#fff"/>
    <path id="Trazado_836431" data-name="Trazado 836431" d="M207.246,229.354V222.9c0,2.056-7.769,3.723-17.352,3.723s-17.352-1.667-17.352-3.723l.058,9.966c1.591,1.71,8.728,3,17.293,3s15.7-1.291,17.293-3Z" transform="translate(-127.628 -164.876)" fill="#b0c5fd"/>
    <path id="Trazado_836432" data-name="Trazado 836432" d="M207.246,162.956c0,2.056-7.769,3.723-17.352,3.723s-17.352-1.667-17.352-3.723,7.769-3.723,17.352-3.723,17.352,1.667,17.352,3.723" transform="translate(-127.628 -117.784)" fill="#b0c5fd"/>
    <path id="Trazado_836433" data-name="Trazado 836433" d="M180.934,157.014c9.583,0,17.352,1.667,17.352,3.723s-7.769,3.723-17.352,3.723-17.352-1.667-17.352-3.723,7.769-3.723,17.352-3.723m0-.781a62.185,62.185,0,0,0-12.433,1.108c-3.835.823-5.7,1.934-5.7,3.4s1.864,2.573,5.7,3.4a70.338,70.338,0,0,0,24.867,0c3.835-.823,5.7-1.934,5.7-3.4s-1.864-2.573-5.7-3.4a62.185,62.185,0,0,0-12.433-1.108" transform="translate(-120.423 -115.564)" fill="#1a171b"/>
    <path id="Trazado_836434" data-name="Trazado 836434" d="M198.285,176.68v6.456l-.058,3.51c-1.591,1.711-8.728,3-17.293,3s-15.7-1.291-17.293-3l-.058-9.957c.024,2.052,7.783,3.714,17.352,3.714s17.352-1.667,17.352-3.723m-34.7,0v0m34.7-.781a.781.781,0,0,0-.781.781c0,.192-.758,1.074-4.465,1.869a68.839,68.839,0,0,1-24.2,0c-3.71-.794-4.477-1.678-4.479-1.871v-.007h0a.785.785,0,0,0-.781-.766h0a.777.777,0,0,0-.779.776v.014l.058,9.957a.78.78,0,0,0,.209.527c2.088,2.245,10.478,3.25,17.865,3.25s15.777-1.005,17.865-3.25a.78.78,0,0,0,.209-.519l.059-3.511V176.68a.781.781,0,0,0-.781-.781" transform="translate(-120.423 -130.111)" fill="#1a171b"/>
    <path id="Trazado_836435" data-name="Trazado 836435" d="M198.285,221.511v6.456l-.058,3.51c-1.591,1.711-8.728,3-17.293,3s-15.7-1.291-17.293-3l-.058-9.957c.024,2.052,7.783,3.713,17.352,3.713s17.352-1.666,17.352-3.723m-34.7,0v0m34.7-.781a.781.781,0,0,0-.781.781c0,.192-.758,1.074-4.465,1.869a68.847,68.847,0,0,1-24.2,0c-3.71-.794-4.477-1.678-4.479-1.871V221.5h0a.785.785,0,0,0-.781-.765h0a.777.777,0,0,0-.779.776v.014l.058,9.957a.78.78,0,0,0,.209.527c2.088,2.245,10.478,3.25,17.865,3.25s15.777-1.005,17.865-3.25a.78.78,0,0,0,.209-.519l.059-3.511v-6.468a.781.781,0,0,0-.781-.781" transform="translate(-120.423 -163.273)" fill="#1a171b"/>
    <path id="Trazado_836436" data-name="Trazado 836436" d="M198.285,266.343V272.8l-.058,3.511c-1.591,1.711-8.728,3-17.293,3s-15.7-1.29-17.293-3l-.058-9.957c.024,2.052,7.783,3.714,17.352,3.714s17.352-1.667,17.352-3.723m-34.7,0v0m34.7-.781a.781.781,0,0,0-.781.781c0,.192-.758,1.073-4.465,1.869a68.838,68.838,0,0,1-24.2,0c-3.71-.794-4.477-1.678-4.479-1.871v-.007h0a.785.785,0,0,0-.781-.765h0a.777.777,0,0,0-.779.776v.014l.058,9.957a.78.78,0,0,0,.209.527c2.088,2.245,10.478,3.25,17.865,3.25s15.777-1,17.865-3.25a.78.78,0,0,0,.209-.519l.059-3.511v-6.468a.781.781,0,0,0-.781-.781" transform="translate(-120.423 -196.434)" fill="#1a171b"/>
    <path id="Trazado_836437" data-name="Trazado 836437" d="M645.272,837.429h-5.515a.391.391,0,0,1-.39-.39V823.9a.391.391,0,0,1,.39-.391h5.515a.391.391,0,0,1,.391.391v13.139a.391.391,0,0,1-.391.39m-5.125-.781h4.734V824.29h-4.734Z" transform="translate(-472.935 -609.144)" fill="#1a171b"/>
    <path id="Trazado_836438" data-name="Trazado 836438" d="M673.444,845.349h-5.515a.391.391,0,0,1-.39-.39V834.607a.391.391,0,0,1,.39-.391h5.515a.391.391,0,0,1,.39.391v10.352a.391.391,0,0,1-.39.39m-5.125-.781h4.734V835h-4.734Z" transform="translate(-493.773 -617.065)" fill="#1a171b"/>
    <rect id="Rectángulo_387461" data-name="Rectángulo 387461" width="5.515" height="20.643" transform="translate(182.514 206.682)" fill="#ccbcfe"/>
    <rect id="Rectángulo_387462" data-name="Rectángulo 387462" width="5.515" height="30.382" transform="translate(189.847 196.943)" fill="#ccbcfe"/>
    <path id="Trazado_836439" data-name="Trazado 836439" d="M701.615,816.107H696.1a.39.39,0,0,1-.39-.39V795.073a.39.39,0,0,1,.39-.39h5.515a.39.39,0,0,1,.391.39v20.643a.391.391,0,0,1-.391.39m-5.125-.781h4.734V795.464H696.49Z" transform="translate(-514.611 -587.822)" fill="#1a171b"/>
    <path id="Trazado_836440" data-name="Trazado 836440" d="M729.786,788.432H724.27a.39.39,0,0,1-.39-.391V757.659a.39.39,0,0,1,.39-.391h5.515a.391.391,0,0,1,.39.391v30.382a.391.391,0,0,1-.39.391m-5.125-.781H729.4v-29.6h-4.734Z" transform="translate(-535.449 -560.147)" fill="#1a171b"/>
    <rect id="Rectángulo_387463" data-name="Rectángulo 387463" width="24.369" height="13.218" transform="translate(134.212 5.927)" fill="#ccbcfe"/>
    <rect id="Rectángulo_387464" data-name="Rectángulo 387464" width="13.218" height="13.218" transform="translate(121.606 33.747)" fill="#fdb6c7"/>
    <path id="Trazado_836441" data-name="Trazado 836441" d="M532.109,28.79H507.74a.651.651,0,0,1-.651-.651V14.921a.651.651,0,0,1,.651-.651h24.369a.651.651,0,0,1,.651.651V28.139a.651.651,0,0,1-.651.651m-23.718-1.3h23.067V15.572H508.391Z" transform="translate(-375.09 -10.555)" fill="#1a171b"/>
    <path id="Trazado_836442" data-name="Trazado 836442" d="M473.912,136.588H460.693a.39.39,0,0,1-.39-.39V122.979a.391.391,0,0,1,.39-.39h13.218a.391.391,0,0,1,.39.39V136.2a.39.39,0,0,1-.39.39m-12.828-.781h12.437V123.37H461.084Z" transform="translate(-340.483 -90.678)" fill="#1a171b"/>
    <rect id="Rectángulo_387465" data-name="Rectángulo 387465" width="13.218" height="13.218" transform="translate(157.962 33.747)" fill="#fdb6c7"/>
    <path id="Trazado_836443" data-name="Trazado 836443" d="M543.116,136.588H529.9a.39.39,0,0,1-.39-.39V122.979a.391.391,0,0,1,.39-.39h13.218a.391.391,0,0,1,.39.39V136.2a.39.39,0,0,1-.39.39m-12.828-.781h12.437V123.37H530.288Z" transform="translate(-391.673 -90.678)" fill="#1a171b"/>
    <path id="Trazado_836444" data-name="Trazado 836444" d="M612.321,136.588H599.1a.39.39,0,0,1-.39-.39V122.979a.39.39,0,0,1,.39-.39h13.218a.391.391,0,0,1,.39.39V136.2a.39.39,0,0,1-.39.39m-12.828-.781H611.93V123.37H599.493Z" transform="translate(-442.863 -90.678)" fill="#1a171b"/>
    <path id="Trazado_836445" data-name="Trazado 836445" d="M555.287,81.548a.39.39,0,0,1-.391-.39V66.439a.39.39,0,1,1,.781,0V81.157a.39.39,0,0,1-.39.39" transform="translate(-410.454 -48.856)" fill="#1a171b"/>
    <path id="Trazado_836446" data-name="Trazado 836446" d="M624.491,101.178a.39.39,0,0,1-.39-.39v-7.81a.39.39,0,0,1,.781,0v7.81a.39.39,0,0,1-.391.39" transform="translate(-461.643 -68.486)" fill="#1a171b"/>
    <path id="Trazado_836447" data-name="Trazado 836447" d="M486.085,101.178a.39.39,0,0,1-.39-.39v-7.81a.39.39,0,0,1,.781,0v7.81a.39.39,0,0,1-.39.39" transform="translate(-359.265 -68.486)" fill="#1a171b"/>
    <path id="Trazado_836448" data-name="Trazado 836448" d="M522.114,93.368H486.086a.39.39,0,1,1,0-.781h36.028a.39.39,0,1,1,0,.781" transform="translate(-359.266 -68.486)" fill="#1a171b"/>
    <rect id="Rectángulo_387466" data-name="Rectángulo 387466" width="11.738" height="61.256" transform="translate(44.787 91.477)" fill="#ccbcfe"/>
    <path id="Trazado_836449" data-name="Trazado 836449" d="M265.573,390.715v21.961H253.835V351.42h20.447q8.876,0,13.9,5.343t5.028,14.3q0,9-5.028,14.325t-13.9,5.322Zm0-9.593h8.709a6.008,6.008,0,0,0,5.385-2.777,12.971,12.971,0,0,0,1.809-7.194,13.358,13.358,0,0,0-1.809-7.32,5.984,5.984,0,0,0-5.385-2.819h-8.709Z" transform="translate(-187.76 -259.943)" fill="#ccbcfe"/>
    <path id="Trazado_836450" data-name="Trazado 836450" d="M167.857,415H156.119a.651.651,0,0,1-.651-.651V353.093a.651.651,0,0,1,.651-.651h11.738a.651.651,0,0,1,.651.651v61.256a.651.651,0,0,1-.651.651m-11.087-1.3h10.436V353.744H156.77Z" transform="translate(-114.999 -260.699)" fill="#1a171b"/>
    <path id="Trazado_836451" data-name="Trazado 836451" d="M249.639,415H237.9a.651.651,0,0,1-.651-.651V353.093a.651.651,0,0,1,.651-.651h20.447c6.076,0,10.914,1.866,14.379,5.548s5.2,8.634,5.2,14.75c0,6.146-1.751,11.116-5.205,14.772s-8.3,5.526-14.378,5.526H250.29v21.311a.651.651,0,0,1-.651.651m-11.087-1.3h10.436V392.388a.651.651,0,0,1,.651-.651h8.709c5.7,0,10.224-1.722,13.432-5.118s4.85-8.076,4.85-13.879c0-5.774-1.632-10.437-4.851-13.858s-7.727-5.138-13.431-5.138h-19.8Zm19.8-30.252h-8.709a.651.651,0,0,1-.651-.651v-20.11a.651.651,0,0,1,.651-.651h8.709a6.622,6.622,0,0,1,5.933,3.118,14.046,14.046,0,0,1,1.913,7.672,13.656,13.656,0,0,1-1.915,7.549,6.647,6.647,0,0,1-5.93,3.072m-8.058-1.3h8.058a5.35,5.35,0,0,0,4.84-2.481,12.4,12.4,0,0,0,1.7-6.839,12.786,12.786,0,0,0-1.706-6.969,5.327,5.327,0,0,0-4.837-2.52H250.29Z" transform="translate(-175.492 -260.699)" fill="#1a171b"/>
    <path id="Trazado_836452" data-name="Trazado 836452" d="M515.356,334.8H431.35a6.854,6.854,0,0,1-6.846-6.846V283.9a6.854,6.854,0,0,1,6.846-6.846h84.006A6.854,6.854,0,0,1,522.2,283.9v44.052a6.854,6.854,0,0,1-6.846,6.846m-84.006-56.43a5.538,5.538,0,0,0-5.531,5.531v44.052a5.538,5.538,0,0,0,5.531,5.531h84.006a5.537,5.537,0,0,0,5.531-5.531V283.9a5.537,5.537,0,0,0-5.531-5.531Z" transform="translate(-314.003 -204.935)" fill="#1a171b"/>
    <path id="Trazado_836453" data-name="Trazado 836453" d="M532.153,341.437H446.479a.394.394,0,0,1-.394-.394V299.029a.394.394,0,0,1,.394-.394h85.674a.394.394,0,0,1,.395.394v42.013a.4.4,0,0,1-.395.394m-85.28-.789h84.885V299.424H446.874Z" transform="translate(-329.966 -220.898)" fill="#1a171b"/>
    <path id="Trazado_836468" data-name="Trazado 836468" d="M0,0H85.674V42.013H0Z" transform="translate(116.513 78.131)" fill="#ccbcfe"/>
    <path id="Trazado_836454" data-name="Trazado 836454" d="M531.425,340.965H445.751a.651.651,0,0,1-.651-.651V298.3a.651.651,0,0,1,.651-.651h85.674a.651.651,0,0,1,.651.651v42.013a.651.651,0,0,1-.651.651m-85.023-1.3h84.372V298.952H446.4Z" transform="translate(-329.237 -220.17)"/>
    <path id="Trazado_836455" data-name="Trazado 836455" d="M586.516,512.523H559.88a.394.394,0,0,1-.385-.477l3.624-16.888a.4.4,0,0,1,.386-.312h19.388a.4.4,0,0,1,.386.312l3.624,16.888a.394.394,0,0,1-.386.477m-26.148-.789h25.66l-3.455-16.1H563.823Z" transform="translate(-413.848 -366.034)" fill="#1a171b"/>
    <path id="Trazado_836456" data-name="Trazado 836456" d="M573.253,566.031H533.025a.658.658,0,0,1-.658-.658v-3.821A3.637,3.637,0,0,1,536,557.92h34.278a3.637,3.637,0,0,1,3.633,3.633v3.821a.658.658,0,0,1-.657.658m-39.571-1.315H572.6v-3.164a2.321,2.321,0,0,0-2.318-2.318H536a2.321,2.321,0,0,0-2.318,2.318Z" transform="translate(-393.788 -412.69)" fill="#1a171b"/>
    <path id="Trazado_836457" data-name="Trazado 836457" d="M763.6,475.574a1.836,1.836,0,1,1,1.836-1.836,1.838,1.838,0,0,1-1.836,1.836m0-2.883a1.047,1.047,0,1,0,1.047,1.047,1.048,1.048,0,0,0-1.047-1.047" transform="translate(-563.469 -349.063)" fill="#1a171b"/>
    <path id="Trazado_836458" data-name="Trazado 836458" d="M741.353,475.574a1.836,1.836,0,1,1,1.836-1.836,1.838,1.838,0,0,1-1.836,1.836m0-2.883a1.047,1.047,0,1,0,1.047,1.047,1.048,1.048,0,0,0-1.047-1.047" transform="translate(-547.016 -349.063)" fill="#1a171b"/>
    <path id="Trazado_836459" data-name="Trazado 836459" d="M528.627,378.025l-4.154-5.922-5.922-4.154,14.036-3.96Z" transform="translate(-383.569 -269.24)" fill="#fff"/>
    <path id="Trazado_836460" data-name="Trazado 836460" d="M527.378,377.216a.44.44,0,0,1-.36-.187l-4.11-5.859-5.859-4.11a.439.439,0,0,1,.133-.782l14.036-3.96a.439.439,0,0,1,.542.542L527.8,376.9a.439.439,0,0,1-.349.314.414.414,0,0,1-.074.006m-9.066-10.344,5.164,3.623a.444.444,0,0,1,.108.108l3.623,5.165,3.5-12.391Z" transform="translate(-382.32 -267.992)" fill="#1a171b"/>
    <path id="Trazado_836461" data-name="Trazado 836461" d="M503.525,343.234a.439.439,0,0,1-.311-.129l-4.708-4.708a.439.439,0,0,1,.621-.621l4.708,4.708a.439.439,0,0,1-.311.75" transform="translate(-368.647 -249.756)" fill="#1a171b"/>
    <path id="Trazado_836462" data-name="Trazado 836462" d="M583.029,339.118a.439.439,0,0,1-.311-.75l4.313-4.313a.439.439,0,0,1,.621.621l-4.314,4.313a.438.438,0,0,1-.311.129" transform="translate(-430.938 -247.003)" fill="#1a171b"/>
    <path id="Trazado_836463" data-name="Trazado 836463" d="M546.7,329.358a.439.439,0,0,1-.439-.439v-7a.439.439,0,0,1,.878,0v7a.439.439,0,0,1-.439.439" transform="translate(-404.069 -237.794)" fill="#1a171b"/>
    <path id="Trazado_836464" data-name="Trazado 836464" d="M582.5,422.21a.438.438,0,0,1-.311-.129l-4.708-4.708a.439.439,0,0,1,.621-.621l4.708,4.707a.439.439,0,0,1-.311.75" transform="translate(-427.065 -308.174)" fill="#1a171b"/>
    <path id="Trazado_836465" data-name="Trazado 836465" d="M583.029,339.118a.439.439,0,0,1-.311-.75l4.313-4.313a.439.439,0,0,1,.621.621l-4.314,4.313a.438.438,0,0,1-.311.129" transform="translate(-430.938 -247.003)" fill="#1a171b"/>
    <path id="Trazado_836466" data-name="Trazado 836466" d="M592.148,387.7h-7a.439.439,0,0,1,0-.879h7a.439.439,0,0,1,0,.879" transform="translate(-432.503 -286.13)" fill="#1a171b"/>
    <path id="Trazado_836467" data-name="Trazado 836467" d="M494.59,405.332a.439.439,0,0,1-.311-.75L505.158,393.7l-.681-.681L493.6,403.9a.439.439,0,0,1-.621-.621l11.189-11.189a.439.439,0,0,1,.621,0l1.3,1.3a.439.439,0,0,1,0,.621L494.9,405.2a.438.438,0,0,1-.311.129" transform="translate(-364.557 -289.932)" fill="#1a171b"/>
  </g>
</svg>
