<svg xmlns="http://www.w3.org/2000/svg" width="80" height="80" viewBox="0 0 80 80">
  <g id="Grupo_1094285" data-name="Grupo 1094285" transform="translate(-310 -5739)">
    <path id="Trazado_769901" data-name="Trazado 769901" d="M40,0A40,40,0,1,1,0,40,40,40,0,0,1,40,0Z" transform="translate(310 5739)" fill="#6e40fc"/>
    <g id="camara-de-video" transform="translate(321.033 5692.55)">
      <g id="Grupo_958173" data-name="Grupo 958173" transform="translate(5.262 66.711)">
        <path id="Trazado_726307" data-name="Trazado 726307" d="M21.63,77.447H46.872a5.641,5.641,0,0,1,5.63,5.63V87.95l10.564-6.1a2.252,2.252,0,0,1,3.378,1.95v24.82a2.252,2.252,0,0,1-3.378,1.95l-10.564-6.1v4.874a5.641,5.641,0,0,1-5.63,5.63H21.63a5.641,5.641,0,0,1-5.63-5.63V83.077A5.641,5.641,0,0,1,21.63,77.447Z" transform="translate(-16 -77.447)" fill="#ccbcfe" fill-rule="evenodd"/>
        <path id="Trazado_726308" data-name="Trazado 726308" d="M52.1,114.819a5.644,5.644,0,0,1-5.231,3.552H21.63a5.641,5.641,0,0,1-5.63-5.63V86.472a5.644,5.644,0,0,1,3.552-5.231,5.591,5.591,0,0,0-.4,2.078v26.269a5.641,5.641,0,0,0,5.63,5.63H50.025A5.591,5.591,0,0,0,52.1,114.819Z" transform="translate(-16 -80.842)" fill="#faedc0" fill-rule="evenodd"/>
        <path id="Trazado_726309" data-name="Trazado 726309" d="M363.337,122.815l10.564-6.1a2.252,2.252,0,0,1,3.378,1.95v24.82a2.252,2.252,0,0,1-3.378,1.95l-10.564-6.1Z" transform="translate(-326.835 -112.311)" fill="#0ce6ea" fill-rule="evenodd"/>
        <path id="Trazado_726310" data-name="Trazado 726310" d="M366.05,182.143V162.489l-2.713,1.566v16.522Z" transform="translate(-326.835 -153.552)" fill="#7c8b96" fill-rule="evenodd"/>
        <path id="Trazado_726311" data-name="Trazado 726311" d="M145.184,176.985l-14.2,8.2a1.2,1.2,0,0,1-1.793-1.035v-16.4a1.2,1.2,0,0,1,1.793-1.035l14.2,8.2a1.2,1.2,0,0,1,0,2.07Z" transform="translate(-117.292 -157.185)" fill="#f4f8f8" fill-rule="evenodd"/>
        <path id="Trazado_726312" data-name="Trazado 726312" d="M145.184,240.756l-14.2,8.2a1.2,1.2,0,0,1-1.793-1.035v-1.245l13.9-8.022a1.163,1.163,0,0,0,.584-.845l1.518.877a1.2,1.2,0,0,1,0,2.07Z" transform="translate(-117.292 -220.956)" fill="#e5ecf1" fill-rule="evenodd"/>
      </g>
      <path id="Trazado_726313" data-name="Trazado 726313" d="M18.418,93.562V77.388l14.006,8.087ZM33.785,83.348l-14.2-8.2A2.457,2.457,0,0,0,15.9,77.274v16.4A2.451,2.451,0,0,0,19.581,95.8l14.2-8.2a2.456,2.456,0,0,0,0-4.255Zm20.66,14.538a.99.99,0,0,1-1.486.857l-9.933-5.735V77.943l9.933-5.735a.99.99,0,0,1,1.486.858ZM40.5,98.61V72.341a4.374,4.374,0,0,0-4.369-4.369H10.892a4.374,4.374,0,0,0-4.369,4.369V98.61a4.373,4.373,0,0,0,4.369,4.368H36.135A4.374,4.374,0,0,0,40.5,98.61ZM55.211,70.023a3.476,3.476,0,0,0-3.513,0L43.026,75.03V72.341a6.9,6.9,0,0,0-6.891-6.891H10.892A6.9,6.9,0,0,0,4,72.341V98.61a6.9,6.9,0,0,0,6.891,6.891H36.135a6.9,6.9,0,0,0,6.891-6.891V95.92l8.672,5.008a3.513,3.513,0,0,0,5.269-3.042V73.066A3.477,3.477,0,0,0,55.211,70.023Z" fill-rule="evenodd"/>
    </g>
  </g>
</svg>
