<svg xmlns="http://www.w3.org/2000/svg" xmlns:xlink="http://www.w3.org/1999/xlink" width="88" height="87" viewBox="0 0 88 87">
  <defs>
    <clipPath id="clip-path">
      <rect id="Rectángulo_387147" data-name="Rectángulo 387147" width="58.899" height="57.351" fill="none"/>
    </clipPath>
  </defs>
  <g id="Grupo_1093729" data-name="Grupo 1093729" transform="translate(-617 -497)">
    <rect id="Rectángulo_387077" data-name="Rectángulo 387077" width="88" height="87" rx="8" transform="translate(617 497)" fill="#fdb6c7"/>
    <g id="Grupo_1093731" data-name="Grupo 1093731" transform="translate(632.101 513.496)">
      <g id="Grupo_1093730" data-name="Grupo 1093730" clip-path="url(#clip-path)">
        <path id="Trazado_835970" data-name="Trazado 835970" d="M22.915,51.1V44.963H5.125A5.13,5.13,0,0,1,0,39.838V5.125A5.129,5.129,0,0,1,5.125,0H53.756a5.067,5.067,0,0,1,3.632,1.512A5.132,5.132,0,0,1,58.9,5.125V39.838a5.132,5.132,0,0,1-1.512,3.613,5.066,5.066,0,0,1-3.632,1.512H35.985V51.1H51.544a3.115,3.115,0,0,1,3.115,3.115v1.53a1.528,1.528,0,0,1-.461,1.125v.018a1.637,1.637,0,0,1-1.124.461H5.825a1.682,1.682,0,0,1-1.143-.461l.018-.018a1.544,1.544,0,0,1-.479-1.125v-1.53A3.147,3.147,0,0,1,7.355,51.1Z"/>
        <path id="Trazado_835971" data-name="Trazado 835971" d="M91.159,413.119H46.971a1.486,1.486,0,0,0-1.106.461,1.548,1.548,0,0,0-.461,1.088v1.549h.018c0,.018,0,.018.018.018H92.689a.018.018,0,0,0,.018-.018v-1.549a1.574,1.574,0,0,0-1.548-1.548Z" transform="translate(-39.615 -360.451)" fill="#5e5e5e"/>
        <rect id="Rectángulo_387146" data-name="Rectángulo 387146" width="9.936" height="6.139" transform="translate(24.481 44.963)" fill="#a4a4a4"/>
        <path id="Trazado_835972" data-name="Trazado 835972" d="M68.056,304.236H12.291v1.051a3.588,3.588,0,0,0,3.558,3.558H64.48a3.588,3.588,0,0,0,3.576-3.558Z" transform="translate(-10.724 -265.449)" fill="#999"/>
        <path id="Trazado_835973" data-name="Trazado 835973" d="M12.291,47.944H68.057v-32.1a3.588,3.588,0,0,0-3.576-3.558H15.849a3.588,3.588,0,0,0-3.558,3.558ZM40.165,15.277A14.445,14.445,0,1,1,29.952,19.5a14.4,14.4,0,0,1,10.213-4.222M16.531,44.847a.784.784,0,1,1,0-1.567H27.113a.784.784,0,1,1,0,1.567Zm0-3.484a.784.784,0,1,1,0-1.567h6.323a.784.784,0,1,1,0,1.567Z" transform="translate(-10.724 -10.724)" fill="#d7edf9"/>
        <path id="Trazado_835974" data-name="Trazado 835974" d="M188.412,197.305a15.135,15.135,0,0,0,.977,2.341c1,1.862,2.267,3.134,3.669,3.484v-6.766a15.866,15.866,0,0,0-4.59.922Z" transform="translate(-164.391 -171.33)" fill="#e9e2ff"/>
        <path id="Trazado_835975" data-name="Trazado 835975" d="M180.17,155.154a23.188,23.188,0,0,0,.608,4.682,17.442,17.442,0,0,1,5.088-1v-3.687Z" transform="translate(-157.2 -135.373)" fill="#ccbcfe"/>
        <path id="Trazado_835976" data-name="Trazado 835976" d="M180.778,106.28a22.84,22.84,0,0,0-.608,4.664h5.7v-3.669A18.065,18.065,0,0,1,180.778,106.28Z" transform="translate(-157.2 -92.73)" fill="#ccbcfe"/>
        <path id="Trazado_835977" data-name="Trazado 835977" d="M193.058,48.73c-1.4.35-2.673,1.622-3.669,3.484a15.14,15.14,0,0,0-.977,2.341l.055.018a15.266,15.266,0,0,0,4.59.9Z" transform="translate(-164.391 -42.517)" fill="#e9e2ff"/>
        <path id="Trazado_835978" data-name="Trazado 835978" d="M241.788,54.555a15.134,15.134,0,0,0-.977-2.341c-1-1.862-2.286-3.134-3.669-3.484v6.747a15.5,15.5,0,0,0,4.59-.9Z" transform="translate(-206.909 -42.517)" fill="#ccbcfe"/>
        <path id="Trazado_835979" data-name="Trazado 835979" d="M242.821,110.945a21.6,21.6,0,0,0-.608-4.664,18.068,18.068,0,0,1-5.069,1v3.669Z" transform="translate(-206.91 -92.731)" fill="#ccbcfe"/>
        <path id="Trazado_835980" data-name="Trazado 835980" d="M242.212,159.837a21.952,21.952,0,0,0,.608-4.682h-5.678v3.687a17.435,17.435,0,0,1,5.07,1" transform="translate(-206.909 -135.374)" fill="#ccbcfe"/>
        <path id="Trazado_835981" data-name="Trazado 835981" d="M240.811,199.646a15.135,15.135,0,0,0,.977-2.341l-.055-.018a16.12,16.12,0,0,0-4.59-.922v6.766c1.383-.35,2.673-1.622,3.669-3.484" transform="translate(-206.909 -171.33)" fill="#ccbcfe"/>
        <path id="Trazado_835982" data-name="Trazado 835982" d="M288.33,89a23.787,23.787,0,0,1,.737,5.291h4.811a12.78,12.78,0,0,0-2.673-7.1A13.8,13.8,0,0,1,288.33,89Z" transform="translate(-251.571 -76.077)" fill="#e9e2ff"/>
        <path id="Trazado_835983" data-name="Trazado 835983" d="M265.917,54.224a11.842,11.842,0,0,1,1.383,2.065,16.36,16.36,0,0,1,1.032,2.434,13.136,13.136,0,0,0,2.286-1.475l-.037-.037a12.814,12.814,0,0,0-4.664-2.986" transform="translate(-232.015 -47.311)" fill="#ccbcfe"/>
        <path id="Trazado_835984" data-name="Trazado 835984" d="M161.345,58.723A18.575,18.575,0,0,1,162.4,56.29a10.078,10.078,0,0,1,1.383-2.065,12.813,12.813,0,0,0-4.664,2.986l-.055.037a13.857,13.857,0,0,0,2.286,1.475" transform="translate(-138.781 -47.312)" fill="#ccbcfe"/>
        <path id="Trazado_835985" data-name="Trazado 835985" d="M134.824,94.29A24.944,24.944,0,0,1,135.543,89a14.3,14.3,0,0,1-2.876-1.807,12.92,12.92,0,0,0-2.673,7.1Z" transform="translate(-113.421 -76.077)" fill="#ccbcfe"/>
        <path id="Trazado_835986" data-name="Trazado 835986" d="M135.544,160.464a25.11,25.11,0,0,1-.719-5.309h-4.83a12.978,12.978,0,0,0,2.673,7.116A14.3,14.3,0,0,1,135.544,160.464Z" transform="translate(-113.422 -135.374)" fill="#ccbcfe"/>
        <path id="Trazado_835987" data-name="Trazado 835987" d="M163.778,213.154a10.078,10.078,0,0,1-1.383-2.065,18.576,18.576,0,0,1-1.051-2.433,13.856,13.856,0,0,0-2.286,1.475l.055.037a12.815,12.815,0,0,0,4.664,2.986" transform="translate(-138.781 -182.054)" fill="#ccbcfe"/>
        <path id="Trazado_835988" data-name="Trazado 835988" d="M268.333,208.656a16.358,16.358,0,0,1-1.032,2.433,11.83,11.83,0,0,1-1.382,2.065,12.813,12.813,0,0,0,4.664-2.986l.037-.037a13.126,13.126,0,0,0-2.286-1.475" transform="translate(-232.016 -182.054)" fill="#e9e2ff"/>
        <path id="Trazado_835989" data-name="Trazado 835989" d="M289.067,155.154a23.953,23.953,0,0,1-.737,5.309,13.8,13.8,0,0,1,2.876,1.807,12.7,12.7,0,0,0,2.673-7.116Z" transform="translate(-251.571 -135.373)" fill="#e9e2ff"/>
      </g>
    </g>
  </g>
</svg>
