<svg xmlns="http://www.w3.org/2000/svg" width="141.216" height="107.312" viewBox="0 0 141.216 107.312">
  <g id="Grupo_1094335" data-name="Grupo 1094335" transform="translate(-198 -2364.344)">
    <path id="Trazado_836477" data-name="Trazado 836477" d="M291.96,460.726c-.218,1.215-.471,2.4-.754,3.544Z" transform="translate(-40.408 1987.15)" fill="#272e38"/>
    <path id="Trazado_836478" data-name="Trazado 836478" d="M251.889,60.521a1.77,1.77,0,0,1-1.772,1.772h-6.282a1.772,1.772,0,1,1,0-3.544h6.282a1.774,1.774,0,0,1,1.772,1.772" transform="translate(-0.175 2316.246)" fill="#272e38"/>
    <path id="Trazado_836479" data-name="Trazado 836479" d="M339.651,60.521a1.77,1.77,0,0,1-1.772,1.772H331.6a1.772,1.772,0,1,1,0-3.544h6.282a1.774,1.774,0,0,1,1.772,1.772" transform="translate(-72.025 2316.246)" fill="#272e38"/>
    <path id="Trazado_836480" data-name="Trazado 836480" d="M263.628,512.249a32.187,32.187,0,0,1-12.267,7.2,31.633,31.633,0,0,0,5.594-9.862,35.735,35.735,0,0,1,6.673,2.658" transform="translate(-7.788 1947.145)" fill="#b0dff3"/>
    <path id="Trazado_836481" data-name="Trazado 836481" d="M87.582,518.95a32.22,32.22,0,0,1-12.414-7.341,36.238,36.238,0,0,1,6.779-2.633,31.819,31.819,0,0,0,5.635,9.974" transform="translate(136.46 1947.648)" fill="#b0dff3"/>
    <path id="Trazado_836482" data-name="Trazado 836482" d="M35.543,419.77a38.568,38.568,0,0,0-8.2,3.331,32.094,32.094,0,0,1-7.523-18.974H33.27a62.663,62.663,0,0,0,2.273,15.643" transform="translate(181.77 2033.487)" fill="#b0dff3"/>
    <path id="Trazado_836483" data-name="Trazado 836483" d="M304.058,404.127a31.936,31.936,0,0,1-2.278,10.262,30.74,30.74,0,0,1-1.691,3.544,32.09,32.09,0,0,1-3.686,5.326,37.707,37.707,0,0,0-8.1-3.377c.187-.638.359-1.286.527-1.949.283-1.144.536-2.329.754-3.544a67.425,67.425,0,0,0,1.028-10.262Z" transform="translate(-38.032 2033.487)" fill="#b0dff3"/>
    <path id="Trazado_836484" data-name="Trazado 836484" d="M263.779,232.091a36.215,36.215,0,0,1-6.789,2.628,31.743,31.743,0,0,0-5.629-9.968,32.265,32.265,0,0,1,12.418,7.341" transform="translate(-7.788 2180.343)" fill="#b0dff3"/>
    <path id="Trazado_836485" data-name="Trazado 836485" d="M88.245,224.75a31.585,31.585,0,0,0-5.594,9.862,35.123,35.123,0,0,1-6.672-2.663,32.24,32.24,0,0,1,12.267-7.2" transform="translate(135.797 2180.343)" fill="#b0dff3"/>
    <path id="Trazado_836486" data-name="Trazado 836486" d="M35.574,282.443a62.67,62.67,0,0,0-2.3,15.75H19.824a32.117,32.117,0,0,1,7.655-19.131,37.667,37.667,0,0,0,8.1,3.382" transform="translate(181.77 2135.879)" fill="#b0dff3"/>
    <path id="Trazado_836487" data-name="Trazado 836487" d="M304.2,298.9H290.744a62.666,62.666,0,0,0-2.273-15.638,38.293,38.293,0,0,0,8.206-3.336A32.148,32.148,0,0,1,304.2,298.9" transform="translate(-38.169 2135.17)" fill="#b0dff3"/>
    <path id="Trazado_836488" data-name="Trazado 836488" d="M216.561,499.338c-2.5,6.571-6.166,11.123-10.267,12.069V498.143a58.529,58.529,0,0,1,10.267,1.195" transform="translate(29.108 1956.518)" fill="#b0dff3"/>
    <path id="Trazado_836489" data-name="Trazado 836489" d="M141.849,498.143v13.173c-3.969-1.124-7.513-5.635-9.943-12.059a57.123,57.123,0,0,1,9.943-1.114" transform="translate(90.009 1956.518)" fill="#b0dff3"/>
    <path id="Trazado_836490" data-name="Trazado 836490" d="M126.831,404.127v13.5a60.907,60.907,0,0,0-11.067,1.281,59.15,59.15,0,0,1-2.2-14.778Z" transform="translate(105.027 2033.487)" fill="#b0dff3"/>
    <path id="Trazado_836491" data-name="Trazado 836491" d="M219.921,404.127a59.155,59.155,0,0,1-2.233,14.859,60.526,60.526,0,0,0-11.4-1.362v-13.5Z" transform="translate(29.109 2033.487)" fill="#b0dff3"/>
    <path id="Trazado_836492" data-name="Trazado 836492" d="M216.59,229.584a57.571,57.571,0,0,1-10.3,1.124V217.434c4.111.947,7.8,5.533,10.3,12.15" transform="translate(29.109 2186.332)" fill="#b0dff3"/>
    <path id="Trazado_836493" data-name="Trazado 836493" d="M141.987,217.909v13.163a57.55,57.55,0,0,1-9.913-1.179c2.43-6.384,5.964-10.859,9.913-11.983" transform="translate(89.872 2185.943)" fill="#b0dff3"/>
    <path id="Trazado_836494" data-name="Trazado 836494" d="M126.809,304v13.512H113.535a59.389,59.389,0,0,1,2.232-14.854A59.465,59.465,0,0,0,126.809,304" transform="translate(105.05 2116.563)" fill="#b0dff3"/>
    <path id="Trazado_836495" data-name="Trazado 836495" d="M219.921,317.875H206.293V304.388a60.619,60.619,0,0,0,11.421-1.286,59.29,59.29,0,0,1,2.207,14.773" transform="translate(29.109 2116.196)" fill="#b0dff3"/>
    <path id="Trazado_836496" data-name="Trazado 836496" d="M135.136,0H40.05a6.1,6.1,0,0,0-6.09,6.09V35.737A35.709,35.709,0,0,0,9.756,46.96a1.455,1.455,0,0,0-.268.289,35.74,35.74,0,0,0-.2,48.282.066.066,0,0,0,.03.035,1.322,1.322,0,0,0,.3.324c0,.01,0,.01.01.01a35.676,35.676,0,0,0,25.829,11.406c.117,0,.233,0,.349,0s.223,0,.339,0A35.669,35.669,0,0,0,61.855,96.047c.005,0,.01,0,.015-.015.091-.091.172-.177.253-.268l0-.005a35.875,35.875,0,0,0,5.928-8.682h67.079a6.086,6.086,0,0,0,6.08-6.085V6.09A6.091,6.091,0,0,0,135.136,0M26.042,40.749a31.588,31.588,0,0,0-5.594,9.862,35.121,35.121,0,0,1-6.672-2.663,32.24,32.24,0,0,1,12.267-7.2M11.249,50.6a37.665,37.665,0,0,0,8.1,3.382,62.669,62.669,0,0,0-2.3,15.75H3.594A32.118,32.118,0,0,1,11.249,50.6M3.594,73.271H17.041a62.656,62.656,0,0,0,2.273,15.643,38.559,38.559,0,0,0-8.2,3.331A32.1,32.1,0,0,1,3.594,73.271M13.628,94.914a36.233,36.233,0,0,1,6.779-2.633,31.819,31.819,0,0,0,5.635,9.973,32.218,32.218,0,0,1-12.414-7.341m20.23,8.576c-3.969-1.124-7.513-5.635-9.943-12.059a57.106,57.106,0,0,1,9.943-1.114Zm0-16.722a60.921,60.921,0,0,0-11.067,1.281,59.147,59.147,0,0,1-2.2-14.778H33.858Zm0-17.041H20.584a59.383,59.383,0,0,1,2.233-14.854,59.46,59.46,0,0,0,11.041,1.341Zm0-17.056a57.55,57.55,0,0,1-9.913-1.179c2.43-6.384,5.964-10.859,9.913-11.983ZM37.4,39.422c4.111.947,7.8,5.533,10.3,12.15A57.553,57.553,0,0,1,37.4,52.7Zm8.171,1.326a32.264,32.264,0,0,1,12.418,7.341A36.193,36.193,0,0,1,51.2,50.717a31.739,31.739,0,0,0-5.629-9.968M37.4,56.24a60.618,60.618,0,0,0,11.421-1.286,59.3,59.3,0,0,1,2.207,14.773H37.4Zm0,17.031H51.031A59.163,59.163,0,0,1,48.8,88.13a60.525,60.525,0,0,0-11.4-1.362Zm0,30.31V90.317A58.53,58.53,0,0,1,47.67,91.511c-2.5,6.571-6.166,11.123-10.267,12.069m8.171-1.326a31.633,31.633,0,0,0,5.594-9.862A35.724,35.724,0,0,1,57.84,95.05a32.188,32.188,0,0,1-12.267,7.2M65.748,83.533a30.729,30.729,0,0,1-1.691,3.544A32.088,32.088,0,0,1,60.372,92.4a37.712,37.712,0,0,0-8.1-3.377c.187-.638.359-1.286.527-1.949.283-1.144.536-2.329.754-3.544A67.415,67.415,0,0,0,54.58,73.271H68.026a31.934,31.934,0,0,1-2.278,10.262M54.575,69.727A62.666,62.666,0,0,0,52.3,54.089a38.29,38.29,0,0,0,8.206-3.336,32.147,32.147,0,0,1,7.518,18.975Zm83.1,11.264a2.539,2.539,0,0,1-2.536,2.541H69.54A35.627,35.627,0,0,0,71.62,71.5c0-.314,0-.633-.015-.947-.01-.486-.03-.977-.066-1.458-.02-.3-.046-.6-.071-.9-.03-.324-.061-.643-.1-.962-.035-.283-.071-.562-.111-.84q-.038-.3-.091-.592c-.015-.091-.03-.187-.045-.278-.041-.263-.091-.521-.142-.785-.061-.314-.127-.623-.192-.937s-.142-.618-.218-.921c-.046-.2-.1-.4-.152-.6-.046-.182-.1-.364-.147-.547-.046-.162-.1-.329-.147-.491-.071-.238-.142-.471-.218-.709q-.137-.425-.289-.851c-.066-.187-.131-.38-.2-.567-.111-.3-.228-.592-.344-.891-.015-.046-.035-.091-.056-.137-.112-.273-.228-.547-.344-.82-.106-.253-.223-.5-.339-.754-.131-.284-.268-.562-.4-.841-.122-.248-.248-.5-.38-.739-.284-.557-.592-1.1-.911-1.64-.127-.223-.258-.435-.395-.653-.111-.182-.228-.36-.344-.537-.142-.218-.284-.435-.43-.648-.056-.081-.107-.162-.162-.238-.238-.349-.486-.694-.739-1.033q-.205-.289-.425-.562c-.192-.253-.39-.5-.587-.739-.1-.121-.2-.243-.3-.359-.3-.36-.612-.714-.926-1.063a.452.452,0,0,0-.046-.056,1.356,1.356,0,0,0-.258-.278A35.7,35.7,0,0,0,37.5,35.732V27.52H137.672Zm0-57.015H37.5V6.09A2.552,2.552,0,0,1,40.05,3.544h95.086a2.543,2.543,0,0,1,2.536,2.546Z" transform="translate(198 2364.344)" fill="#272e38"/>
    <path id="Trazado_836497" data-name="Trazado 836497" d="M304.485,19.546H209.4a2.551,2.551,0,0,0-2.546,2.546V39.979H307.021V22.092a2.543,2.543,0,0,0-2.536-2.546M221.291,30.2h-6.282a1.772,1.772,0,1,1,0-3.544h6.282a1.772,1.772,0,1,1,0,3.544m15.912,0h-6.282a1.772,1.772,0,0,1,0-3.544H237.2a1.772,1.772,0,1,1,0,3.544" transform="translate(28.651 2348.342)" fill="#ffe59b"/>
    <path id="Trazado_836498" data-name="Trazado 836498" d="M206.853,151.788V160a35.7,35.7,0,0,1,24.518,11.4,1.357,1.357,0,0,1,.258.278.47.47,0,0,1,.046.056c.314.349.628.7.926,1.063.1.116.2.238.3.359.2.243.395.486.587.739q.22.273.425.562c.253.339.5.684.739,1.033.056.076.106.157.162.238.147.213.288.43.43.648.116.177.233.354.344.537.137.218.269.43.4.653.319.537.628,1.083.911,1.64.131.243.258.491.38.739.137.278.273.557.405.841.116.253.233.5.339.754.117.273.233.547.344.82.02.046.04.091.055.137.117.3.233.592.344.891.071.187.137.38.2.567q.152.425.289.851c.076.238.147.471.217.709.051.162.1.329.147.491.051.182.1.364.147.547.056.2.106.395.152.6.076.3.147.613.218.921s.132.623.192.937c.051.263.1.521.142.785.015.091.03.187.046.278q.053.3.091.592c.04.278.076.557.111.84.041.319.071.638.1.962.025.3.051.6.071.9.035.481.056.972.066,1.458.01.314.015.633.015.947a35.627,35.627,0,0,1-2.081,12.034h65.6a2.539,2.539,0,0,0,2.536-2.541V151.788Zm53.218,35.62c-1.822,1.823-4.825,2.8-8.611,2.8a40.017,40.017,0,0,1-4.566-.233V170.828a35.81,35.81,0,0,1,5.346-.4c3.61,0,6.181.835,7.888,2.425a8.976,8.976,0,0,1,2.744,6.991,10.3,10.3,0,0,1-2.8,7.569m20.681,2.633H278.21l-6.181-9.882a60.869,60.869,0,0,1-3.64-6.5l-.086.03c.142,2.455.2,4.794.2,8.029v8.323h-2.369V170.565h2.749l6.237,9.852a54.953,54.953,0,0,1,3.5,6.328l.055-.025c-.228-2.6-.288-4.971-.288-8v-8.151h2.369Zm8.379.288a10.076,10.076,0,0,1-4.971-1.245l.638-2.106a8.9,8.9,0,0,0,4.506,1.271c2.572,0,4.075-1.357,4.075-3.321,0-1.823-1.043-2.86-3.67-3.873-3.179-1.129-5.143-2.774-5.143-5.518,0-3.033,2.516-5.285,6.3-5.285a8.836,8.836,0,0,1,4.3.952l-.688,2.05a7.817,7.817,0,0,0-3.7-.921c-2.658,0-3.67,1.584-3.67,2.916,0,1.817,1.185,2.713,3.873,3.756,3.3,1.271,4.971,2.86,4.971,5.721,0,3-2.228,5.6-6.819,5.6" transform="translate(28.651 2240.076)" fill="#ffe59b"/>
    <path id="Trazado_836499" data-name="Trazado 836499" d="M440.927,257c-1.706-1.59-4.278-2.425-7.888-2.425a35.813,35.813,0,0,0-5.346.4v19.152a39.982,39.982,0,0,0,4.567.233c3.787,0,6.789-.982,8.611-2.8a10.3,10.3,0,0,0,2.8-7.569A8.976,8.976,0,0,0,440.927,257m-8.176,15.345a15.714,15.714,0,0,1-2.542-.147v-15.37a14.119,14.119,0,0,1,2.947-.258c5.316,0,7.913,2.916,7.888,7.508,0,5.26-2.921,8.267-8.292,8.267" transform="translate(-152.149 2155.928)" fill="#272e38"/>
    <path id="Trazado_836500" data-name="Trazado 836500" d="M452.4,273.081c0,5.26-2.921,8.267-8.292,8.267a15.712,15.712,0,0,1-2.542-.147v-15.37a14.122,14.122,0,0,1,2.947-.258c5.316,0,7.913,2.916,7.888,7.508" transform="translate(-163.51 2146.921)" fill="#ffe59b"/>
    <path id="Trazado_836501" data-name="Trazado 836501" d="M546.052,255.354V263.5c0,3.033.061,5.4.288,8l-.056.025a54.926,54.926,0,0,0-3.5-6.328l-6.237-9.852H533.8V274.83h2.369v-8.323c0-3.235-.056-5.574-.2-8.029l.086-.03a60.872,60.872,0,0,0,3.64,6.5l6.182,9.882h2.541V255.354Z" transform="translate(-239.019 2155.287)" fill="#272e38"/>
    <path id="Trazado_836502" data-name="Trazado 836502" d="M640.052,262.375c-2.688-1.043-3.873-1.939-3.873-3.757,0-1.332,1.013-2.916,3.67-2.916a7.817,7.817,0,0,1,3.7.921l.688-2.05a8.836,8.836,0,0,0-4.3-.952c-3.782,0-6.3,2.253-6.3,5.285,0,2.744,1.964,4.389,5.143,5.518,2.627,1.012,3.67,2.05,3.67,3.873,0,1.964-1.5,3.321-4.075,3.321a8.9,8.9,0,0,1-4.506-1.271l-.638,2.106A10.076,10.076,0,0,0,638.2,273.7c4.592,0,6.82-2.6,6.82-5.6,0-2.86-1.676-4.45-4.971-5.721" transform="translate(-320.424 2156.705)" fill="#272e38"/>
    <path id="Trazado_836699" data-name="Trazado 836699" d="M0,0H141.216V107.312H0Z" transform="translate(198 2364.344)" fill="none"/>
  </g>
</svg>
