<svg id="Grupo_1094277" data-name="Grupo 1094277" xmlns="http://www.w3.org/2000/svg" xmlns:xlink="http://www.w3.org/1999/xlink" width="105" height="94.812" viewBox="0 0 105 94.812">
  <defs>
    <clipPath id="clip-path">
      <rect id="Rectángulo_387483" data-name="Rectángulo 387483" width="105" height="94.812" fill="none"/>
    </clipPath>
  </defs>
  <g id="Grupo_1094276" data-name="Grupo 1094276" clip-path="url(#clip-path)">
    <path id="Trazado_836503" data-name="Trazado 836503" d="M105,37.63V81.5c0,3.878-3.254,7.3-8.479,9.662a47.5,47.5,0,0,1-19.094,3.648,47.217,47.217,0,0,1-19.061-3.648c-4.666-2.1-7.756-5.028-8.38-8.38H5.192A5.218,5.218,0,0,1,0,77.593v-11.8A5.218,5.218,0,0,1,5.192,60.6H6.9V52.485H5.192A5.218,5.218,0,0,1,0,47.292v-11.8A5.218,5.218,0,0,1,5.192,30.3H6.9V22.184H5.192a5.274,5.274,0,0,1-3.681-1.512A5.335,5.335,0,0,1,0,16.991V5.193A5.218,5.218,0,0,1,5.192,0H74.436a5.165,5.165,0,0,1,3.681,1.545,5.06,5.06,0,0,1,1.512,3.648v11.8a5.192,5.192,0,0,1-1.512,3.681,5.274,5.274,0,0,1-3.681,1.512H72.727v2.333c1.545-.131,3.089-.164,4.7-.164A47.533,47.533,0,0,1,96.52,27.968C101.746,30.334,105,33.752,105,37.63ZM49.854,52.485H9.694V60.6h40.16ZM54.291,30.3a21.743,21.743,0,0,1,4.075-2.333,40.537,40.537,0,0,1,11.568-3.155V22.184H9.694V30.3Z" transform="translate(0.001 -0.001)"/>
    <path id="Trazado_836504" data-name="Trazado 836504" d="M83.934,12.291H14.69a2.528,2.528,0,0,0-1.709.723,2.358,2.358,0,0,0-.69,1.676v11.8a2.359,2.359,0,0,0,.69,1.676,2.387,2.387,0,0,0,1.709.723H83.934a2.332,2.332,0,0,0,1.709-.723,2.359,2.359,0,0,0,.69-1.676V14.69a2.358,2.358,0,0,0-.69-1.676,2.466,2.466,0,0,0-1.709-.723m-33.357,7.23H78.183v2.793H50.577Zm-30.366,0h2.432v2.793H20.211Zm6.7,0h2.432v2.793H26.916Zm6.671,0h2.432v2.793H33.587Z" transform="translate(-9.498 -9.498)" fill="#fce7ac"/>
    <path id="Trazado_836505" data-name="Trazado 836505" d="M274.371,122.791a44.8,44.8,0,0,0-17.944-3.352c-7.033,0-13.376,1.282-17.911,3.352-4.24,1.906-6.869,4.437-6.869,7.131s2.629,5.258,6.869,7.164c4.535,2.07,10.878,3.352,17.911,3.352a44.8,44.8,0,0,0,17.944-3.352c4.207-1.906,6.836-4.469,6.836-7.164C281.207,127.26,278.578,124.7,274.371,122.791Z" transform="translate(-179 -92.293)" fill="#e9e2ff"/>
    <path id="Trazado_836506" data-name="Trazado 836506" d="M231.648,320.431v8.676c0,2.695,2.629,5.225,6.869,7.131a49.164,49.164,0,0,0,35.854,0c4.207-1.906,6.836-4.436,6.836-7.131v-8.676a19.638,19.638,0,0,1-5.686,3.747,47.532,47.532,0,0,1-19.094,3.615c-7.427,0-14.164-1.38-19.061-3.615a19.827,19.827,0,0,1-5.718-3.747m25.7,11.831a1.4,1.4,0,0,1,.2,2.793c-.132,0-.329.033-.559.033h-1.117c-.23,0-.394-.033-.559-.033a1.391,1.391,0,0,1-1.282-1.479,1.418,1.418,0,0,1,1.479-1.315,2.679,2.679,0,0,0,.46.033h.92a2.678,2.678,0,0,0,.46-.033" transform="translate(-179 -247.605)" fill="#bde2f2"/>
    <path id="Trazado_836507" data-name="Trazado 836507" d="M231.648,256.085v8.676c0,2.695,2.629,5.225,6.869,7.164,4.535,2.07,10.878,3.352,17.911,3.352a44.8,44.8,0,0,0,17.944-3.352c4.207-1.939,6.836-4.469,6.836-7.164v-8.676a19.637,19.637,0,0,1-5.686,3.746,47.528,47.528,0,0,1-19.094,3.615c-7.427,0-14.164-1.38-19.061-3.615a19.826,19.826,0,0,1-5.718-3.746m25.7,11.864a1.384,1.384,0,1,1,.2,2.76,2.662,2.662,0,0,1-.559.033c-.263,0-.46.033-.559.033s-.263-.033-.559-.033a2.825,2.825,0,0,1-.559-.033,1.353,1.353,0,0,1-1.282-1.479,1.391,1.391,0,0,1,1.479-1.282h.46l.46.033.46-.033Z" transform="translate(-179 -197.883)" fill="#e9e2ff"/>
    <path id="Trazado_836508" data-name="Trazado 836508" d="M231.648,191.883v8.643c0,2.695,2.629,5.225,6.869,7.164,4.535,2.07,10.878,3.352,17.911,3.352a44.8,44.8,0,0,0,17.944-3.352c4.207-1.939,6.836-4.469,6.836-7.164v-8.643a19.587,19.587,0,0,1-5.686,3.714,47.528,47.528,0,0,1-19.094,3.615c-7.427,0-14.164-1.38-19.061-3.615a19.777,19.777,0,0,1-5.718-3.714m25.7,11.831A1.353,1.353,0,0,1,258.826,205a1.4,1.4,0,0,1-1.282,1.512h-.559a4.275,4.275,0,0,1-.559.033,4.559,4.559,0,0,1-.559-.033h-.559a1.4,1.4,0,0,1,.2-2.793c.2,0,.362.033.46.033h.92c.1,0,.263-.033.46-.033" transform="translate(-179 -148.273)" fill="#fee0e7"/>
    <path id="Trazado_836509" data-name="Trazado 836509" d="M59.352,162.208v-6.573H50.577v-2.793h8.775v-2.695a7.747,7.747,0,0,1,1.577-4.535H14.69a2.528,2.528,0,0,0-1.709.723,2.358,2.358,0,0,0-.69,1.676v11.8a2.359,2.359,0,0,0,.69,1.676,2.528,2.528,0,0,0,1.709.723Zm-39.141-9.366h2.432v2.793H20.211Zm6.7,0h2.432v2.793H26.915Zm6.671,0h2.432v2.793H33.587Z" transform="translate(-9.498 -112.518)" fill="#fce7ac"/>
    <path id="Trazado_836510" data-name="Trazado 836510" d="M59.352,295.528v-6.573H50.577v-2.793h8.775v-7.23H14.69a2.387,2.387,0,0,0-1.709.723,2.358,2.358,0,0,0-.69,1.676v11.8a2.359,2.359,0,0,0,.69,1.676,2.528,2.528,0,0,0,1.709.723Zm-39.141-9.366h2.432v2.793H20.211Zm6.7,0h2.432v2.793H26.915Zm6.671,0h2.432v2.793H33.587Z" transform="translate(-9.498 -215.537)" fill="#fce7ac"/>
  </g>
</svg>
